<?xml version="1.0" encoding="UTF-8"?><svg width="285.75mm" height="59.7958mm" viewBox="0 0 1080 226" xmlns="http://www.w3.org/2000/svg" xmlns:xlink="http://www.w3.org/1999/xlink"><g fill="none" stroke="black" stroke-width="1" fill-rule="evenodd" stroke-linecap="square" stroke-linejoin="bevel"><g clip-path="none" fill="#ffffff" fill-opacity="1" opacity="1" stroke="none" stroke-opacity="0" transform="matrix(1,0,0,1,0,0)"><path d="M0,0 L1080,0 L1080,226 L0,226 L0,0 z" fill-rule="evenodd" vector-effect="none"/></g><defs><clipPath id="clip3"><path d="M-107,-92 L973,-92 L973,134 L-107,134 L-107,-92 z"/></clipPath></defs><g clip-path="url(#clip3)" fill="#ffffff" fill-opacity="1" opacity="1" stroke="none" stroke-opacity="0" transform="matrix(1,0,0,1,107,92)"><path d="M30,15 C30,23.2843 23.2843,30 15,30 C6.71573,30 0,23.2843 0,15 C0,6.71573 6.71573,0 15,0 C23.2843,0 30,6.71573 30,15 z" fill-rule="nonzero" vector-effect="none"/></g><defs><clipPath id="clip7"><path d="M135,180 L165,180 L165,210 L135,210 L135,180 z"/></clipPath></defs><g clip-path="url(#clip7)" fill="none" opacity="1" stroke="#000000" stroke-linecap="butt" stroke-linejoin="miter" stroke-miterlimit="2" stroke-opacity="1" stroke-width="1" transform="matrix(1,0,0,1,-27.5,-87.5)"><polyline fill="none" points="138,195 142,195" vector-effect="none"/></g><defs><clipPath id="clip8"><path d="M135,180 L165,180 L165,210 L135,210 L135,180 z"/></clipPath></defs><g clip-path="url(#clip8)" fill="none" opacity="1" stroke="#000000" stroke-linecap="butt" stroke-linejoin="miter" stroke-miterlimit="2" stroke-opacity="1" stroke-width="1" transform="matrix(1,0,0,1,-27.5,-87.5)"><polyline fill="none" points="140,193 140,197" vector-effect="none"/></g><defs><clipPath id="clip9"><path d="M135,180 L165,180 L165,210 L135,210 L135,180 z"/></clipPath></defs><g clip-path="url(#clip9)" fill="none" opacity="1" stroke="#000000" stroke-linecap="butt" stroke-linejoin="miter" stroke-miterlimit="2" stroke-opacity="1" stroke-width="1" transform="matrix(1,0,0,1,-27.5,-87.5)"><polyline fill="none" points="148,205 152,205" vector-effect="none"/></g><defs><clipPath id="clip14"><path d="M-107.5,-92.5 L972.5,-92.5 L972.5,133.5 L-107.5,133.5 L-107.5,-92.5 z"/></clipPath></defs><g clip-path="url(#clip14)" fill="none" opacity="1" stroke="#000000" stroke-linecap="butt" stroke-linejoin="miter" stroke-miterlimit="2" stroke-opacity="1" stroke-width="1" transform="matrix(1,0,0,1,107.5,92.5)"><path d="M30,15 C30,23.2843 23.2843,30 15,30 C6.71573,30 0,23.2843 0,15 C0,6.71573 6.71573,0 15,0 C23.2843,0 30,6.71573 30,15 z" fill-rule="nonzero" vector-effect="none"/></g><defs><clipPath id="clip17"><path d="M-2,-92 L1078,-92 L1078,134 L-2,134 L-2,-92 z"/></clipPath></defs><g clip-path="url(#clip17)" fill="#ffffff" fill-opacity="1" opacity="1" stroke="none" stroke-opacity="0" transform="matrix(1,0,0,1,2,92)"><path d="M0,0 L30,0 L30,30 L0,30 L0,0 z" fill-rule="evenodd" vector-effect="none"/></g><defs><clipPath id="clip21"><path d="M0,0 L31,0 L31,31 L0,31 L0,0 z"/></clipPath></defs><g clip-path="url(#clip21)" fill="none" opacity="1" stroke="none" stroke-opacity="0" transform="matrix(1,0,0,1,2,92)"><path d="M0,0 L31,0 L31,31 L0,31 L0,0 z" fill-rule="evenodd" vector-effect="none"/></g><defs><clipPath id="clip31"><path d="M0,0 L30,0 L30,30 L0,30 L0,0 z"/></clipPath></defs><g clip-path="url(#clip31)" fill="#000000" fill-opacity="1" opacity="1" stroke="none" stroke-opacity="0" transform="matrix(1,0,0,1,2,92)"><path d="M12.6406,14.0469 C12.6406,13.2031 12.7266,12.5234 12.8984,12.0078 C13.0703,11.4922 13.3281,11.0938 13.6719,10.8125 C14.0156,10.5313 14.4479,10.3906 14.9688,10.3906 C15.3542,10.3906 15.6901,10.4688 15.9766,10.625 C16.263,10.7813 16.5026,11.0052 16.6953,11.2969 C16.888,11.5885 17.0365,11.9427 17.1406,12.3594 C17.2448,12.776 17.2969,13.3385 17.2969,14.0469 C17.2969,14.8906 17.2109,15.5703 17.0391,16.0859 C16.8672,16.6016 16.6094,17 16.2656,17.2813 C15.9219,17.5625 15.4896,17.7031 14.9688,17.7031 C14.2813,17.7031 13.7396,17.4531 13.3438,16.9531 C12.875,16.3594 12.6406,15.3906 12.6406,14.0469 M13.5313,14.0469 C13.5313,15.224 13.6693,16.0078 13.9453,16.3984 C14.2214,16.7891 14.5625,16.9844 14.9688,16.9844 C15.375,16.9844 15.7161,16.7891 15.9922,16.3984 C16.2682,16.0078 16.4063,15.224 16.4063,14.0469 C16.4063,12.8698 16.2682,12.0885 15.9922,11.7031 C15.7161,11.3177 15.3698,11.125 14.9531,11.125 C14.5573,11.125 14.2344,11.2917 13.9844,11.625 C13.6823,12.0625 13.5313,12.8698 13.5313,14.0469" fill-rule="nonzero" vector-effect="none"/></g><defs><clipPath id="clip51"><path d="M-2.5,-92.5 L1077.5,-92.5 L1077.5,133.5 L-2.5,133.5 L-2.5,-92.5 z"/></clipPath></defs><g clip-path="url(#clip51)" fill="none" opacity="1" stroke="#000000" stroke-linecap="butt" stroke-linejoin="miter" stroke-miterlimit="2" stroke-opacity="1" stroke-width="1" transform="matrix(1,0,0,1,2.5,92.5)"><path d="M0,0 L30,0 L30,30 L0,30 L0,0 z" fill-rule="evenodd" vector-effect="none"/></g><defs><clipPath id="clip54"><path d="M-487,-87 L593,-87 L593,139 L-487,139 L-487,-87 z"/></clipPath></defs><g clip-path="url(#clip54)" fill="#ffffff" fill-opacity="1" opacity="1" stroke="none" stroke-opacity="0" transform="matrix(1,0,0,1,487,87)"><path d="M0,0 L40,0 L40,40 L0,40 L0,0 z" fill-rule="evenodd" vector-effect="none"/></g><defs><clipPath id="clip58"><path d="M0,0 L41,0 L41,41 L0,41 L0,0 z"/></clipPath></defs><g clip-path="url(#clip58)" fill="none" opacity="1" stroke="none" stroke-opacity="0" transform="matrix(1,0,0,1,487,87)"><path d="M0,0 L41,0 L41,41 L0,41 L0,0 z" fill-rule="evenodd" vector-effect="none"/></g><defs><clipPath id="clip68"><path d="M1,1 L41,1 L41,41 L1,41 L1,1 z"/></clipPath></defs><g clip-path="url(#clip68)" fill="none" opacity="1" stroke="#000000" stroke-linecap="round" stroke-linejoin="round" stroke-opacity="1" stroke-width="1" transform="matrix(1,0,0,1,486,85.9999)"><path d="M10.5,21.5 L3.5,21.5" fill-rule="nonzero" vector-effect="none"/></g><defs><clipPath id="clip69"><path d="M1,1 L41,1 L41,41 L1,41 L1,1 z"/></clipPath></defs><g clip-path="url(#clip69)" fill="none" opacity="1" stroke="#ababab" stroke-linecap="round" stroke-linejoin="round" stroke-opacity="1" stroke-width="1" transform="matrix(1,0,0,1,486,85.9999)"><path d="M3.5,21.5 C6.5,21.5 6.5,4.5 10.5,4.5 C15.5,4.5 15.5,38.5 19.5,38.5 C26.5,38.5 26.5,13.5 35.5,14.5" fill-rule="nonzero" vector-effect="none"/></g><defs><clipPath id="clip70"><path d="M1,1 L41,1 L41,41 L1,41 L1,1 z"/></clipPath></defs><g clip-path="url(#clip70)" fill="none" opacity="1" stroke="#000000" stroke-linecap="round" stroke-linejoin="round" stroke-opacity="1" stroke-width="1" transform="matrix(1,0,0,1,486,85.9999)"><path d="M10.5,21.5 C13.5,21.5 13.5,4.5 18.5,4.5 C23.5,4.5 23.5,38.5 28.5,38.5 C33.5,38.5 33.5,23.5 38.5,23.5" fill-rule="nonzero" vector-effect="none"/></g><defs><clipPath id="clip71"><path d="M1,1 L41,1 L41,41 L1,41 L1,1 z"/></clipPath></defs><g clip-path="url(#clip71)" fill="none" opacity="1" stroke="#ababab" stroke-linecap="round" stroke-linejoin="round" stroke-opacity="1" stroke-width="1" transform="matrix(1,0,0,1,486,85.9999)"><path d="M15.5,19.5 L19.5,19.5" fill-rule="nonzero" vector-effect="none"/></g><defs><clipPath id="clip72"><path d="M0,0 L40,0 L40,40 L0,40 L0,0 z"/></clipPath></defs><g clip-path="url(#clip72)" fill="#e4e4e4" fill-opacity="1" opacity="1" stroke="none" stroke-opacity="0" transform="matrix(1,0,0,1,487,87)"><path d="M18.4999,16.4999 L18.4999,20.4999 L21.4999,18.4999 L18.4999,16.4999 z" fill-rule="nonzero" vector-effect="none"/></g><defs><clipPath id="clip73"><path d="M1,1 L41,1 L41,41 L1,41 L1,1 z"/></clipPath></defs><g clip-path="url(#clip73)" fill="none" opacity="1" stroke="#ababab" stroke-linecap="round" stroke-linejoin="round" stroke-opacity="1" stroke-width="1" transform="matrix(1,0,0,1,486,85.9999)"><path d="M19.5,17.5 L19.5,21.5 L22.5,19.5 L19.5,17.5 z" fill-rule="nonzero" vector-effect="none"/></g><defs><clipPath id="clip74"><path d="M1,1 L41,1 L41,41 L1,41 L1,1 z"/></clipPath></defs><g clip-path="url(#clip74)" fill="none" opacity="1" stroke="#ababab" stroke-linecap="round" stroke-linejoin="round" stroke-opacity="1" stroke-width="1" transform="matrix(1,0,0,1,486,85.9999)"><path d="M16.5,26.5 L20.5,26.5" fill-rule="nonzero" vector-effect="none"/></g><defs><clipPath id="clip75"><path d="M0,0 L40,0 L40,40 L0,40 L0,0 z"/></clipPath></defs><g clip-path="url(#clip75)" fill="#e4e4e4" fill-opacity="1" opacity="1" stroke="none" stroke-opacity="0" transform="matrix(1,0,0,1,487,87)"><path d="M19.4999,23.4999 L19.4999,27.4999 L22.4999,25.4999 L19.4999,23.4999 z" fill-rule="nonzero" vector-effect="none"/></g><defs><clipPath id="clip76"><path d="M1,1 L41,1 L41,41 L1,41 L1,1 z"/></clipPath></defs><g clip-path="url(#clip76)" fill="none" opacity="1" stroke="#ababab" stroke-linecap="round" stroke-linejoin="round" stroke-opacity="1" stroke-width="1" transform="matrix(1,0,0,1,486,85.9999)"><path d="M20.5,24.5 L20.5,28.5 L23.5,26.5 L20.5,24.5 z" fill-rule="nonzero" vector-effect="none"/></g><defs><clipPath id="clip96"><path d="M-487.5,-87.5 L592.5,-87.5 L592.5,138.5 L-487.5,138.5 L-487.5,-87.5 z"/></clipPath></defs><g clip-path="url(#clip96)" fill="none" opacity="1" stroke="#000000" stroke-linecap="butt" stroke-linejoin="miter" stroke-miterlimit="2" stroke-opacity="1" stroke-width="1" transform="matrix(1,0,0,1,487.5,87.5)"><path d="M0,0 L40,0 L40,40 L0,40 L0,0 z" fill-rule="evenodd" vector-effect="none"/></g><defs><clipPath id="clip102"><path d="M0,0 L11,0 L11,14 L0,14 L0,0 z"/></clipPath></defs><g clip-path="url(#clip102)" fill="none" opacity="1" stroke="#000000" stroke-linecap="square" stroke-linejoin="bevel" stroke-opacity="1" stroke-width="1" transform="matrix(1,0,0,1,501.57,129)"><text fill="#000000" fill-opacity="1" font-family="Arial" font-size="10" font-style="normal" font-weight="400" stroke="none" textLength="8.85938" x="1" xml:space="preserve" y="10">Tt</text></g><defs><clipPath id="clip110"><path d="M-722,-89 L358,-89 L358,137 L-722,137 L-722,-89 z"/></clipPath></defs><g clip-path="url(#clip110)" fill="#ffffff" fill-opacity="1" opacity="1" stroke="none" stroke-opacity="0" transform="matrix(1,0,0,1,722,89)"><path d="M0,0 L60,0 L60,36 L0,36 L0,0 z" fill-rule="evenodd" vector-effect="none"/></g><defs><clipPath id="clip114"><path d="M0,0 L61,0 L61,37 L0,37 L0,0 z"/></clipPath></defs><g clip-path="url(#clip114)" fill="none" opacity="1" stroke="none" stroke-opacity="0" transform="matrix(1,0,0,1,722,89)"><path d="M0,0 L61,0 L61,37 L0,37 L0,0 z" fill-rule="evenodd" vector-effect="none"/></g><defs><clipPath id="clip125"><path d="M-12,-13 L17,-13 L17,18 L-12,18 L-12,-13 z"/></clipPath></defs><g clip-path="url(#clip125)" fill="#000000" fill-opacity="1" opacity="1" stroke="none" stroke-opacity="0" transform="matrix(1,0,0,1,749.5,104.5)"><path d="M-11,2 L15,2 L15,3 L-11,3 L-11,2 z" fill-rule="evenodd" vector-effect="none"/></g><defs><clipPath id="clip126"><path d="M-12,-13 L17,-13 L17,18 L-12,18 L-12,-13 z"/></clipPath></defs><g clip-path="url(#clip126)" fill="#000000" fill-opacity="1" opacity="1" stroke="none" stroke-opacity="0" transform="matrix(1,0,0,1,749.5,104.5)"><path d="M0.875,-5.76563 L1.96875,-9.75 L2.23438,-10.8125 L2.17188,-10.875 C1.51563,-10.7656 1.04688,-10.6875 0.1875,-10.5781 L0.1875,-10.3594 C0.953125,-10.3281 1.01563,-10.3281 1.01563,-10.0313 C1.01563,-9.92188 0.96875,-9.73438 0.890625,-9.42188 L-0.953125,-2.625 L-0.953125,-2.54688 C-0.953125,-2.15625 0,-1.85938 0.734375,-1.85938 C2.75,-1.85938 4.90625,-4.125 4.90625,-6.17188 C4.90625,-7.17188 4.26563,-7.73438 3.39063,-7.73438 C2.48438,-7.73438 1.76563,-7.23438 0.875,-5.76563 M3.79688,-5.98438 C3.79688,-5.01563 3.14063,-3.73438 2.35938,-2.92188 C1.89063,-2.42188 1.32813,-2.15625 0.765625,-2.15625 C0.359375,-2.15625 0.171875,-2.29688 0.171875,-2.59375 C0.171875,-3.375 0.53125,-4.64063 1.10938,-5.59375 C1.65625,-6.54688 2.26563,-7.09375 2.89063,-7.09375 C3.45313,-7.09375 3.79688,-6.76563 3.79688,-5.98438" fill-rule="nonzero" vector-effect="none"/></g><defs><clipPath id="clip127"><path d="M-12,-13 L17,-13 L17,18 L-12,18 L-12,-13 z"/></clipPath></defs><g clip-path="url(#clip127)" fill="#000000" fill-opacity="1" opacity="1" stroke="none" stroke-opacity="0" transform="matrix(1,0,0,1,749.5,104.5)"><path d="M-6.23438,8.25 L-6.42188,8.25 C-6.53125,8.4375 -6.625,8.48438 -6.8125,8.48438 C-6.92188,8.48438 -7.03125,8.46875 -7.28125,8.39063 C-7.60938,8.3125 -7.78125,8.26563 -8.01563,8.26563 C-8.96875,8.26563 -9.57813,8.8125 -9.57813,9.67188 C-9.57813,10.0938 -9.32813,10.6719 -8.76563,11.375 C-8.25,12.0156 -8.03125,12.4531 -8.03125,12.875 C-8.03125,13.5 -8.40625,13.875 -9.03125,13.875 C-9.70313,13.875 -10.1406,13.3438 -10.3281,12.1094 L-10.5313,12.1094 L-10.7969,14.1719 L-10.5781,14.1719 C-10.5,13.9688 -10.3438,13.8906 -10.2031,13.8906 C-10.0625,13.8906 -9.875,13.9063 -9.64063,14.0156 C-9.32813,14.125 -9.14063,14.1406 -8.92188,14.1406 C-7.84375,14.1406 -7.04688,13.4844 -7.04688,12.4063 C-7.04688,11.8906 -7.28125,11.3906 -7.9375,10.6406 C-8.4375,10.0313 -8.64063,9.65625 -8.64063,9.3125 C-8.64063,8.82813 -8.32813,8.5625 -7.85938,8.5625 C-7.23438,8.5625 -6.84375,9 -6.70313,10.0781 L-6.5,10.0781 L-6.23438,8.25 z" fill-rule="nonzero" vector-effect="none"/></g><defs><clipPath id="clip128"><path d="M-12,-13 L17,-13 L17,18 L-12,18 L-12,-13 z"/></clipPath></defs><g clip-path="url(#clip128)" fill="#000000" fill-opacity="1" opacity="1" stroke="none" stroke-opacity="0" transform="matrix(1,0,0,1,749.5,104.5)"><path d="M5.1875,11.1406 L5.1875,10.2813 L1.79688,10.2813 L1.79688,6.89063 L0.9375,6.89063 L0.9375,10.2813 L-2.45313,10.2813 L-2.45313,11.1406 L0.9375,11.1406 L0.9375,14.5313 L1.79688,14.5313 L1.79688,11.1406 L5.1875,11.1406 z" fill-rule="nonzero" vector-effect="none"/></g><defs><clipPath id="clip129"><path d="M-12,-13 L17,-13 L17,18 L-12,18 L-12,-13 z"/></clipPath></defs><g clip-path="url(#clip129)" fill="#000000" fill-opacity="1" opacity="1" stroke="none" stroke-opacity="0" transform="matrix(1,0,0,1,749.5,104.5)"><path d="M14.7031,12.5625 L14.3594,12.9375 C13.9688,13.3594 13.7969,13.4688 13.6875,13.4688 C13.5781,13.4688 13.5,13.3906 13.5,13.2969 C13.5,13.0313 14.0469,10.7969 14.6563,8.57813 C14.6875,8.45313 14.7031,8.42188 14.7344,8.3125 L14.6406,8.26563 L13.8438,8.35938 L13.8125,8.39063 L13.6719,9.01563 C13.5625,8.54688 13.1875,8.26563 12.625,8.26563 C10.8906,8.26563 8.90625,10.625 8.90625,12.6406 C8.90625,13.625 9.48438,14.1406 10.2031,14.1406 C11.125,14.1406 11.875,13.5781 12.8438,12.1094 C12.5781,13.1719 12.5469,13.2656 12.5469,13.5938 C12.5469,13.9688 12.7031,14.125 13.0625,14.125 C13.5938,14.125 13.9063,13.8906 14.875,12.7031 L14.7031,12.5625 M13.4375,9.3125 C13.4375,10.2344 13.0469,11.3438 12.4375,12.2344 C12.0469,12.7969 11.4375,13.5 10.7813,13.5 C10.3125,13.5 10,13.2656 10,12.5469 C10,11.7188 10.4531,10.5625 11,9.75 C11.5469,8.95313 12.125,8.54688 12.7031,8.54688 C13.1563,8.54688 13.4375,8.85938 13.4375,9.3125" fill-rule="nonzero" vector-effect="none"/></g><defs><clipPath id="clip152"><path d="M-722.5,-89.5 L357.5,-89.5 L357.5,136.5 L-722.5,136.5 L-722.5,-89.5 z"/></clipPath></defs><g clip-path="url(#clip152)" fill="none" opacity="1" stroke="#000000" stroke-linecap="butt" stroke-linejoin="miter" stroke-miterlimit="2" stroke-opacity="1" stroke-width="1" transform="matrix(1,0,0,1,722.5,89.5)"><path d="M0,0 L60,0 L60,36 L0,36 L0,0 z" fill-rule="evenodd" vector-effect="none"/></g><defs><clipPath id="clip155"><path d="M-487,-167 L593,-167 L593,59 L-487,59 L-487,-167 z"/></clipPath></defs><g clip-path="url(#clip155)" fill="#ffffff" fill-opacity="1" opacity="1" stroke="none" stroke-opacity="0" transform="matrix(1,0,0,1,487,167)"><path d="M0,0 L35,0 L35,30 L0,30 L0,0 z" fill-rule="evenodd" vector-effect="none"/></g><defs><clipPath id="clip159"><path d="M0,0 L36,0 L36,31 L0,31 L0,0 z"/></clipPath></defs><g clip-path="url(#clip159)" fill="none" opacity="1" stroke="none" stroke-opacity="0" transform="matrix(1,0,0,1,487,167)"><path d="M0,0 L36,0 L36,31 L0,31 L0,0 z" fill-rule="evenodd" vector-effect="none"/></g><defs><clipPath id="clip169"><path d="M0,1 L34,1 L34,31 L0,31 L0,1 z"/></clipPath></defs><g clip-path="url(#clip169)" fill="none" opacity="1" stroke="#000000" stroke-linecap="round" stroke-linejoin="round" stroke-opacity="1" stroke-width="1" transform="matrix(1,0,0,1,488,166)"><path d="M4.5,26.5 L16.5,26.5 L16.5,6.5 L28.5,6.5" fill-rule="nonzero" vector-effect="none"/></g><defs><clipPath id="clip189"><path d="M-487.5,-167.5 L592.5,-167.5 L592.5,58.5 L-487.5,58.5 L-487.5,-167.5 z"/></clipPath></defs><g clip-path="url(#clip189)" fill="none" opacity="1" stroke="#000000" stroke-linecap="butt" stroke-linejoin="miter" stroke-miterlimit="2" stroke-opacity="1" stroke-width="1" transform="matrix(1,0,0,1,487.5,167.5)"><path d="M0,0 L35,0 L35,30 L0,30 L0,0 z" fill-rule="evenodd" vector-effect="none"/></g><defs><clipPath id="clip195"><path d="M0,0 L30,0 L30,14 L0,14 L0,0 z"/></clipPath></defs><g clip-path="url(#clip195)" fill="none" opacity="1" stroke="#000000" stroke-linecap="square" stroke-linejoin="bevel" stroke-opacity="1" stroke-width="1" transform="matrix(1,0,0,1,489.406,151)"><text fill="#000000" fill-opacity="1" font-family="Arial" font-size="10" font-style="normal" font-weight="400" stroke="none" textLength="27.1875" x="1.5" xml:space="preserve" y="10">v_stör</text></g><defs><clipPath id="clip203"><path d="M-647,-97 L433,-97 L433,129 L-647,129 L-647,-97 z"/></clipPath></defs><g clip-path="url(#clip203)" fill="#ffffff" fill-opacity="1" opacity="1" stroke="none" stroke-opacity="0" transform="matrix(1,0,0,1,647,97)"><path d="M20,10 C20,15.5228 15.5228,20 10,20 C4.47715,20 0,15.5228 0,10 C0,4.47715 4.47715,0 10,0 C15.5228,0 20,4.47715 20,10 z" fill-rule="nonzero" vector-effect="none"/></g><defs><clipPath id="clip207"><path d="M675,185 L695,185 L695,205 L675,205 L675,185 z"/></clipPath></defs><g clip-path="url(#clip207)" fill="none" opacity="1" stroke="#000000" stroke-linecap="butt" stroke-linejoin="miter" stroke-miterlimit="2" stroke-opacity="1" stroke-width="1" transform="matrix(1,0,0,1,-27.5,-87.5)"><polyline fill="none" points="678,195 682,195" vector-effect="none"/></g><defs><clipPath id="clip208"><path d="M675,185 L695,185 L695,205 L675,205 L675,185 z"/></clipPath></defs><g clip-path="url(#clip208)" fill="none" opacity="1" stroke="#000000" stroke-linecap="butt" stroke-linejoin="miter" stroke-miterlimit="2" stroke-opacity="1" stroke-width="1" transform="matrix(1,0,0,1,-27.5,-87.5)"><polyline fill="none" points="680,193 680,197" vector-effect="none"/></g><defs><clipPath id="clip209"><path d="M675,185 L695,185 L695,205 L675,205 L675,185 z"/></clipPath></defs><g clip-path="url(#clip209)" fill="none" opacity="1" stroke="#000000" stroke-linecap="butt" stroke-linejoin="miter" stroke-miterlimit="2" stroke-opacity="1" stroke-width="1" transform="matrix(1,0,0,1,-27.5,-87.5)"><polyline fill="none" points="683,200 687,200" vector-effect="none"/></g><defs><clipPath id="clip214"><path d="M-647.5,-97.5 L432.5,-97.5 L432.5,128.5 L-647.5,128.5 L-647.5,-97.5 z"/></clipPath></defs><g clip-path="url(#clip214)" fill="none" opacity="1" stroke="#000000" stroke-linecap="butt" stroke-linejoin="miter" stroke-miterlimit="2" stroke-opacity="1" stroke-width="1" transform="matrix(1,0,0,1,647.5,97.5)"><path d="M20,10 C20,15.5228 15.5228,20 10,20 C4.47715,20 0,15.5228 0,10 C0,4.47715 4.47715,0 10,0 C15.5228,0 20,4.47715 20,10 z" fill-rule="nonzero" vector-effect="none"/></g><defs><clipPath id="clip217"><path d="M-577,-167 L503,-167 L503,59 L-577,59 L-577,-167 z"/></clipPath></defs><g clip-path="url(#clip217)" fill="#ffffff" fill-opacity="1" opacity="1" stroke="none" stroke-opacity="0" transform="matrix(1,0,0,1,577,167)"><path d="M0,0 L30,15 L0,30 L0,0 z" fill-rule="nonzero" vector-effect="none"/></g><defs><clipPath id="clip221"><path d="M0,0 L30,0 L30,30 L0,30 L0,0 z"/></clipPath></defs><g clip-path="url(#clip221)" fill="none" opacity="1" stroke="none" stroke-opacity="0" transform="matrix(1,0,0,1,577,167)"><path d="M0,0 L30,15 L0,30 L0,0 z" fill-rule="nonzero" vector-effect="none"/></g><defs><clipPath id="clip231"><path d="M6,-1 L36,-1 L36,29 L6,29 L6,-1 z"/></clipPath></defs><g clip-path="url(#clip231)" fill="#000000" fill-opacity="1" opacity="1" stroke="none" stroke-opacity="0" transform="matrix(1,0,0,1,571.492,167.914)"><path d="M6.71875,15.4219 L6.71875,14.5469 L9.42188,14.5469 L9.42188,15.4219 L6.71875,15.4219 M13.9375,15.9063 L14.8594,16.0156 C14.7135,16.5469 14.4453,16.9609 14.0547,17.2578 C13.6641,17.5547 13.1719,17.7031 12.5781,17.7031 C11.8177,17.7031 11.2135,17.4688 10.7656,17 C10.3177,16.5313 10.0938,15.875 10.0938,15.0313 C10.0938,14.1563 10.3203,13.4792 10.7734,13 C11.2266,12.5208 11.8073,12.2813 12.5156,12.2813 C13.2135,12.2813 13.7813,12.5156 14.2188,12.9844 C14.6563,13.4531 14.875,14.1146 14.875,14.9688 C14.875,15.0208 14.875,15.099 14.875,15.2031 L11.0156,15.2031 C11.0469,15.776 11.2057,16.2135 11.4922,16.5156 C11.7786,16.8177 12.1406,16.9688 12.5781,16.9688 C12.901,16.9688 13.1771,16.8854 13.4063,16.7188 C13.6354,16.5521 13.8125,16.2813 13.9375,15.9063 M11.0625,14.4844 L13.9531,14.4844 C13.9115,14.0469 13.8021,13.7188 13.625,13.5 C13.3438,13.1667 12.9792,13 12.5313,13 C12.125,13 11.7865,13.1354 11.5156,13.4063 C11.2448,13.6771 11.0938,14.0365 11.0625,14.4844 M15.2813,17.7031 L17.3594,10.2969 L18.0625,10.2969 L15.9844,17.7031 L15.2813,17.7031 M19.5156,17.5781 L18.7031,17.5781 L18.7031,10.4219 L19.5781,10.4219 L19.5781,12.9688 C19.9531,12.5104 20.4271,12.2813 21,12.2813 C21.3229,12.2813 21.625,12.3438 21.9063,12.4688 C22.1875,12.5938 22.4219,12.7734 22.6094,13.0078 C22.7969,13.2422 22.9427,13.5234 23.0469,13.8516 C23.151,14.1797 23.2031,14.5313 23.2031,14.9063 C23.2031,15.7917 22.9818,16.4792 22.5391,16.9688 C22.0964,17.4583 21.5677,17.7031 20.9531,17.7031 C20.349,17.7031 19.8698,17.4427 19.5156,16.9219 L19.5156,17.5781 M19.5,14.9531 C19.5,15.5677 19.5885,16.0156 19.7656,16.2969 C20.0365,16.7448 20.4115,16.9688 20.8906,16.9688 C21.2656,16.9688 21.5938,16.8021 21.875,16.4688 C22.1563,16.1354 22.2969,15.6406 22.2969,14.9844 C22.2969,14.3073 22.1641,13.8073 21.8984,13.4844 C21.6328,13.1615 21.3073,13 20.9219,13 C20.5365,13 20.2031,13.1667 19.9219,13.5 C19.6406,13.8333 19.5,14.3177 19.5,14.9531" fill-rule="nonzero" vector-effect="none"/></g><defs><clipPath id="clip251"><path d="M-577.5,-167.5 L502.5,-167.5 L502.5,58.5 L-577.5,58.5 L-577.5,-167.5 z"/></clipPath></defs><g clip-path="url(#clip251)" fill="none" opacity="1" stroke="#000000" stroke-linecap="butt" stroke-linejoin="miter" stroke-miterlimit="2" stroke-opacity="1" stroke-width="1" transform="matrix(1,0,0,1,577.5,167.5)"><path d="M0,0 L30,15 L0,30 L0,0 z" fill-rule="nonzero" vector-effect="none"/></g><defs><clipPath id="clip254"><path d="M-837,-92 L243,-92 L243,134 L-837,134 L-837,-92 z"/></clipPath></defs><g clip-path="url(#clip254)" fill="#ffffff" fill-opacity="1" opacity="1" stroke="none" stroke-opacity="0" transform="matrix(1,0,0,1,837,92)"><path d="M0,0 L30,15 L0,30 L0,0 z" fill-rule="nonzero" vector-effect="none"/></g><defs><clipPath id="clip258"><path d="M0,0 L30,0 L30,30 L0,30 L0,0 z"/></clipPath></defs><g clip-path="url(#clip258)" fill="none" opacity="1" stroke="none" stroke-opacity="0" transform="matrix(1,0,0,1,837,92)"><path d="M0,0 L30,15 L0,30 L0,0 z" fill-rule="nonzero" vector-effect="none"/></g><defs><clipPath id="clip268"><path d="M6,-1 L36,-1 L36,29 L6,29 L6,-1 z"/></clipPath></defs><g clip-path="url(#clip268)" fill="#000000" fill-opacity="1" opacity="1" stroke="none" stroke-opacity="0" transform="matrix(1,0,0,1,831.492,92.9141)"><path d="M16.25,17.5781 L16.25,16.9219 C15.9167,17.4427 15.4323,17.7031 14.7969,17.7031 C14.3802,17.7031 13.9974,17.5885 13.6484,17.3594 C13.2995,17.1302 13.0313,16.8099 12.8438,16.3984 C12.6563,15.987 12.5625,15.5156 12.5625,14.9844 C12.5625,14.474 12.6484,14.0078 12.8203,13.5859 C12.9922,13.1641 13.25,12.8411 13.5938,12.6172 C13.9375,12.3932 14.3229,12.2813 14.75,12.2813 C15.0625,12.2813 15.3411,12.3464 15.5859,12.4766 C15.8307,12.6068 16.0313,12.776 16.1875,12.9844 L16.1875,10.4219 L17.0625,10.4219 L17.0625,17.5781 L16.25,17.5781 M13.4688,14.9844 C13.4688,15.651 13.6068,16.1484 13.8828,16.4766 C14.1589,16.8047 14.4896,16.9688 14.875,16.9688 C15.2604,16.9688 15.5859,16.8125 15.8516,16.5 C16.1172,16.1875 16.25,15.7083 16.25,15.0625 C16.25,14.3542 16.1146,13.8333 15.8438,13.5 C15.5729,13.1667 15.2396,13 14.8438,13 C14.4479,13 14.1198,13.1589 13.8594,13.4766 C13.599,13.7943 13.4688,14.2969 13.4688,14.9844" fill-rule="nonzero" vector-effect="none"/></g><defs><clipPath id="clip288"><path d="M-837.5,-92.5 L242.5,-92.5 L242.5,133.5 L-837.5,133.5 L-837.5,-92.5 z"/></clipPath></defs><g clip-path="url(#clip288)" fill="none" opacity="1" stroke="#000000" stroke-linecap="butt" stroke-linejoin="miter" stroke-miterlimit="2" stroke-opacity="1" stroke-width="1" transform="matrix(1,0,0,1,837.5,92.5)"><path d="M0,0 L30,15 L0,30 L0,0 z" fill-rule="nonzero" vector-effect="none"/></g><defs><clipPath id="clip291"><path d="M-987,-92 L93,-92 L93,134 L-987,134 L-987,-92 z"/></clipPath></defs><g clip-path="url(#clip291)" fill="#ffffff" fill-opacity="1" opacity="1" stroke="none" stroke-opacity="0" transform="matrix(1,0,0,1,987,92)"><path d="M0,0 L90,0 L90,30 L0,30 L0,0 z" fill-rule="evenodd" vector-effect="none"/></g><defs><clipPath id="clip295"><path d="M0,0 L91,0 L91,31 L0,31 L0,0 z"/></clipPath></defs><g clip-path="url(#clip295)" fill="none" opacity="1" stroke="none" stroke-opacity="0" transform="matrix(1,0,0,1,987,92)"><path d="M0,0 L91,0 L91,31 L0,31 L0,0 z" fill-rule="evenodd" vector-effect="none"/></g><defs><clipPath id="clip305"><path d="M-1,-1 L63,-1 L63,27 L-1,27 L-1,-1 z"/></clipPath></defs><g clip-path="url(#clip305)" fill="#000000" fill-opacity="1" opacity="1" stroke="none" stroke-opacity="0" transform="matrix(1,0,0,1,1002,95)"><path d="M32.2344,6.51563 L33.375,6.51563 L33.375,11.4844 C33.375,12.349 33.276,13.0339 33.0781,13.5391 C32.8802,14.0443 32.526,14.4557 32.0156,14.7734 C31.5052,15.0911 30.8385,15.25 30.0156,15.25 C29.2135,15.25 28.5547,15.112 28.0391,14.8359 C27.5234,14.5599 27.1563,14.1589 26.9375,13.6328 C26.7188,13.1068 26.6094,12.3906 26.6094,11.4844 L26.6094,6.51563 L27.75,6.51563 L27.75,11.4688 C27.75,12.2188 27.8203,12.7708 27.9609,13.125 C28.1016,13.4792 28.3411,13.7526 28.6797,13.9453 C29.0182,14.138 29.4323,14.2344 29.9219,14.2344 C30.7552,14.2344 31.349,14.0443 31.7031,13.6641 C32.0573,13.2839 32.2344,12.5521 32.2344,11.4688 L32.2344,6.51563 z" fill-rule="nonzero" vector-effect="none"/></g><defs><clipPath id="clip325"><path d="M-987.5,-92.5 L92.5,-92.5 L92.5,133.5 L-987.5,133.5 L-987.5,-92.5 z"/></clipPath></defs><g clip-path="url(#clip325)" fill="none" opacity="1" stroke="#000000" stroke-linecap="butt" stroke-linejoin="miter" stroke-miterlimit="2" stroke-opacity="1" stroke-width="1" transform="matrix(1,0,0,1,987.5,92.5)"><path d="M0,0 L90,0 L90,30 L0,30 L0,0 z" fill-rule="evenodd" vector-effect="none"/></g><defs><clipPath id="clip328"><path d="M-987,-2 L93,-2 L93,224 L-987,224 L-987,-2 z"/></clipPath></defs><g clip-path="url(#clip328)" fill="#ffffff" fill-opacity="1" opacity="1" stroke="none" stroke-opacity="0" transform="matrix(1,0,0,1,987,2)"><path d="M0,0 L90,0 L90,30 L0,30 L0,0 z" fill-rule="evenodd" vector-effect="none"/></g><defs><clipPath id="clip332"><path d="M0,0 L91,0 L91,31 L0,31 L0,0 z"/></clipPath></defs><g clip-path="url(#clip332)" fill="none" opacity="1" stroke="none" stroke-opacity="0" transform="matrix(1,0,0,1,987,2)"><path d="M0,0 L91,0 L91,31 L0,31 L0,0 z" fill-rule="evenodd" vector-effect="none"/></g><defs><clipPath id="clip342"><path d="M-1,-1 L63,-1 L63,27 L-1,27 L-1,-1 z"/></clipPath></defs><g clip-path="url(#clip342)" fill="#000000" fill-opacity="1" opacity="1" stroke="none" stroke-opacity="0" transform="matrix(1,0,0,1,1002,5)"><path d="M20.1875,14.3438 C19.7917,14.6771 19.4141,14.9115 19.0547,15.0469 C18.6953,15.1823 18.3073,15.25 17.8906,15.25 C17.2031,15.25 16.6771,15.0833 16.3125,14.75 C15.9479,14.4167 15.7656,13.9896 15.7656,13.4688 C15.7656,13.1667 15.8333,12.888 15.9688,12.6328 C16.1042,12.3776 16.2865,12.1745 16.5156,12.0234 C16.7448,11.8724 17,11.7604 17.2813,11.6875 C17.4792,11.625 17.7917,11.5677 18.2188,11.5156 C19.0625,11.4219 19.6875,11.3021 20.0938,11.1563 C20.0938,11.0104 20.0938,10.9219 20.0938,10.8906 C20.0938,10.4531 19.9948,10.1458 19.7969,9.96875 C19.526,9.73958 19.125,9.625 18.5938,9.625 C18.1042,9.625 17.7396,9.71094 17.5,9.88281 C17.2604,10.0547 17.0833,10.3594 16.9688,10.7969 L15.9375,10.6563 C16.0313,10.2188 16.1875,9.86458 16.4063,9.59375 C16.625,9.32292 16.9375,9.11458 17.3438,8.96875 C17.75,8.82292 18.2188,8.75 18.75,8.75 C19.2813,8.75 19.7135,8.8125 20.0469,8.9375 C20.3802,9.0625 20.625,9.21875 20.7813,9.40625 C20.9375,9.59375 21.0469,9.83333 21.1094,10.125 C21.1406,10.3021 21.1563,10.625 21.1563,11.0938 L21.1563,12.5 C21.1563,13.4792 21.1797,14.099 21.2266,14.3594 C21.2734,14.6198 21.3646,14.8698 21.5,15.1094 L20.3906,15.1094 C20.2865,14.8906 20.2188,14.6354 20.1875,14.3438 M20.0938,11.9844 C19.7083,12.1406 19.1354,12.276 18.375,12.3906 C17.9375,12.4531 17.6302,12.5234 17.4531,12.6016 C17.276,12.6797 17.138,12.7917 17.0391,12.9375 C16.9401,13.0833 16.8906,13.25 16.8906,13.4375 C16.8906,13.7188 16.9974,13.9531 17.2109,14.1406 C17.4245,14.3281 17.7344,14.4219 18.1406,14.4219 C18.5469,14.4219 18.9089,14.3333 19.2266,14.1563 C19.5443,13.9792 19.776,13.7344 19.9219,13.4219 C20.0365,13.1823 20.0938,12.8333 20.0938,12.375 L20.0938,11.9844 M22.7656,15.1094 L22.7656,6.51563 L23.8281,6.51563 L23.8281,15.1094 L22.7656,15.1094 M25.4531,17.5 L25.4531,8.89063 L26.4063,8.89063 L26.4063,9.6875 C26.6354,9.375 26.8932,9.14063 27.1797,8.98438 C27.4661,8.82813 27.8125,8.75 28.2188,8.75 C28.75,8.75 29.2188,8.88542 29.625,9.15625 C30.0313,9.42708 30.3359,9.8125 30.5391,10.3125 C30.7422,10.8125 30.8438,11.3594 30.8438,11.9531 C30.8438,12.5885 30.7318,13.1615 30.5078,13.6719 C30.2839,14.1823 29.9531,14.5729 29.5156,14.8438 C29.0781,15.1146 28.6198,15.25 28.1406,15.25 C27.7865,15.25 27.4688,15.1745 27.1875,15.0234 C26.9063,14.8724 26.6771,14.6875 26.5,14.4688 L26.5,17.5 L25.4531,17.5 M26.4063,12.0313 C26.4063,12.8333 26.5677,13.4245 26.8906,13.8047 C27.2135,14.1849 27.6042,14.375 28.0625,14.375 C28.5313,14.375 28.9323,14.1771 29.2656,13.7813 C29.599,13.3854 29.7656,12.7708 29.7656,11.9375 C29.7656,11.1458 29.6042,10.5547 29.2813,10.1641 C28.9583,9.77344 28.5677,9.57813 28.1094,9.57813 C27.6615,9.57813 27.2656,9.78646 26.9219,10.2031 C26.5781,10.6198 26.4063,11.2292 26.4063,12.0313 M32.125,15.1094 L32.125,6.51563 L33.1719,6.51563 L33.1719,9.59375 C33.6615,9.03125 34.2813,8.75 35.0313,8.75 C35.5,8.75 35.9036,8.84115 36.2422,9.02344 C36.5807,9.20573 36.8229,9.45573 36.9688,9.77344 C37.1146,10.0911 37.1875,10.5573 37.1875,11.1719 L37.1875,15.1094 L36.1406,15.1094 L36.1406,11.1719 C36.1406,10.6406 36.026,10.2552 35.7969,10.0156 C35.5677,9.77604 35.2448,9.65625 34.8281,9.65625 C34.5156,9.65625 34.2214,9.73698 33.9453,9.89844 C33.6693,10.0599 33.4714,10.2786 33.3516,10.5547 C33.2318,10.8307 33.1719,11.2135 33.1719,11.7031 L33.1719,15.1094 L32.125,15.1094 M42.8594,14.3438 C42.4635,14.6771 42.0859,14.9115 41.7266,15.0469 C41.3672,15.1823 40.9792,15.25 40.5625,15.25 C39.875,15.25 39.349,15.0833 38.9844,14.75 C38.6198,14.4167 38.4375,13.9896 38.4375,13.4688 C38.4375,13.1667 38.5052,12.888 38.6406,12.6328 C38.776,12.3776 38.9583,12.1745 39.1875,12.0234 C39.4167,11.8724 39.6719,11.7604 39.9531,11.6875 C40.151,11.625 40.4635,11.5677 40.8906,11.5156 C41.7344,11.4219 42.3594,11.3021 42.7656,11.1563 C42.7656,11.0104 42.7656,10.9219 42.7656,10.8906 C42.7656,10.4531 42.6667,10.1458 42.4688,9.96875 C42.1979,9.73958 41.7969,9.625 41.2656,9.625 C40.776,9.625 40.4115,9.71094 40.1719,9.88281 C39.9323,10.0547 39.7552,10.3594 39.6406,10.7969 L38.6094,10.6563 C38.7031,10.2188 38.8594,9.86458 39.0781,9.59375 C39.2969,9.32292 39.6094,9.11458 40.0156,8.96875 C40.4219,8.82292 40.8906,8.75 41.4219,8.75 C41.9531,8.75 42.3854,8.8125 42.7188,8.9375 C43.0521,9.0625 43.2969,9.21875 43.4531,9.40625 C43.6094,9.59375 43.7188,9.83333 43.7813,10.125 C43.8125,10.3021 43.8281,10.625 43.8281,11.0938 L43.8281,12.5 C43.8281,13.4792 43.8516,14.099 43.8984,14.3594 C43.9453,14.6198 44.0365,14.8698 44.1719,15.1094 L43.0625,15.1094 C42.9583,14.8906 42.8906,14.6354 42.8594,14.3438 M42.7656,11.9844 C42.3802,12.1406 41.8073,12.276 41.0469,12.3906 C40.6094,12.4531 40.3021,12.5234 40.125,12.6016 C39.9479,12.6797 39.8099,12.7917 39.7109,12.9375 C39.612,13.0833 39.5625,13.25 39.5625,13.4375 C39.5625,13.7188 39.6693,13.9531 39.8828,14.1406 C40.0964,14.3281 40.4063,14.4219 40.8125,14.4219 C41.2188,14.4219 41.5807,14.3333 41.8984,14.1563 C42.2161,13.9792 42.4479,13.7344 42.5938,13.4219 C42.7083,13.1823 42.7656,12.8333 42.7656,12.375 L42.7656,11.9844" fill-rule="nonzero" vector-effect="none"/></g><defs><clipPath id="clip362"><path d="M-987.5,-2.5 L92.5,-2.5 L92.5,223.5 L-987.5,223.5 L-987.5,-2.5 z"/></clipPath></defs><g clip-path="url(#clip362)" fill="none" opacity="1" stroke="#000000" stroke-linecap="butt" stroke-linejoin="miter" stroke-miterlimit="2" stroke-opacity="1" stroke-width="1" transform="matrix(1,0,0,1,987.5,2.5)"><path d="M0,0 L90,0 L90,30 L0,30 L0,0 z" fill-rule="evenodd" vector-effect="none"/></g><defs><clipPath id="clip365"><path d="M-387,-91 L693,-91 L693,135 L-387,135 L-387,-91 z"/></clipPath></defs><g clip-path="url(#clip365)" fill="#ffffff" fill-opacity="1" opacity="1" stroke="none" stroke-opacity="0" transform="matrix(1,0,0,1,387,91)"><path d="M0,0 L25,0 L25,27 L0,27 L0,0 z" fill-rule="nonzero" vector-effect="none"/></g><defs><clipPath id="clip369"><path d="M415,179 L440,179 L440,206 L415,206 L415,179 z"/></clipPath></defs><g clip-path="url(#clip369)" fill="none" opacity="1" stroke="#000000" stroke-linecap="butt" stroke-linejoin="miter" stroke-miterlimit="2" stroke-opacity="1" stroke-width="1" transform="matrix(1,0,0,1,-27.5,-87.5)"><polyline fill="none" points="418,185 422,185" vector-effect="none"/></g><defs><clipPath id="clip370"><path d="M415,179 L440,179 L440,206 L415,206 L415,179 z"/></clipPath></defs><g clip-path="url(#clip370)" fill="none" opacity="1" stroke="#000000" stroke-linecap="butt" stroke-linejoin="miter" stroke-miterlimit="2" stroke-opacity="1" stroke-width="1" transform="matrix(1,0,0,1,-27.5,-87.5)"><polyline fill="none" points="420,183 420,187" vector-effect="none"/></g><defs><clipPath id="clip371"><path d="M415,179 L440,179 L440,206 L415,206 L415,179 z"/></clipPath></defs><g clip-path="url(#clip371)" fill="none" opacity="1" stroke="#000000" stroke-linecap="butt" stroke-linejoin="miter" stroke-miterlimit="2" stroke-opacity="1" stroke-width="1" transform="matrix(1,0,0,1,-27.5,-87.5)"><polyline fill="none" points="418,200 422,200" vector-effect="none"/></g><defs><clipPath id="clip372"><path d="M415,179 L440,179 L440,206 L415,206 L415,179 z"/></clipPath></defs><g clip-path="url(#clip372)" fill="none" opacity="1" stroke="#000000" stroke-linecap="butt" stroke-linejoin="miter" stroke-miterlimit="2" stroke-opacity="1" stroke-width="1" transform="matrix(1,0,0,1,-27.5,-87.5)"><polyline fill="none" points="420,198 420,202" vector-effect="none"/></g><defs><clipPath id="clip377"><path d="M-387.5,-91.5 L692.5,-91.5 L692.5,134.5 L-387.5,134.5 L-387.5,-91.5 z"/></clipPath></defs><g clip-path="url(#clip377)" fill="none" opacity="1" stroke="#000000" stroke-linecap="butt" stroke-linejoin="miter" stroke-miterlimit="2" stroke-opacity="1" stroke-width="1" transform="matrix(1,0,0,1,387.5,91.5)"><path d="M0,0 L25,0 L25,27 L0,27 L0,0 z" fill-rule="nonzero" vector-effect="none"/></g><defs><clipPath id="clip380"><path d="M-227,-24 L853,-24 L853,202 L-227,202 L-227,-24 z"/></clipPath></defs><g clip-path="url(#clip380)" fill="#ffffff" fill-opacity="1" opacity="1" stroke="none" stroke-opacity="0" transform="matrix(1,0,0,1,227,24)"><path d="M0,0 L85,38 L0,76 L0,0 z" fill-rule="nonzero" vector-effect="none"/></g><defs><clipPath id="clip384"><path d="M0,0 L85,0 L85,76 L0,76 L0,0 z"/></clipPath></defs><g clip-path="url(#clip384)" fill="none" opacity="1" stroke="none" stroke-opacity="0" transform="matrix(1,0,0,1,227,24)"><path d="M0,0 L85,38 L0,76 L0,0 z" fill-rule="nonzero" vector-effect="none"/></g><defs><clipPath id="clip394"><path d="M-18,-2 L50,-2 L50,32 L-18,32 L-18,-2 z"/></clipPath></defs><g clip-path="url(#clip394)" fill="#000000" fill-opacity="1" opacity="1" stroke="none" stroke-opacity="0" transform="matrix(1,0,0,1,248.34,47.9141)"><path d="M-16.4531,14.0469 C-16.4531,13.2031 -16.3672,12.5234 -16.1953,12.0078 C-16.0234,11.4922 -15.7656,11.0938 -15.4219,10.8125 C-15.0781,10.5313 -14.6458,10.3906 -14.125,10.3906 C-13.7396,10.3906 -13.4036,10.4688 -13.1172,10.625 C-12.8307,10.7813 -12.5911,11.0052 -12.3984,11.2969 C-12.2057,11.5885 -12.0573,11.9427 -11.9531,12.3594 C-11.849,12.776 -11.7969,13.3385 -11.7969,14.0469 C-11.7969,14.8906 -11.8828,15.5703 -12.0547,16.0859 C-12.2266,16.6016 -12.4844,17 -12.8281,17.2813 C-13.1719,17.5625 -13.6042,17.7031 -14.125,17.7031 C-14.8125,17.7031 -15.3542,17.4531 -15.75,16.9531 C-16.2188,16.3594 -16.4531,15.3906 -16.4531,14.0469 M-15.5625,14.0469 C-15.5625,15.224 -15.4245,16.0078 -15.1484,16.3984 C-14.8724,16.7891 -14.5313,16.9844 -14.125,16.9844 C-13.7188,16.9844 -13.3776,16.7891 -13.1016,16.3984 C-12.8255,16.0078 -12.6875,15.224 -12.6875,14.0469 C-12.6875,12.8698 -12.8255,12.0885 -13.1016,11.7031 C-13.3776,11.3177 -13.724,11.125 -14.1406,11.125 C-14.5365,11.125 -14.8594,11.2917 -15.1094,11.625 C-15.4115,12.0625 -15.5625,12.8698 -15.5625,14.0469 M-10.4219,17.5781 L-10.4219,16.5781 L-9.42188,16.5781 L-9.42188,17.5781 L-10.4219,17.5781 M-8.01563,15.9219 L-7.17188,15.8438 C-7.09896,16.2396 -6.96094,16.5286 -6.75781,16.7109 C-6.55469,16.8932 -6.29688,16.9844 -5.98438,16.9844 C-5.71354,16.9844 -5.47656,16.9219 -5.27344,16.7969 C-5.07031,16.6719 -4.90365,16.5052 -4.77344,16.2969 C-4.64323,16.0885 -4.53385,15.8099 -4.44531,15.4609 C-4.35677,15.112 -4.3125,14.7552 -4.3125,14.3906 C-4.3125,14.349 -4.3125,14.2865 -4.3125,14.2031 C-4.48958,14.4844 -4.73177,14.7135 -5.03906,14.8906 C-5.34635,15.0677 -5.67708,15.1563 -6.03125,15.1563 C-6.625,15.1563 -7.125,14.9401 -7.53125,14.5078 C-7.9375,14.0755 -8.14063,13.5104 -8.14063,12.8125 C-8.14063,12.0833 -7.92708,11.4974 -7.5,11.0547 C-7.07292,10.612 -6.53646,10.3906 -5.89063,10.3906 C-5.43229,10.3906 -5.01042,10.5156 -4.625,10.7656 C-4.23958,11.0156 -3.94531,11.3724 -3.74219,11.8359 C-3.53906,12.2995 -3.4375,12.974 -3.4375,13.8594 C-3.4375,14.7656 -3.53646,15.4896 -3.73438,16.0313 C-3.93229,16.5729 -4.22917,16.987 -4.625,17.2734 C-5.02083,17.5599 -5.47917,17.7031 -6,17.7031 C-6.5625,17.7031 -7.02083,17.5469 -7.375,17.2344 C-7.72917,16.9219 -7.94271,16.4844 -8.01563,15.9219 M-4.42188,12.7656 C-4.42188,12.2552 -4.55469,11.8542 -4.82031,11.5625 C-5.08594,11.2708 -5.40625,11.125 -5.78125,11.125 C-6.17708,11.125 -6.52083,11.2839 -6.8125,11.6016 C-7.10417,11.9193 -7.25,12.3333 -7.25,12.8438 C-7.25,13.2917 -7.11198,13.6589 -6.83594,13.9453 C-6.5599,14.2318 -6.21875,14.375 -5.8125,14.375 C-5.40625,14.375 -5.07292,14.2318 -4.8125,13.9453 C-4.55208,13.6589 -4.42188,13.2656 -4.42188,12.7656 M-2.70313,11.7344 L-2.48438,11.0469 C-1.96354,11.224 -1.58333,11.3802 -1.34375,11.5156 C-1.40625,10.9219 -1.44271,10.5156 -1.45313,10.2969 L-0.734375,10.2969 C-0.744792,10.6198 -0.786458,11.026 -0.859375,11.5156 C-0.515625,11.3385 -0.130208,11.1823 0.296875,11.0469 L0.53125,11.7344 C0.114583,11.8698 -0.291667,11.9583 -0.6875,12 C-0.489583,12.1771 -0.208333,12.4844 0.15625,12.9219 L-0.4375,13.3438 C-0.625,13.0833 -0.848958,12.7344 -1.10938,12.2969 C-1.34896,12.7552 -1.55729,13.1042 -1.73438,13.3438 L-2.3125,12.9219 C-1.9375,12.4635 -1.66667,12.1563 -1.5,12 C-1.92708,11.9271 -2.32813,11.8385 -2.70313,11.7344 M3.45313,17.5781 L3.45313,11.2656 L1.09375,11.2656 L1.09375,10.4219 L6.76563,10.4219 L6.76563,11.2656 L4.40625,11.2656 L4.40625,17.5781 L3.45313,17.5781 M10.6719,17.5781 L9.79688,17.5781 L9.79688,11.9844 C9.58854,12.1823 9.3125,12.3828 8.96875,12.5859 C8.625,12.7891 8.31771,12.9375 8.04688,13.0313 L8.04688,12.1875 C8.53646,11.9583 8.96615,11.6797 9.33594,11.3516 C9.70573,11.0234 9.96354,10.7031 10.1094,10.3906 L10.6719,10.3906 L10.6719,17.5781 M12.5,17.7031 L14.5781,10.2969 L15.2813,10.2969 L13.2031,17.7031 L12.5,17.7031 M17.6094,19.6875 C17.1198,19.0729 16.7083,18.3542 16.375,17.5313 C16.0417,16.7083 15.875,15.8594 15.875,14.9844 C15.875,14.2135 16,13.474 16.25,12.7656 C16.5417,11.9323 16.9948,11.1094 17.6094,10.2969 L18.2344,10.2969 C17.8385,10.974 17.5781,11.4583 17.4531,11.75 C17.2552,12.1979 17.099,12.6667 16.9844,13.1563 C16.849,13.7604 16.7813,14.3698 16.7813,14.9844 C16.7813,16.5573 17.2656,18.125 18.2344,19.6875 L17.6094,19.6875 M19.3281,17.5781 L19.3281,10.4219 L20.2813,10.4219 L20.2813,13.9688 L23.8281,10.4219 L25.1094,10.4219 L22.1094,13.3125 L25.25,17.5781 L24,17.5781 L21.4531,13.9531 L20.2813,15.0938 L20.2813,17.5781 L19.3281,17.5781 M25.9063,19.5625 L25.9063,12.3906 L26.7031,12.3906 L26.7031,13.0625 C26.901,12.8021 27.1172,12.6068 27.3516,12.4766 C27.5859,12.3464 27.875,12.2813 28.2188,12.2813 C28.6563,12.2813 29.0443,12.3932 29.3828,12.6172 C29.7214,12.8411 29.9766,13.1615 30.1484,13.5781 C30.3203,13.9948 30.4063,14.4531 30.4063,14.9531 C30.4063,15.474 30.3125,15.9479 30.125,16.375 C29.9375,16.8021 29.6615,17.1302 29.2969,17.3594 C28.9323,17.5885 28.5521,17.7031 28.1563,17.7031 C27.8646,17.7031 27.6016,17.6406 27.3672,17.5156 C27.1328,17.3906 26.9375,17.2344 26.7813,17.0469 L26.7813,19.5625 L25.9063,19.5625 M26.7031,15.0156 C26.7031,15.6823 26.8385,16.1745 27.1094,16.4922 C27.3802,16.8099 27.7083,16.9688 28.0938,16.9688 C28.4792,16.9688 28.8125,16.8047 29.0938,16.4766 C29.375,16.1484 29.5156,15.6354 29.5156,14.9375 C29.5156,14.2813 29.3802,13.7891 29.1094,13.4609 C28.8385,13.1328 28.5104,12.9688 28.125,12.9688 C27.75,12.9688 27.4193,13.1432 27.1328,13.4922 C26.8464,13.8411 26.7031,14.349 26.7031,15.0156 M31.1094,11.7344 L31.3281,11.0469 C31.849,11.224 32.2292,11.3802 32.4688,11.5156 C32.4063,10.9219 32.3698,10.5156 32.3594,10.2969 L33.0781,10.2969 C33.0677,10.6198 33.026,11.026 32.9531,11.5156 C33.2969,11.3385 33.6823,11.1823 34.1094,11.0469 L34.3438,11.7344 C33.9271,11.8698 33.5208,11.9583 33.125,12 C33.3229,12.1771 33.6042,12.4844 33.9688,12.9219 L33.375,13.3438 C33.1875,13.0833 32.9635,12.7344 32.7031,12.2969 C32.4635,12.7552 32.2552,13.1042 32.0781,13.3438 L31.5,12.9219 C31.875,12.4635 32.1458,12.1563 32.3125,12 C31.8854,11.9271 31.4844,11.8385 31.1094,11.7344 M37.2813,17.5781 L37.2813,11.2656 L34.9219,11.2656 L34.9219,10.4219 L40.5938,10.4219 L40.5938,11.2656 L38.2344,11.2656 L38.2344,17.5781 L37.2813,17.5781 M43.3594,16.7969 L43.4844,17.5625 C43.2344,17.6146 43.0156,17.6406 42.8281,17.6406 C42.5052,17.6406 42.2552,17.5911 42.0781,17.4922 C41.901,17.3932 41.7786,17.2604 41.7109,17.0938 C41.6432,16.9271 41.6094,16.5833 41.6094,16.0625 L41.6094,13.0781 L40.9531,13.0781 L40.9531,12.3906 L41.6094,12.3906 L41.6094,11.1094 L42.4688,10.5781 L42.4688,12.3906 L43.3594,12.3906 L43.3594,13.0781 L42.4688,13.0781 L42.4688,16.1094 C42.4688,16.3594 42.4844,16.5208 42.5156,16.5938 C42.5469,16.6667 42.599,16.724 42.6719,16.7656 C42.7448,16.8073 42.8438,16.8281 42.9688,16.8281 C43.0729,16.8281 43.2031,16.8177 43.3594,16.7969 M44.7813,19.6875 L44.1563,19.6875 C45.125,18.125 45.6094,16.5573 45.6094,14.9844 C45.6094,14.3802 45.5417,13.776 45.4063,13.1719 C45.2917,12.6823 45.1354,12.2135 44.9375,11.7656 C44.8125,11.474 44.5521,10.9844 44.1563,10.2969 L44.7813,10.2969 C45.3958,11.1094 45.849,11.9323 46.1406,12.7656 C46.3906,13.474 46.5156,14.2135 46.5156,14.9844 C46.5156,15.8594 46.3464,16.7083 46.0078,17.5313 C45.6693,18.3542 45.2604,19.0729 44.7813,19.6875" fill-rule="nonzero" vector-effect="none"/></g><defs><clipPath id="clip414"><path d="M-227.5,-24.5 L852.5,-24.5 L852.5,201.5 L-227.5,201.5 L-227.5,-24.5 z"/></clipPath></defs><g clip-path="url(#clip414)" fill="none" opacity="1" stroke="#000000" stroke-linecap="butt" stroke-linejoin="miter" stroke-miterlimit="2" stroke-opacity="1" stroke-width="1" transform="matrix(1,0,0,1,227.5,24.5)"><path d="M0,0 L85,38 L0,76 L0,0 z" fill-rule="nonzero" vector-effect="none"/></g><defs><clipPath id="clip420"><path d="M0,0 L37,0 L37,14 L0,14 L0,0 z"/></clipPath></defs><g clip-path="url(#clip420)" fill="none" opacity="1" stroke="#000000" stroke-linecap="square" stroke-linejoin="bevel" stroke-opacity="1" stroke-width="1" transform="matrix(1,0,0,1,251.031,102)"><text fill="#000000" fill-opacity="1" font-family="Arial" font-size="10" font-style="normal" font-weight="400" stroke="none" textLength="34.9375" x="1" xml:space="preserve" y="10">P-Anteil</text></g><defs><clipPath id="clip428"><path d="M-227,-136 L853,-136 L853,90 L-227,90 L-227,-136 z"/></clipPath></defs><g clip-path="url(#clip428)" fill="#ffffff" fill-opacity="1" opacity="1" stroke="none" stroke-opacity="0" transform="matrix(1,0,0,1,227,136)"><path d="M0,0 L85,0 L85,52 L0,52 L0,0 z" fill-rule="evenodd" vector-effect="none"/></g><defs><clipPath id="clip432"><path d="M0,0 L86,0 L86,53 L0,53 L0,0 z"/></clipPath></defs><g clip-path="url(#clip432)" fill="none" opacity="1" stroke="none" stroke-opacity="0" transform="matrix(1,0,0,1,227,136)"><path d="M0,0 L86,0 L86,53 L0,53 L0,0 z" fill-rule="evenodd" vector-effect="none"/></g><defs><clipPath id="clip443"><path d="M-25,-13 L29,-13 L29,18 L-25,18 L-25,-13 z"/></clipPath></defs><g clip-path="url(#clip443)" fill="#000000" fill-opacity="1" opacity="1" stroke="none" stroke-opacity="0" transform="matrix(1,0,0,1,267,159.5)"><path d="M-24,2 L27,2 L27,3 L-24,3 L-24,2 z" fill-rule="evenodd" vector-effect="none"/></g><defs><clipPath id="clip444"><path d="M-25,-13 L29,-13 L29,18 L-25,18 L-25,-13 z"/></clipPath></defs><g clip-path="url(#clip444)" fill="#000000" fill-opacity="1" opacity="1" stroke="none" stroke-opacity="0" transform="matrix(1,0,0,1,267,159.5)"><path d="M3.375,-2 L3.375,-2.1875 C2.39063,-2.1875 2.14063,-2.42188 2.14063,-2.98438 L2.14063,-10.75 L2.01563,-10.7813 L-0.3125,-9.60938 L-0.3125,-9.42188 L0.046875,-9.54688 C0.28125,-9.64063 0.5,-9.70313 0.625,-9.70313 C0.90625,-9.70313 1.01563,-9.51563 1.01563,-9.07813 L1.01563,-3.23438 C1.01563,-2.51563 0.75,-2.25 -0.21875,-2.1875 L-0.21875,-2 L3.375,-2 z" fill-rule="nonzero" vector-effect="none"/></g><defs><clipPath id="clip445"><path d="M-25,-13 L29,-13 L29,18 L-25,18 L-25,-13 z"/></clipPath></defs><g clip-path="url(#clip445)" fill="#000000" fill-opacity="1" opacity="1" stroke="none" stroke-opacity="0" transform="matrix(1,0,0,1,267,159.5)"><path d="M-23.2031,7.375 C-22.6719,6.40625 -22.0781,5.98438 -21.2656,5.98438 C-20.4063,5.98438 -19.8594,6.4375 -19.8594,7.3125 C-19.8594,8.10938 -20.2813,8.70313 -20.9219,9.0625 C-21.1719,9.21875 -21.5156,9.35938 -22.0156,9.53125 L-22.0156,9.70313 C-21.2656,9.70313 -20.9688,9.75 -20.6875,9.84375 C-19.7813,10.0938 -19.3281,10.7344 -19.3281,11.7188 C-19.3281,12.8281 -20.0625,13.7188 -21.0156,13.7188 C-21.3906,13.7188 -21.6563,13.6563 -22.1406,13.3125 C-22.5,13.0469 -22.7188,12.9688 -22.9375,12.9688 C-23.2344,12.9688 -23.4688,13.1719 -23.4688,13.4375 C-23.4688,13.9063 -22.9531,14.1875 -22.0156,14.1875 C-20.8594,14.1875 -19.625,13.8125 -19,12.9688 C-18.625,12.4844 -18.3906,11.8438 -18.3906,11.1563 C-18.3906,10.4844 -18.6094,9.875 -18.9688,9.46875 C-19.2344,9.1875 -19.4688,9.03125 -20.0469,8.78125 C-19.1719,8.26563 -18.8438,7.60938 -18.8438,7 C-18.8438,5.92188 -19.6563,5.21875 -20.8594,5.21875 C-22.2188,5.21875 -23.0313,6.07813 -23.4219,7.3125 L-23.2031,7.375 z" fill-rule="nonzero" vector-effect="none"/></g><defs><clipPath id="clip446"><path d="M-25,-13 L29,-13 L29,18 L-25,18 L-25,-13 z"/></clipPath></defs><g clip-path="url(#clip446)" fill="#000000" fill-opacity="1" opacity="1" stroke="none" stroke-opacity="0" transform="matrix(1,0,0,1,267,159.5)"><path d="M-15.1406,13.4375 C-15.1406,13.0469 -15.4844,12.7031 -15.8594,12.7031 C-16.2656,12.7031 -16.5938,13.0313 -16.5938,13.4219 C-16.5938,13.8281 -16.2813,14.1406 -15.875,14.1406 C-15.4844,14.1406 -15.1406,13.8125 -15.1406,13.4375 z" fill-rule="nonzero" vector-effect="none"/></g><defs><clipPath id="clip447"><path d="M-25,-13 L29,-13 L29,18 L-25,18 L-25,-13 z"/></clipPath></defs><g clip-path="url(#clip447)" fill="#000000" fill-opacity="1" opacity="1" stroke="none" stroke-opacity="0" transform="matrix(1,0,0,1,267,159.5)"><path d="M-13.4531,7.375 C-12.9219,6.40625 -12.3281,5.98438 -11.5156,5.98438 C-10.6563,5.98438 -10.1094,6.4375 -10.1094,7.3125 C-10.1094,8.10938 -10.5313,8.70313 -11.1719,9.0625 C-11.4219,9.21875 -11.7656,9.35938 -12.2656,9.53125 L-12.2656,9.70313 C-11.5156,9.70313 -11.2188,9.75 -10.9375,9.84375 C-10.0313,10.0938 -9.57813,10.7344 -9.57813,11.7188 C-9.57813,12.8281 -10.3125,13.7188 -11.2656,13.7188 C-11.6406,13.7188 -11.9063,13.6563 -12.3906,13.3125 C-12.75,13.0469 -12.9688,12.9688 -13.1875,12.9688 C-13.4844,12.9688 -13.7188,13.1719 -13.7188,13.4375 C-13.7188,13.9063 -13.2031,14.1875 -12.2656,14.1875 C-11.1094,14.1875 -9.875,13.8125 -9.25,12.9688 C-8.875,12.4844 -8.64063,11.8438 -8.64063,11.1563 C-8.64063,10.4844 -8.85938,9.875 -9.21875,9.46875 C-9.48438,9.1875 -9.71875,9.03125 -10.2969,8.78125 C-9.42188,8.26563 -9.09375,7.60938 -9.09375,7 C-9.09375,5.92188 -9.90625,5.21875 -11.1094,5.21875 C-12.4688,5.21875 -13.2813,6.07813 -13.6719,7.3125 L-13.4531,7.375 z" fill-rule="nonzero" vector-effect="none"/></g><defs><clipPath id="clip448"><path d="M-25,-13 L29,-13 L29,18 L-25,18 L-25,-13 z"/></clipPath></defs><g clip-path="url(#clip448)" fill="#000000" fill-opacity="1" opacity="1" stroke="none" stroke-opacity="0" transform="matrix(1,0,0,1,267,159.5)"><path d="M-6.95313,7.375 C-6.42188,6.40625 -5.82813,5.98438 -5.01563,5.98438 C-4.15625,5.98438 -3.60938,6.4375 -3.60938,7.3125 C-3.60938,8.10938 -4.03125,8.70313 -4.67188,9.0625 C-4.92188,9.21875 -5.26563,9.35938 -5.76563,9.53125 L-5.76563,9.70313 C-5.01563,9.70313 -4.71875,9.75 -4.4375,9.84375 C-3.53125,10.0938 -3.07813,10.7344 -3.07813,11.7188 C-3.07813,12.8281 -3.8125,13.7188 -4.76563,13.7188 C-5.14063,13.7188 -5.40625,13.6563 -5.89063,13.3125 C-6.25,13.0469 -6.46875,12.9688 -6.6875,12.9688 C-6.98438,12.9688 -7.21875,13.1719 -7.21875,13.4375 C-7.21875,13.9063 -6.70313,14.1875 -5.76563,14.1875 C-4.60938,14.1875 -3.375,13.8125 -2.75,12.9688 C-2.375,12.4844 -2.14063,11.8438 -2.14063,11.1563 C-2.14063,10.4844 -2.35938,9.875 -2.71875,9.46875 C-2.98438,9.1875 -3.21875,9.03125 -3.79688,8.78125 C-2.92188,8.26563 -2.59375,7.60938 -2.59375,7 C-2.59375,5.92188 -3.40625,5.21875 -4.60938,5.21875 C-5.96875,5.21875 -6.78125,6.07813 -7.17188,7.3125 L-6.95313,7.375 z" fill-rule="nonzero" vector-effect="none"/></g><defs><clipPath id="clip449"><path d="M-25,-13 L29,-13 L29,18 L-25,18 L-25,-13 z"/></clipPath></defs><g clip-path="url(#clip449)" fill="#000000" fill-opacity="1" opacity="1" stroke="none" stroke-opacity="0" transform="matrix(1,0,0,1,267,159.5)"><path d="M7.5625,9.625 C7.5625,9.34375 7.375,9.07813 7.09375,9.07813 C7,9.07813 6.92188,9.09375 6.8125,9.15625 C6.46875,9.35938 6.10938,10.0469 5.17188,10.5469 C5.17188,9.64063 5.54688,8.79688 5.54688,8.39063 C5.54688,8.125 5.29688,7.875 5.0625,7.875 C4.8125,7.875 4.5625,8.125 4.5625,8.39063 C4.5625,8.79688 4.9375,9.65625 4.9375,10.5625 C4.20313,10.1719 3.625,9.375 3.25,9.15625 C3.14063,9.09375 3.0625,9.07813 2.96875,9.07813 C2.6875,9.07813 2.5,9.34375 2.5,9.625 C2.5,9.76563 2.59375,9.90625 2.75,10.0156 C3.125,10.2344 4.125,10.3594 4.79688,10.75 C4.125,11.1406 3.15625,11.2656 2.8125,11.4688 C2.60938,11.5781 2.53125,11.7969 2.53125,11.9688 C2.53125,12.1875 2.70313,12.3906 3.01563,12.3906 C3.14063,12.3906 3.25,12.3438 3.35938,12.2813 C3.65625,12.125 4.26563,11.3125 4.9375,10.9219 C4.9375,11.8125 4.5625,12.625 4.5625,13.0313 C4.5625,13.2969 4.8125,13.5781 5.0625,13.5781 C5.29688,13.5781 5.54688,13.2969 5.54688,13.0313 C5.54688,12.625 5.17188,11.8125 5.17188,10.9219 C6.17188,11.4844 6.5,12.4063 7.03125,12.4063 C7.35938,12.4063 7.54688,12.1563 7.54688,11.8906 C7.54688,11.7344 7.45313,11.5781 7.26563,11.4844 C6.92188,11.2656 6.07813,11.2344 5.26563,10.75 C6.20313,10.2188 6.95313,10.2188 7.28125,10.0156 C7.46875,9.92188 7.5625,9.76563 7.5625,9.625 z" fill-rule="nonzero" vector-effect="none"/></g><defs><clipPath id="clip450"><path d="M-25,-13 L29,-13 L29,18 L-25,18 L-25,-13 z"/></clipPath></defs><g clip-path="url(#clip450)" fill="#000000" fill-opacity="1" opacity="1" stroke="none" stroke-opacity="0" transform="matrix(1,0,0,1,267,159.5)"><path d="M19.5313,5.5 L12.6094,5.5 L12.0625,7.51563 L12.2969,7.5625 C12.9219,6.15625 13.3438,5.95313 15.3906,5.95313 L13.5313,12.8281 C13.3438,13.5313 13.0313,13.7344 12.1406,13.8125 L12.1406,14.0156 L15.8906,14.0156 L15.8906,13.8125 L15.4375,13.7656 C14.8906,13.7188 14.7344,13.6094 14.7344,13.2031 C14.7344,12.9219 14.8438,12.625 14.9219,12.3438 L16.7031,5.95313 L17.4531,5.95313 C18.2969,5.95313 18.7656,6.3125 18.7656,7.01563 C18.7656,7.17188 18.7656,7.39063 18.7344,7.60938 L18.9531,7.64063 L19.5313,5.5 z" fill-rule="nonzero" vector-effect="none"/></g><defs><clipPath id="clip451"><path d="M-25,-13 L29,-13 L29,18 L-25,18 L-25,-13 z"/></clipPath></defs><g clip-path="url(#clip451)" fill="#000000" fill-opacity="1" opacity="1" stroke="none" stroke-opacity="0" transform="matrix(1,0,0,1,267,159.5)"><path d="M22.3594,8.4375 L21.3281,8.4375 L21.6875,7.09375 C21.7031,7.07813 21.7031,7 21.7031,7 C21.7031,6.9375 21.6563,6.90625 21.5781,6.90625 C21.5313,6.90625 21.4531,6.9375 21.4063,7.01563 C20.9375,7.71875 20.0938,8.35938 19.6719,8.45313 C19.3594,8.51563 19.25,8.625 19.25,8.78125 C19.25,8.78125 19.25,8.8125 19.25,8.85938 L20.2344,8.85938 L19.2188,12.7031 C19.1094,13.1094 19.0156,13.5156 19.0156,13.6563 C19.0156,13.9844 19.25,14.1406 19.6094,14.1406 C20.2813,14.1406 20.6875,13.7656 21.4688,12.5625 L21.2969,12.4844 C20.6563,13.2969 20.4531,13.5 20.25,13.5 C20.125,13.5 20.0469,13.4688 20.0469,13.2969 C20.0469,13.2656 20.0625,13.1719 20.0781,13.1094 L21.2031,8.85938 L22.2969,8.85938 L22.3594,8.4375 z" fill-rule="nonzero" vector-effect="none"/></g><defs><clipPath id="clip452"><path d="M-25,-13 L29,-13 L29,18 L-25,18 L-25,-13 z"/></clipPath></defs><g clip-path="url(#clip452)" fill="#000000" fill-opacity="1" opacity="1" stroke="none" stroke-opacity="0" transform="matrix(1,0,0,1,267,159.5)"><path d="M26.8906,8.25 L26.7031,8.25 C26.5938,8.4375 26.5,8.48438 26.3125,8.48438 C26.2031,8.48438 26.0938,8.46875 25.8438,8.39063 C25.5156,8.3125 25.3438,8.26563 25.1094,8.26563 C24.1563,8.26563 23.5469,8.8125 23.5469,9.67188 C23.5469,10.0938 23.7969,10.6719 24.3594,11.375 C24.875,12.0156 25.0938,12.4531 25.0938,12.875 C25.0938,13.5 24.7188,13.875 24.0938,13.875 C23.4219,13.875 22.9844,13.3438 22.7969,12.1094 L22.5938,12.1094 L22.3281,14.1719 L22.5469,14.1719 C22.625,13.9688 22.7813,13.8906 22.9219,13.8906 C23.0625,13.8906 23.25,13.9063 23.4844,14.0156 C23.7969,14.125 23.9844,14.1406 24.2031,14.1406 C25.2813,14.1406 26.0781,13.4844 26.0781,12.4063 C26.0781,11.8906 25.8438,11.3906 25.1875,10.6406 C24.6875,10.0313 24.4844,9.65625 24.4844,9.3125 C24.4844,8.82813 24.7969,8.5625 25.2656,8.5625 C25.8906,8.5625 26.2813,9 26.4219,10.0781 L26.625,10.0781 L26.8906,8.25 z" fill-rule="nonzero" vector-effect="none"/></g><defs><clipPath id="clip475"><path d="M-227.5,-136.5 L852.5,-136.5 L852.5,89.5 L-227.5,89.5 L-227.5,-136.5 z"/></clipPath></defs><g clip-path="url(#clip475)" fill="none" opacity="1" stroke="#000000" stroke-linecap="butt" stroke-linejoin="miter" stroke-miterlimit="2" stroke-opacity="1" stroke-width="1" transform="matrix(1,0,0,1,227.5,136.5)"><path d="M0,0 L85,0 L85,52 L0,52 L0,0 z" fill-rule="evenodd" vector-effect="none"/></g><defs><clipPath id="clip481"><path d="M0,0 L33,0 L33,14 L0,14 L0,0 z"/></clipPath></defs><g clip-path="url(#clip481)" fill="none" opacity="1" stroke="#000000" stroke-linecap="square" stroke-linejoin="bevel" stroke-opacity="1" stroke-width="1" transform="matrix(1,0,0,1,252.977,190)"><text fill="#000000" fill-opacity="1" font-family="Arial" font-size="10" font-style="normal" font-weight="400" stroke="none" textLength="31.0469" x="1" xml:space="preserve" y="10">I-Anteil</text></g><defs><clipPath id="clip489"><path d="M-107,-107 L973,-107 L973,119 L-107,119 L-107,-107 z"/></clipPath></defs><g clip-path="url(#clip489)" fill="#000000" fill-opacity="1" opacity="1" stroke="none" stroke-opacity="0" transform="matrix(1,0,0,1,107,107)"><path d="M0,0 L-8,-4 L-8,4 L0,0 z" fill-rule="nonzero" vector-effect="none"/></g><defs><clipPath id="clip492"><path d="M28,88 L1108,88 L1108,314 L28,314 L28,88 z"/></clipPath></defs><g clip-path="url(#clip492)" fill="none" opacity="1" stroke="#000000" stroke-linecap="butt" stroke-linejoin="miter" stroke-miterlimit="2" stroke-opacity="1" stroke-width="1" transform="matrix(1,0,0,1,-28,-88)"><path d="M60.5,195.5 L127.5,195.5" fill-rule="evenodd" vector-effect="none"/></g><defs><clipPath id="clip498"><path d="M0,0 L27,0 L27,12 L0,12 L0,0 z"/></clipPath></defs><g clip-path="url(#clip498)" fill="none" opacity="1" stroke="#000000" stroke-linecap="square" stroke-linejoin="bevel" stroke-opacity="1" stroke-width="1" transform="matrix(1,0,0,1,51.0234,108.5)"><text fill="#000000" fill-opacity="1" font-family="Arial" font-size="9" font-style="normal" font-weight="400" stroke="none" textLength="24.9531" x="1" xml:space="preserve" y="9">U_soll</text></g><defs><clipPath id="clip506"><path d="M-722,-107 L358,-107 L358,119 L-722,119 L-722,-107 z"/></clipPath></defs><g clip-path="url(#clip506)" fill="#000000" fill-opacity="1" opacity="1" stroke="none" stroke-opacity="0" transform="matrix(1,0,0,1,722,107)"><path d="M0,0 L-8,-4 L-8,4 L0,0 z" fill-rule="nonzero" vector-effect="none"/></g><defs><clipPath id="clip509"><path d="M28,88 L1108,88 L1108,314 L28,314 L28,88 z"/></clipPath></defs><g clip-path="url(#clip509)" fill="none" opacity="1" stroke="#000000" stroke-linecap="butt" stroke-linejoin="miter" stroke-miterlimit="2" stroke-opacity="1" stroke-width="1" transform="matrix(1,0,0,1,-28,-88)"><path d="M695.5,195.5 L742.5,195.5" fill-rule="evenodd" vector-effect="none"/></g><defs><clipPath id="clip512"><path d="M-577,-182 L503,-182 L503,44 L-577,44 L-577,-182 z"/></clipPath></defs><g clip-path="url(#clip512)" fill="#000000" fill-opacity="1" opacity="1" stroke="none" stroke-opacity="0" transform="matrix(1,0,0,1,577,182)"><path d="M0,0 L-8,-4 L-8,4 L0,0 z" fill-rule="nonzero" vector-effect="none"/></g><defs><clipPath id="clip515"><path d="M28,88 L1108,88 L1108,314 L28,314 L28,88 z"/></clipPath></defs><g clip-path="url(#clip515)" fill="none" opacity="1" stroke="#000000" stroke-linecap="butt" stroke-linejoin="miter" stroke-miterlimit="2" stroke-opacity="1" stroke-width="1" transform="matrix(1,0,0,1,-28,-88)"><path d="M550.5,270.5 L597.5,270.5" fill-rule="evenodd" vector-effect="none"/></g><defs><clipPath id="clip518"><path d="M117,-657 L117,423 L-109,423 L-109,-657 L117,-657 z"/></clipPath></defs><g clip-path="url(#clip518)" fill="#000000" fill-opacity="1" opacity="1" stroke="none" stroke-opacity="0" transform="matrix(6.12323e-17,-1,1,6.12323e-17,657,117)"><path d="M0,0 L-8,-4 L-8,4 L0,0 z" fill-rule="nonzero" vector-effect="none"/></g><defs><clipPath id="clip521"><path d="M28,88 L1108,88 L1108,314 L28,314 L28,88 z"/></clipPath></defs><g clip-path="url(#clip521)" fill="none" opacity="1" stroke="#000000" stroke-linecap="butt" stroke-linejoin="miter" stroke-miterlimit="2" stroke-opacity="1" stroke-width="1" transform="matrix(1,0,0,1,-28,-88)"><path d="M635.5,270.5 L685.5,270.5 L685.5,213.5" fill-rule="evenodd" vector-effect="none"/></g><defs><clipPath id="clip524"><path d="M-647,-107 L433,-107 L433,119 L-647,119 L-647,-107 z"/></clipPath></defs><g clip-path="url(#clip524)" fill="#000000" fill-opacity="1" opacity="1" stroke="none" stroke-opacity="0" transform="matrix(1,0,0,1,647,107)"><path d="M0,0 L-8,-4 L-8,4 L0,0 z" fill-rule="nonzero" vector-effect="none"/></g><defs><clipPath id="clip527"><path d="M28,88 L1108,88 L1108,314 L28,314 L28,88 z"/></clipPath></defs><g clip-path="url(#clip527)" fill="none" opacity="1" stroke="#000000" stroke-linecap="butt" stroke-linejoin="miter" stroke-miterlimit="2" stroke-opacity="1" stroke-width="1" transform="matrix(1,0,0,1,-28,-88)"><path d="M627.5,195.5 L667.5,195.5" fill-rule="evenodd" vector-effect="none"/></g><defs><clipPath id="clip530"><path d="M-987,-17 L93,-17 L93,209 L-987,209 L-987,-17 z"/></clipPath></defs><g clip-path="url(#clip530)" fill="#000000" fill-opacity="1" opacity="1" stroke="none" stroke-opacity="0" transform="matrix(1,0,0,1,987,17)"><path d="M0,0 L-8,-4 L-8,4 L0,0 z" fill-rule="nonzero" vector-effect="none"/></g><defs><clipPath id="clip533"><path d="M28,88 L1108,88 L1108,314 L28,314 L28,88 z"/></clipPath></defs><g clip-path="url(#clip533)" fill="none" opacity="1" stroke="#000000" stroke-linecap="butt" stroke-linejoin="miter" stroke-miterlimit="2" stroke-opacity="1" stroke-width="1" transform="matrix(1,0,0,1,-28,-88)"><path d="M627.5,195.5 L627.5,105.5 L1007.5,105.5" fill-rule="evenodd" vector-effect="none"/></g><defs><clipPath id="clip538"><path d="M28,88 L1108,88 L1108,314 L28,314 L28,88 z"/></clipPath></defs><g clip-path="url(#clip538)" fill="none" opacity="1" stroke="#000000" stroke-linecap="butt" stroke-linejoin="miter" stroke-miterlimit="2" stroke-opacity="1" stroke-width="1" transform="matrix(1,0,0,1,-28,-88)"><path d="M555.5,195.5 L627.5,195.5" fill-rule="evenodd" vector-effect="none"/></g><defs><clipPath id="clip544"><path d="M0,0 L24,0 L24,12 L0,12 L0,0 z"/></clipPath></defs><g clip-path="url(#clip544)" fill="none" opacity="1" stroke="#000000" stroke-linecap="square" stroke-linejoin="bevel" stroke-opacity="1" stroke-width="1" transform="matrix(1,0,0,1,582.008,108.5)"><text fill="#000000" fill-opacity="1" font-family="Arial" font-size="9" font-style="normal" font-weight="400" stroke="none" textLength="21.9844" x="1" xml:space="preserve" y="9">alpha</text></g><defs><clipPath id="clip552"><path d="M-599,-107 L481,-107 L481,119 L-599,119 L-599,-107 z"/></clipPath></defs><g clip-path="url(#clip552)" fill="#000000" fill-opacity="1" opacity="1" stroke="none" stroke-opacity="0" transform="matrix(1,0,0,1,599,107)"><path d="M3,0.5 C3,1.88071 1.88071,3 0.5,3 C-0.880712,3 -2,1.88071 -2,0.5 C-2,-0.880712 -0.880712,-2 0.5,-2 C1.88071,-2 3,-0.880712 3,0.5 z" fill-rule="evenodd" vector-effect="none"/></g><defs><clipPath id="clip557"><path d="M28,88 L1108,88 L1108,314 L28,314 L28,88 z"/></clipPath></defs><g clip-path="url(#clip557)" fill="none" opacity="1" stroke="#000000" stroke-linecap="butt" stroke-linejoin="miter" stroke-miterlimit="2" stroke-opacity="1" stroke-width="1" transform="matrix(1,0,0,1,-28,-88)"><path d="M895.5,195.5 L938.5,195.5" fill-rule="evenodd" vector-effect="none"/></g><defs><clipPath id="clip560"><path d="M122,-122 L122,958 L-104,958 L-104,-122 L122,-122 z"/></clipPath></defs><g clip-path="url(#clip560)" fill="#000000" fill-opacity="1" opacity="1" stroke="none" stroke-opacity="0" transform="matrix(6.12323e-17,-1,1,6.12323e-17,122,122)"><path d="M0,0 L-8,-4 L-8,4 L0,0 z" fill-rule="nonzero" vector-effect="none"/></g><defs><clipPath id="clip563"><path d="M28,88 L1108,88 L1108,314 L28,314 L28,88 z"/></clipPath></defs><g clip-path="url(#clip563)" fill="none" opacity="1" stroke="#000000" stroke-linecap="butt" stroke-linejoin="miter" stroke-miterlimit="2" stroke-opacity="1" stroke-width="1" transform="matrix(1,0,0,1,-28,-88)"><path d="M938.5,195.5 L938.5,312.5 L150.5,312.5 L150.5,218.5" fill-rule="evenodd" vector-effect="none"/></g><defs><clipPath id="clip566"><path d="M-987,-107 L93,-107 L93,119 L-987,119 L-987,-107 z"/></clipPath></defs><g clip-path="url(#clip566)" fill="#000000" fill-opacity="1" opacity="1" stroke="none" stroke-opacity="0" transform="matrix(1,0,0,1,987,107)"><path d="M0,0 L-8,-4 L-8,4 L0,0 z" fill-rule="nonzero" vector-effect="none"/></g><defs><clipPath id="clip569"><path d="M28,88 L1108,88 L1108,314 L28,314 L28,88 z"/></clipPath></defs><g clip-path="url(#clip569)" fill="none" opacity="1" stroke="#000000" stroke-linecap="butt" stroke-linejoin="miter" stroke-miterlimit="2" stroke-opacity="1" stroke-width="1" transform="matrix(1,0,0,1,-28,-88)"><path d="M938.5,195.5 L1007.5,195.5" fill-rule="evenodd" vector-effect="none"/></g><defs><clipPath id="clip575"><path d="M0,0 L8,0 L8,12 L0,12 L0,0 z"/></clipPath></defs><g clip-path="url(#clip575)" fill="none" opacity="1" stroke="#000000" stroke-linecap="square" stroke-linejoin="bevel" stroke-opacity="1" stroke-width="1" transform="matrix(1,0,0,1,963.516,108.5)"><text fill="#000000" fill-opacity="1" font-family="Arial" font-size="9" font-style="normal" font-weight="400" stroke="none" textLength="6.48438" x="1" xml:space="preserve" y="9">U</text></g><defs><clipPath id="clip583"><path d="M-910,-107 L170,-107 L170,119 L-910,119 L-910,-107 z"/></clipPath></defs><g clip-path="url(#clip583)" fill="#000000" fill-opacity="1" opacity="1" stroke="none" stroke-opacity="0" transform="matrix(1,0,0,1,910,107)"><path d="M3,0.5 C3,1.88071 1.88071,3 0.5,3 C-0.880712,3 -2,1.88071 -2,0.5 C-2,-0.880712 -0.880712,-2 0.5,-2 C1.88071,-2 3,-0.880712 3,0.5 z" fill-rule="evenodd" vector-effect="none"/></g><defs><clipPath id="clip586"><path d="M-837,-107 L243,-107 L243,119 L-837,119 L-837,-107 z"/></clipPath></defs><g clip-path="url(#clip586)" fill="#000000" fill-opacity="1" opacity="1" stroke="none" stroke-opacity="0" transform="matrix(1,0,0,1,837,107)"><path d="M0,0 L-8,-4 L-8,4 L0,0 z" fill-rule="nonzero" vector-effect="none"/></g><defs><clipPath id="clip589"><path d="M28,88 L1108,88 L1108,314 L28,314 L28,88 z"/></clipPath></defs><g clip-path="url(#clip589)" fill="none" opacity="1" stroke="#000000" stroke-linecap="butt" stroke-linejoin="miter" stroke-miterlimit="2" stroke-opacity="1" stroke-width="1" transform="matrix(1,0,0,1,-28,-88)"><path d="M810.5,195.5 L857.5,195.5" fill-rule="evenodd" vector-effect="none"/></g><defs><clipPath id="clip595"><path d="M0,0 L29,0 L29,12 L0,12 L0,0 z"/></clipPath></defs><g clip-path="url(#clip595)" fill="none" opacity="1" stroke="#000000" stroke-linecap="square" stroke-linejoin="bevel" stroke-opacity="1" stroke-width="1" transform="matrix(1,0,0,1,789.758,108.5)"><text fill="#000000" fill-opacity="1" font-family="Arial" font-size="9" font-style="normal" font-weight="400" stroke="none" textLength="27.4844" x="1" xml:space="preserve" y="9">omega</text></g><defs><clipPath id="clip603"><path d="M-387,-97 L693,-97 L693,129 L-387,129 L-387,-97 z"/></clipPath></defs><g clip-path="url(#clip603)" fill="#000000" fill-opacity="1" opacity="1" stroke="none" stroke-opacity="0" transform="matrix(1,0,0,1,387,97)"><path d="M0,0 L-8,-4 L-8,4 L0,0 z" fill-rule="nonzero" vector-effect="none"/></g><defs><clipPath id="clip606"><path d="M28,88 L1108,88 L1108,314 L28,314 L28,88 z"/></clipPath></defs><g clip-path="url(#clip606)" fill="none" opacity="1" stroke="#000000" stroke-linecap="butt" stroke-linejoin="miter" stroke-miterlimit="2" stroke-opacity="1" stroke-width="1" transform="matrix(1,0,0,1,-28,-88)"><path d="M340.5,150.5 L380.5,150.5 L380.5,185.5 L407.5,185.5" fill-rule="evenodd" vector-effect="none"/></g><defs><clipPath id="clip609"><path d="M-387,-112 L693,-112 L693,114 L-387,114 L-387,-112 z"/></clipPath></defs><g clip-path="url(#clip609)" fill="#000000" fill-opacity="1" opacity="1" stroke="none" stroke-opacity="0" transform="matrix(1,0,0,1,387,112)"><path d="M0,0 L-8,-4 L-8,4 L0,0 z" fill-rule="nonzero" vector-effect="none"/></g><defs><clipPath id="clip612"><path d="M28,88 L1108,88 L1108,314 L28,314 L28,88 z"/></clipPath></defs><g clip-path="url(#clip612)" fill="none" opacity="1" stroke="#000000" stroke-linecap="butt" stroke-linejoin="miter" stroke-miterlimit="2" stroke-opacity="1" stroke-width="1" transform="matrix(1,0,0,1,-28,-88)"><path d="M340.5,250.5 L380.5,250.5 L380.5,200.5 L407.5,200.5" fill-rule="evenodd" vector-effect="none"/></g><defs><clipPath id="clip615"><path d="M-227,-162 L853,-162 L853,64 L-227,64 L-227,-162 z"/></clipPath></defs><g clip-path="url(#clip615)" fill="#000000" fill-opacity="1" opacity="1" stroke="none" stroke-opacity="0" transform="matrix(1,0,0,1,227,162)"><path d="M0,0 L-8,-4 L-8,4 L0,0 z" fill-rule="nonzero" vector-effect="none"/></g><defs><clipPath id="clip618"><path d="M28,88 L1108,88 L1108,314 L28,314 L28,88 z"/></clipPath></defs><g clip-path="url(#clip618)" fill="none" opacity="1" stroke="#000000" stroke-linecap="butt" stroke-linejoin="miter" stroke-miterlimit="2" stroke-opacity="1" stroke-width="1" transform="matrix(1,0,0,1,-28,-88)"><path d="M220.5,195.5 L220.5,250.5 L247.5,250.5" fill-rule="evenodd" vector-effect="none"/></g><defs><clipPath id="clip621"><path d="M-227,-62 L853,-62 L853,164 L-227,164 L-227,-62 z"/></clipPath></defs><g clip-path="url(#clip621)" fill="#000000" fill-opacity="1" opacity="1" stroke="none" stroke-opacity="0" transform="matrix(1,0,0,1,227,62)"><path d="M0,0 L-8,-4 L-8,4 L0,0 z" fill-rule="nonzero" vector-effect="none"/></g><defs><clipPath id="clip624"><path d="M28,88 L1108,88 L1108,314 L28,314 L28,88 z"/></clipPath></defs><g clip-path="url(#clip624)" fill="none" opacity="1" stroke="#000000" stroke-linecap="butt" stroke-linejoin="miter" stroke-miterlimit="2" stroke-opacity="1" stroke-width="1" transform="matrix(1,0,0,1,-28,-88)"><path d="M220.5,195.5 L220.5,150.5 L247.5,150.5" fill-rule="evenodd" vector-effect="none"/></g><defs><clipPath id="clip629"><path d="M28,88 L1108,88 L1108,314 L28,314 L28,88 z"/></clipPath></defs><g clip-path="url(#clip629)" fill="none" opacity="1" stroke="#000000" stroke-linecap="butt" stroke-linejoin="miter" stroke-miterlimit="2" stroke-opacity="1" stroke-width="1" transform="matrix(1,0,0,1,-28,-88)"><path d="M165.5,195.5 L220.5,195.5" fill-rule="evenodd" vector-effect="none"/></g><defs><clipPath id="clip632"><path d="M-192,-107 L888,-107 L888,119 L-192,119 L-192,-107 z"/></clipPath></defs><g clip-path="url(#clip632)" fill="#000000" fill-opacity="1" opacity="1" stroke="none" stroke-opacity="0" transform="matrix(1,0,0,1,192,107)"><path d="M3,0.5 C3,1.88071 1.88071,3 0.5,3 C-0.880712,3 -2,1.88071 -2,0.5 C-2,-0.880712 -0.880712,-2 0.5,-2 C1.88071,-2 3,-0.880712 3,0.5 z" fill-rule="evenodd" vector-effect="none"/></g><defs><clipPath id="clip635"><path d="M-487,-107 L593,-107 L593,119 L-487,119 L-487,-107 z"/></clipPath></defs><g clip-path="url(#clip635)" fill="#000000" fill-opacity="1" opacity="1" stroke="none" stroke-opacity="0" transform="matrix(1,0,0,1,487,107)"><path d="M0,0 L-8,-4 L-8,4 L0,0 z" fill-rule="nonzero" vector-effect="none"/></g><defs><clipPath id="clip638"><path d="M28,88 L1108,88 L1108,314 L28,314 L28,88 z"/></clipPath></defs><g clip-path="url(#clip638)" fill="none" opacity="1" stroke="#000000" stroke-linecap="butt" stroke-linejoin="miter" stroke-miterlimit="2" stroke-opacity="1" stroke-width="1" transform="matrix(1,0,0,1,-28,-88)"><path d="M440.5,195.5 L507.5,195.5" fill-rule="evenodd" vector-effect="none"/></g></g><!--generated on windows @ 2020-07-21 18:10:54 Mitteleuropäische Sommerzeit--></svg>
