<?xml version="1.0" encoding="UTF-8"?><svg width="246.062mm" height="43.9208mm" viewBox="0 0 930 166" xmlns="http://www.w3.org/2000/svg" xmlns:xlink="http://www.w3.org/1999/xlink"><g fill="none" stroke="black" stroke-width="1" fill-rule="evenodd" stroke-linecap="square" stroke-linejoin="bevel"><g clip-path="none" fill="#ffffff" fill-opacity="1" opacity="1" stroke="none" stroke-opacity="0" transform="matrix(1,0,0,1,0,0)"><path d="M0,0 L930,0 L930,166 L0,166 L0,0 z" fill-rule="evenodd" vector-effect="none"/></g><defs><clipPath id="clip3"><path d="M-67,-82 L863,-82 L863,84 L-67,84 L-67,-82 z"/></clipPath></defs><g clip-path="url(#clip3)" fill="#ffffff" fill-opacity="1" opacity="1" stroke="none" stroke-opacity="0" transform="matrix(1,0,0,1,67,82)"><path d="M20,10 C20,15.5228 15.5228,20 10,20 C4.47715,20 0,15.5228 0,10 C0,4.47715 4.47715,0 10,0 C15.5228,0 20,4.47715 20,10 z" fill-rule="nonzero" vector-effect="none"/></g><defs><clipPath id="clip7"><path d="M305,180 L325,180 L325,200 L305,200 L305,180 z"/></clipPath></defs><g clip-path="url(#clip7)" fill="none" opacity="1" stroke="#000000" stroke-linecap="butt" stroke-linejoin="miter" stroke-miterlimit="2" stroke-opacity="1" stroke-width="1" transform="matrix(1,0,0,1,-237.5,-97.5)"><polyline fill="none" points="308,190 312,190" vector-effect="none"/></g><defs><clipPath id="clip8"><path d="M305,180 L325,180 L325,200 L305,200 L305,180 z"/></clipPath></defs><g clip-path="url(#clip8)" fill="none" opacity="1" stroke="#000000" stroke-linecap="butt" stroke-linejoin="miter" stroke-miterlimit="2" stroke-opacity="1" stroke-width="1" transform="matrix(1,0,0,1,-237.5,-97.5)"><polyline fill="none" points="310,188 310,192" vector-effect="none"/></g><defs><clipPath id="clip9"><path d="M305,180 L325,180 L325,200 L305,200 L305,180 z"/></clipPath></defs><g clip-path="url(#clip9)" fill="none" opacity="1" stroke="#000000" stroke-linecap="butt" stroke-linejoin="miter" stroke-miterlimit="2" stroke-opacity="1" stroke-width="1" transform="matrix(1,0,0,1,-237.5,-97.5)"><polyline fill="none" points="313,195 317,195" vector-effect="none"/></g><defs><clipPath id="clip14"><path d="M-67.5,-82.5 L862.5,-82.5 L862.5,83.5 L-67.5,83.5 L-67.5,-82.5 z"/></clipPath></defs><g clip-path="url(#clip14)" fill="none" opacity="1" stroke="#000000" stroke-linecap="butt" stroke-linejoin="miter" stroke-miterlimit="2" stroke-opacity="1" stroke-width="1" transform="matrix(1,0,0,1,67.5,82.5)"><path d="M20,10 C20,15.5228 15.5228,20 10,20 C4.47715,20 0,15.5228 0,10 C0,4.47715 4.47715,0 10,0 C15.5228,0 20,4.47715 20,10 z" fill-rule="nonzero" vector-effect="none"/></g><defs><clipPath id="clip17"><path d="M-267,-64 L663,-64 L663,102 L-267,102 L-267,-64 z"/></clipPath></defs><g clip-path="url(#clip17)" fill="#ffffff" fill-opacity="1" opacity="1" stroke="none" stroke-opacity="0" transform="matrix(1,0,0,1,267,64)"><path d="M0,0 L105,0 L105,56 L0,56 L0,0 z" fill-rule="evenodd" vector-effect="none"/></g><defs><clipPath id="clip21"><path d="M0,0 L106,0 L106,57 L0,57 L0,0 z"/></clipPath></defs><g clip-path="url(#clip21)" fill="none" opacity="1" stroke="none" stroke-opacity="0" transform="matrix(1,0,0,1,267,64)"><path d="M0,0 L106,0 L106,57 L0,57 L0,0 z" fill-rule="evenodd" vector-effect="none"/></g><defs><clipPath id="clip32"><path d="M-29,-13 L34,-13 L34,18 L-29,18 L-29,-13 z"/></clipPath></defs><g clip-path="url(#clip32)" fill="#000000" fill-opacity="1" opacity="1" stroke="none" stroke-opacity="0" transform="matrix(1,0,0,1,317,89.5)"><path d="M-28,2 L33,2 L33,3 L-28,3 L-28,2 z" fill-rule="evenodd" vector-effect="none"/></g><defs><clipPath id="clip33"><path d="M-29,-13 L34,-13 L34,18 L-29,18 L-29,-13 z"/></clipPath></defs><g clip-path="url(#clip33)" fill="#000000" fill-opacity="1" opacity="1" stroke="none" stroke-opacity="0" transform="matrix(1,0,0,1,317,89.5)"><path d="M-25.3281,-10.5 L-25.3281,-10.2969 C-24.5,-10.2344 -24.3281,-10.1406 -24.3281,-9.76563 C-24.3281,-9.5625 -24.375,-9.25 -24.4688,-8.92188 L-26.0469,-3.23438 C-26.2656,-2.42188 -26.4063,-2.29688 -27.125,-2.1875 L-27.125,-1.98438 L-23.5781,-1.98438 C-21.4844,-1.98438 -20.0156,-2.84375 -20.0156,-4.59375 C-20.0156,-5.51563 -20.5313,-6.21875 -21.6406,-6.54688 L-21.6406,-6.5625 C-21.0938,-6.6875 -20.6094,-6.79688 -20.2031,-7.07813 C-19.7344,-7.39063 -19.375,-7.84375 -19.375,-8.54688 C-19.375,-9.84375 -20.2656,-10.5 -22.0781,-10.5 L-25.3281,-10.5 M-23.7969,-6.71875 L-22.9688,-9.64063 C-22.8438,-10.1094 -22.7188,-10.1094 -22.2031,-10.1094 C-21.1563,-10.1094 -20.6875,-9.67188 -20.6875,-8.70313 C-20.6875,-7.40625 -21.5938,-6.71875 -23.2969,-6.71875 L-23.7969,-6.71875 M-23.9219,-6.29688 C-23.1094,-6.29688 -22.5469,-6.23438 -22.2813,-6.14063 C-21.7969,-5.98438 -21.4063,-5.40625 -21.4063,-4.59375 C-21.4063,-3.14063 -22.4219,-2.375 -23.9219,-2.375 C-24.4688,-2.375 -24.7969,-2.5625 -24.7969,-2.92188 C-24.7969,-3.09375 -24.5938,-3.76563 -24.3438,-4.75 L-23.9219,-6.29688" fill-rule="nonzero" vector-effect="none"/></g><defs><clipPath id="clip34"><path d="M-29,-13 L34,-13 L34,18 L-29,18 L-29,-13 z"/></clipPath></defs><g clip-path="url(#clip34)" fill="#000000" fill-opacity="1" opacity="1" stroke="none" stroke-opacity="0" transform="matrix(1,0,0,1,317,89.5)"><path d="M-13.9531,-2 L-13.9531,-2.1875 C-14.9375,-2.1875 -15.1875,-2.42188 -15.1875,-2.98438 L-15.1875,-10.75 L-15.3125,-10.7813 L-17.6406,-9.60938 L-17.6406,-9.42188 L-17.2813,-9.54688 C-17.0469,-9.64063 -16.8281,-9.70313 -16.7031,-9.70313 C-16.4219,-9.70313 -16.3125,-9.51563 -16.3125,-9.07813 L-16.3125,-3.23438 C-16.3125,-2.51563 -16.5781,-2.25 -17.5469,-2.1875 L-17.5469,-2 L-13.9531,-2 z" fill-rule="nonzero" vector-effect="none"/></g><defs><clipPath id="clip35"><path d="M-29,-13 L34,-13 L34,18 L-29,18 L-29,-13 z"/></clipPath></defs><g clip-path="url(#clip35)" fill="#000000" fill-opacity="1" opacity="1" stroke="none" stroke-opacity="0" transform="matrix(1,0,0,1,317,89.5)"><path d="M-7.0625,-5.29688 C-7.0625,-5.70313 -7.42188,-6.0625 -7.82813,-6.0625 C-8.26563,-6.0625 -8.625,-5.67188 -8.625,-5.29688 C-8.625,-4.90625 -8.26563,-4.51563 -7.82813,-4.51563 C-7.42188,-4.51563 -7.0625,-4.875 -7.0625,-5.29688 z" fill-rule="nonzero" vector-effect="none"/></g><defs><clipPath id="clip36"><path d="M-29,-13 L34,-13 L34,18 L-29,18 L-29,-13 z"/></clipPath></defs><g clip-path="url(#clip36)" fill="#000000" fill-opacity="1" opacity="1" stroke="none" stroke-opacity="0" transform="matrix(1,0,0,1,317,89.5)"><path d="M1.64063,-7.75 L1.45313,-7.75 C1.34375,-7.5625 1.25,-7.51563 1.0625,-7.51563 C0.953125,-7.51563 0.84375,-7.53125 0.59375,-7.60938 C0.265625,-7.6875 0.09375,-7.73438 -0.140625,-7.73438 C-1.09375,-7.73438 -1.70313,-7.1875 -1.70313,-6.32813 C-1.70313,-5.90625 -1.45313,-5.32813 -0.890625,-4.625 C-0.375,-3.98438 -0.15625,-3.54688 -0.15625,-3.125 C-0.15625,-2.5 -0.53125,-2.125 -1.15625,-2.125 C-1.82813,-2.125 -2.26563,-2.65625 -2.45313,-3.89063 L-2.65625,-3.89063 L-2.92188,-1.82813 L-2.70313,-1.82813 C-2.625,-2.03125 -2.46875,-2.10938 -2.32813,-2.10938 C-2.1875,-2.10938 -2,-2.09375 -1.76563,-1.98438 C-1.45313,-1.875 -1.26563,-1.85938 -1.04688,-1.85938 C0.03125,-1.85938 0.828125,-2.51563 0.828125,-3.59375 C0.828125,-4.10938 0.59375,-4.60938 -0.0625,-5.35938 C-0.5625,-5.96875 -0.765625,-6.34375 -0.765625,-6.6875 C-0.765625,-7.17188 -0.453125,-7.4375 0.015625,-7.4375 C0.640625,-7.4375 1.03125,-7 1.17188,-5.92188 L1.375,-5.92188 L1.64063,-7.75 z" fill-rule="nonzero" vector-effect="none"/></g><defs><clipPath id="clip37"><path d="M-29,-13 L34,-13 L34,18 L-29,18 L-29,-13 z"/></clipPath></defs><g clip-path="url(#clip37)" fill="#000000" fill-opacity="1" opacity="1" stroke="none" stroke-opacity="0" transform="matrix(1,0,0,1,317,89.5)"><path d="M13.0625,-4.85938 L13.0625,-5.71875 L9.67188,-5.71875 L9.67188,-9.10938 L8.8125,-9.10938 L8.8125,-5.71875 L5.42188,-5.71875 L5.42188,-4.85938 L8.8125,-4.85938 L8.8125,-1.46875 L9.67188,-1.46875 L9.67188,-4.85938 L13.0625,-4.85938 z" fill-rule="nonzero" vector-effect="none"/></g><defs><clipPath id="clip38"><path d="M-29,-13 L34,-13 L34,18 L-29,18 L-29,-13 z"/></clipPath></defs><g clip-path="url(#clip38)" fill="#000000" fill-opacity="1" opacity="1" stroke="none" stroke-opacity="0" transform="matrix(1,0,0,1,317,89.5)"><path d="M18.9063,-10.5 L18.9063,-10.2969 C19.7344,-10.2344 19.9063,-10.1406 19.9063,-9.76563 C19.9063,-9.5625 19.8594,-9.25 19.7656,-8.92188 L18.1875,-3.23438 C17.9688,-2.42188 17.8281,-2.29688 17.1094,-2.1875 L17.1094,-1.98438 L20.6563,-1.98438 C22.75,-1.98438 24.2188,-2.84375 24.2188,-4.59375 C24.2188,-5.51563 23.7031,-6.21875 22.5938,-6.54688 L22.5938,-6.5625 C23.1406,-6.6875 23.625,-6.79688 24.0313,-7.07813 C24.5,-7.39063 24.8594,-7.84375 24.8594,-8.54688 C24.8594,-9.84375 23.9688,-10.5 22.1563,-10.5 L18.9063,-10.5 M20.4375,-6.71875 L21.2656,-9.64063 C21.3906,-10.1094 21.5156,-10.1094 22.0313,-10.1094 C23.0781,-10.1094 23.5469,-9.67188 23.5469,-8.70313 C23.5469,-7.40625 22.6406,-6.71875 20.9375,-6.71875 L20.4375,-6.71875 M20.3125,-6.29688 C21.125,-6.29688 21.6875,-6.23438 21.9531,-6.14063 C22.4375,-5.98438 22.8281,-5.40625 22.8281,-4.59375 C22.8281,-3.14063 21.8125,-2.375 20.3125,-2.375 C19.7656,-2.375 19.4375,-2.5625 19.4375,-2.92188 C19.4375,-3.09375 19.6406,-3.76563 19.8906,-4.75 L20.3125,-6.29688" fill-rule="nonzero" vector-effect="none"/></g><defs><clipPath id="clip39"><path d="M-29,-13 L34,-13 L34,18 L-29,18 L-29,-13 z"/></clipPath></defs><g clip-path="url(#clip39)" fill="#000000" fill-opacity="1" opacity="1" stroke="none" stroke-opacity="0" transform="matrix(1,0,0,1,317,89.5)"><path d="M31.3438,-6.29688 C31.3438,-8.95313 30.1563,-10.7813 28.4531,-10.7813 C26.3594,-10.7813 25.4688,-8.67188 25.4688,-6.375 C25.4688,-4.23438 26.1875,-1.8125 28.4063,-1.8125 C30.5313,-1.8125 31.3438,-4.04688 31.3438,-6.29688 M30.0938,-6.21875 C30.0938,-3.65625 29.5156,-2.15625 28.4063,-2.15625 C27.2813,-2.15625 26.7188,-3.64063 26.7188,-6.28125 C26.7188,-8.92188 27.2969,-10.4531 28.375,-10.4531 C29.5313,-10.4531 30.0938,-8.92188 30.0938,-6.21875" fill-rule="nonzero" vector-effect="none"/></g><defs><clipPath id="clip40"><path d="M-29,-13 L34,-13 L34,18 L-29,18 L-29,-13 z"/></clipPath></defs><g clip-path="url(#clip40)" fill="#000000" fill-opacity="1" opacity="1" stroke="none" stroke-opacity="0" transform="matrix(1,0,0,1,317,89.5)"><path d="M-19.375,14.0156 L-19.375,13.8125 C-20.0625,13.75 -20.2031,13.6094 -20.3906,12.5156 L-21.5781,5.3125 L-21.9219,5.3125 L-25.625,11.7813 C-26.5938,13.4688 -26.7656,13.6875 -27.3594,13.8125 L-27.3594,14.0156 L-24.9531,14.0156 L-24.9531,13.8125 C-25.5625,13.7813 -25.75,13.625 -25.75,13.375 C-25.75,13.1719 -25.6563,12.8594 -25.4688,12.5156 L-24.7031,11.0781 L-21.8438,11.0781 L-21.5781,12.7813 C-21.5625,12.8906 -21.5625,13.0156 -21.5625,13.1094 C-21.5625,13.5625 -21.7344,13.7656 -22.5625,13.8125 L-22.5625,14.0156 L-19.375,14.0156 M-21.9063,10.6094 L-24.4219,10.6094 L-22.4844,7.17188 L-21.9063,10.6094" fill-rule="nonzero" vector-effect="none"/></g><defs><clipPath id="clip41"><path d="M-29,-13 L34,-13 L34,18 L-29,18 L-29,-13 z"/></clipPath></defs><g clip-path="url(#clip41)" fill="#000000" fill-opacity="1" opacity="1" stroke="none" stroke-opacity="0" transform="matrix(1,0,0,1,317,89.5)"><path d="M-13.6406,14 L-13.6406,13.8125 C-14.625,13.8125 -14.875,13.5781 -14.875,13.0156 L-14.875,5.25 L-15,5.21875 L-17.3281,6.39063 L-17.3281,6.57813 L-16.9688,6.45313 C-16.7344,6.35938 -16.5156,6.29688 -16.3906,6.29688 C-16.1094,6.29688 -16,6.48438 -16,6.92188 L-16,12.7656 C-16,13.4844 -16.2656,13.75 -17.2344,13.8125 L-17.2344,14 L-13.6406,14 z" fill-rule="nonzero" vector-effect="none"/></g><defs><clipPath id="clip42"><path d="M-29,-13 L34,-13 L34,18 L-29,18 L-29,-13 z"/></clipPath></defs><g clip-path="url(#clip42)" fill="#000000" fill-opacity="1" opacity="1" stroke="none" stroke-opacity="0" transform="matrix(1,0,0,1,317,89.5)"><path d="M-6.75,10.7031 C-6.75,10.2969 -7.10938,9.9375 -7.51563,9.9375 C-7.95313,9.9375 -8.3125,10.3281 -8.3125,10.7031 C-8.3125,11.0938 -7.95313,11.4844 -7.51563,11.4844 C-7.10938,11.4844 -6.75,11.125 -6.75,10.7031 z" fill-rule="nonzero" vector-effect="none"/></g><defs><clipPath id="clip43"><path d="M-29,-13 L34,-13 L34,18 L-29,18 L-29,-13 z"/></clipPath></defs><g clip-path="url(#clip43)" fill="#000000" fill-opacity="1" opacity="1" stroke="none" stroke-opacity="0" transform="matrix(1,0,0,1,317,89.5)"><path d="M1.95313,8.25 L1.76563,8.25 C1.65625,8.4375 1.5625,8.48438 1.375,8.48438 C1.26563,8.48438 1.15625,8.46875 0.90625,8.39063 C0.578125,8.3125 0.40625,8.26563 0.171875,8.26563 C-0.78125,8.26563 -1.39063,8.8125 -1.39063,9.67188 C-1.39063,10.0938 -1.14063,10.6719 -0.578125,11.375 C-0.0625,12.0156 0.15625,12.4531 0.15625,12.875 C0.15625,13.5 -0.21875,13.875 -0.84375,13.875 C-1.51563,13.875 -1.95313,13.3438 -2.14063,12.1094 L-2.34375,12.1094 L-2.60938,14.1719 L-2.39063,14.1719 C-2.3125,13.9688 -2.15625,13.8906 -2.01563,13.8906 C-1.875,13.8906 -1.6875,13.9063 -1.45313,14.0156 C-1.14063,14.125 -0.953125,14.1406 -0.734375,14.1406 C0.34375,14.1406 1.14063,13.4844 1.14063,12.4063 C1.14063,11.8906 0.90625,11.3906 0.25,10.6406 C-0.25,10.0313 -0.453125,9.65625 -0.453125,9.3125 C-0.453125,8.82813 -0.140625,8.5625 0.328125,8.5625 C0.953125,8.5625 1.34375,9 1.48438,10.0781 L1.6875,10.0781 L1.95313,8.25 z" fill-rule="nonzero" vector-effect="none"/></g><defs><clipPath id="clip44"><path d="M-29,-13 L34,-13 L34,18 L-29,18 L-29,-13 z"/></clipPath></defs><g clip-path="url(#clip44)" fill="#000000" fill-opacity="1" opacity="1" stroke="none" stroke-opacity="0" transform="matrix(1,0,0,1,317,89.5)"><path d="M13.375,11.1406 L13.375,10.2813 L9.98438,10.2813 L9.98438,6.89063 L9.125,6.89063 L9.125,10.2813 L5.73438,10.2813 L5.73438,11.1406 L9.125,11.1406 L9.125,14.5313 L9.98438,14.5313 L9.98438,11.1406 L13.375,11.1406 z" fill-rule="nonzero" vector-effect="none"/></g><defs><clipPath id="clip45"><path d="M-29,-13 L34,-13 L34,18 L-29,18 L-29,-13 z"/></clipPath></defs><g clip-path="url(#clip45)" fill="#000000" fill-opacity="1" opacity="1" stroke="none" stroke-opacity="0" transform="matrix(1,0,0,1,317,89.5)"><path d="M25.5156,14.0156 L25.5156,13.8125 C24.8281,13.75 24.6875,13.6094 24.5,12.5156 L23.3125,5.3125 L22.9688,5.3125 L19.2656,11.7813 C18.2969,13.4688 18.125,13.6875 17.5313,13.8125 L17.5313,14.0156 L19.9375,14.0156 L19.9375,13.8125 C19.3281,13.7813 19.1406,13.625 19.1406,13.375 C19.1406,13.1719 19.2344,12.8594 19.4219,12.5156 L20.1875,11.0781 L23.0469,11.0781 L23.3125,12.7813 C23.3281,12.8906 23.3281,13.0156 23.3281,13.1094 C23.3281,13.5625 23.1563,13.7656 22.3281,13.8125 L22.3281,14.0156 L25.5156,14.0156 M22.9844,10.6094 L20.4688,10.6094 L22.4063,7.17188 L22.9844,10.6094" fill-rule="nonzero" vector-effect="none"/></g><defs><clipPath id="clip46"><path d="M-29,-13 L34,-13 L34,18 L-29,18 L-29,-13 z"/></clipPath></defs><g clip-path="url(#clip46)" fill="#000000" fill-opacity="1" opacity="1" stroke="none" stroke-opacity="0" transform="matrix(1,0,0,1,317,89.5)"><path d="M32.3125,9.70313 C32.3125,7.04688 31.125,5.21875 29.4219,5.21875 C27.3281,5.21875 26.4375,7.32813 26.4375,9.625 C26.4375,11.7656 27.1563,14.1875 29.375,14.1875 C31.5,14.1875 32.3125,11.9531 32.3125,9.70313 M31.0625,9.78125 C31.0625,12.3438 30.4844,13.8438 29.375,13.8438 C28.25,13.8438 27.6875,12.3594 27.6875,9.71875 C27.6875,7.07813 28.2656,5.54688 29.3438,5.54688 C30.5,5.54688 31.0625,7.07813 31.0625,9.78125" fill-rule="nonzero" vector-effect="none"/></g><defs><clipPath id="clip69"><path d="M-267.5,-64.5 L662.5,-64.5 L662.5,101.5 L-267.5,101.5 L-267.5,-64.5 z"/></clipPath></defs><g clip-path="url(#clip69)" fill="none" opacity="1" stroke="#000000" stroke-linecap="butt" stroke-linejoin="miter" stroke-miterlimit="2" stroke-opacity="1" stroke-width="1" transform="matrix(1,0,0,1,267.5,64.5)"><path d="M0,0 L105,0 L105,56 L0,56 L0,0 z" fill-rule="evenodd" vector-effect="none"/></g><defs><clipPath id="clip75"><path d="M0,0 L27,0 L27,14 L0,14 L0,0 z"/></clipPath></defs><g clip-path="url(#clip75)" fill="none" opacity="1" stroke="#000000" stroke-linecap="square" stroke-linejoin="bevel" stroke-opacity="1" stroke-width="1" transform="matrix(1,0,0,1,306.023,122)"><text fill="#000000" fill-opacity="1" font-family="Arial" font-size="10" font-style="normal" font-weight="400" stroke="none" textLength="24.9531" x="1" xml:space="preserve" y="10">Fr(b))</text></g><defs><clipPath id="clip83"><path d="M-2,-77 L928,-77 L928,89 L-2,89 L-2,-77 z"/></clipPath></defs><g clip-path="url(#clip83)" fill="#ffffff" fill-opacity="1" opacity="1" stroke="none" stroke-opacity="0" transform="matrix(1,0,0,1,2,77)"><path d="M0,0 L30,0 L30,30 L0,30 L0,0 z" fill-rule="evenodd" vector-effect="none"/></g><defs><clipPath id="clip87"><path d="M0,0 L31,0 L31,31 L0,31 L0,0 z"/></clipPath></defs><g clip-path="url(#clip87)" fill="none" opacity="1" stroke="none" stroke-opacity="0" transform="matrix(1,0,0,1,2,77)"><path d="M0,0 L31,0 L31,31 L0,31 L0,0 z" fill-rule="evenodd" vector-effect="none"/></g><defs><clipPath id="clip97"><path d="M0,0 L30,0 L30,30 L0,30 L0,0 z"/></clipPath></defs><g clip-path="url(#clip97)" fill="#000000" fill-opacity="1" opacity="1" stroke="none" stroke-opacity="0" transform="matrix(1,0,0,1,2,77)"><path d="M12.6406,14.0469 C12.6406,13.2031 12.7266,12.5234 12.8984,12.0078 C13.0703,11.4922 13.3281,11.0938 13.6719,10.8125 C14.0156,10.5313 14.4479,10.3906 14.9688,10.3906 C15.3542,10.3906 15.6901,10.4688 15.9766,10.625 C16.263,10.7813 16.5026,11.0052 16.6953,11.2969 C16.888,11.5885 17.0365,11.9427 17.1406,12.3594 C17.2448,12.776 17.2969,13.3385 17.2969,14.0469 C17.2969,14.8906 17.2109,15.5703 17.0391,16.0859 C16.8672,16.6016 16.6094,17 16.2656,17.2813 C15.9219,17.5625 15.4896,17.7031 14.9688,17.7031 C14.2813,17.7031 13.7396,17.4531 13.3438,16.9531 C12.875,16.3594 12.6406,15.3906 12.6406,14.0469 M13.5313,14.0469 C13.5313,15.224 13.6693,16.0078 13.9453,16.3984 C14.2214,16.7891 14.5625,16.9844 14.9688,16.9844 C15.375,16.9844 15.7161,16.7891 15.9922,16.3984 C16.2682,16.0078 16.4063,15.224 16.4063,14.0469 C16.4063,12.8698 16.2682,12.0885 15.9922,11.7031 C15.7161,11.3177 15.3698,11.125 14.9531,11.125 C14.5573,11.125 14.2344,11.2917 13.9844,11.625 C13.6823,12.0625 13.5313,12.8698 13.5313,14.0469" fill-rule="nonzero" vector-effect="none"/></g><defs><clipPath id="clip117"><path d="M-2.5,-77.5 L927.5,-77.5 L927.5,88.5 L-2.5,88.5 L-2.5,-77.5 z"/></clipPath></defs><g clip-path="url(#clip117)" fill="none" opacity="1" stroke="#000000" stroke-linecap="butt" stroke-linejoin="miter" stroke-miterlimit="2" stroke-opacity="1" stroke-width="1" transform="matrix(1,0,0,1,2.5,77.5)"><path d="M0,0 L30,0 L30,30 L0,30 L0,0 z" fill-rule="evenodd" vector-effect="none"/></g><defs><clipPath id="clip120"><path d="M-837,-62 L93,-62 L93,104 L-837,104 L-837,-62 z"/></clipPath></defs><g clip-path="url(#clip120)" fill="#ffffff" fill-opacity="1" opacity="1" stroke="none" stroke-opacity="0" transform="matrix(1,0,0,1,837,62)"><path d="M0,0 L90,0 L90,30 L0,30 L0,0 z" fill-rule="evenodd" vector-effect="none"/></g><defs><clipPath id="clip124"><path d="M0,0 L91,0 L91,31 L0,31 L0,0 z"/></clipPath></defs><g clip-path="url(#clip124)" fill="none" opacity="1" stroke="none" stroke-opacity="0" transform="matrix(1,0,0,1,837,62)"><path d="M0,0 L91,0 L91,31 L0,31 L0,0 z" fill-rule="evenodd" vector-effect="none"/></g><defs><clipPath id="clip134"><path d="M-1,-1 L63,-1 L63,27 L-1,27 L-1,-1 z"/></clipPath></defs><g clip-path="url(#clip134)" fill="#000000" fill-opacity="1" opacity="1" stroke="none" stroke-opacity="0" transform="matrix(1,0,0,1,852,65)"><path d="M16.125,17.5 L16.125,8.89063 L17.0781,8.89063 L17.0781,9.6875 C17.3073,9.375 17.5651,9.14063 17.8516,8.98438 C18.138,8.82813 18.4844,8.75 18.8906,8.75 C19.4219,8.75 19.8906,8.88542 20.2969,9.15625 C20.7031,9.42708 21.0078,9.8125 21.2109,10.3125 C21.4141,10.8125 21.5156,11.3594 21.5156,11.9531 C21.5156,12.5885 21.4036,13.1615 21.1797,13.6719 C20.9557,14.1823 20.625,14.5729 20.1875,14.8438 C19.75,15.1146 19.2917,15.25 18.8125,15.25 C18.4583,15.25 18.1406,15.1745 17.8594,15.0234 C17.5781,14.8724 17.349,14.6875 17.1719,14.4688 L17.1719,17.5 L16.125,17.5 M17.0781,12.0313 C17.0781,12.8333 17.2396,13.4245 17.5625,13.8047 C17.8854,14.1849 18.276,14.375 18.7344,14.375 C19.2031,14.375 19.6042,14.1771 19.9375,13.7813 C20.2708,13.3854 20.4375,12.7708 20.4375,11.9375 C20.4375,11.1458 20.276,10.5547 19.9531,10.1641 C19.6302,9.77344 19.2396,9.57813 18.7813,9.57813 C18.3333,9.57813 17.9375,9.78646 17.5938,10.2031 C17.25,10.6198 17.0781,11.2292 17.0781,12.0313 M22.7969,15.1094 L22.7969,6.51563 L23.8438,6.51563 L23.8438,9.59375 C24.3333,9.03125 24.9531,8.75 25.7031,8.75 C26.1719,8.75 26.5755,8.84115 26.9141,9.02344 C27.2526,9.20573 27.4948,9.45573 27.6406,9.77344 C27.7865,10.0911 27.8594,10.5573 27.8594,11.1719 L27.8594,15.1094 L26.8125,15.1094 L26.8125,11.1719 C26.8125,10.6406 26.6979,10.2552 26.4688,10.0156 C26.2396,9.77604 25.9167,9.65625 25.5,9.65625 C25.1875,9.65625 24.8932,9.73698 24.6172,9.89844 C24.3411,10.0599 24.1432,10.2786 24.0234,10.5547 C23.9036,10.8307 23.8438,11.2135 23.8438,11.7031 L23.8438,15.1094 L22.7969,15.1094 M29.4688,7.73438 L29.4688,6.51563 L30.5313,6.51563 L30.5313,7.73438 L29.4688,7.73438 M29.4688,15.1094 L29.4688,8.89063 L30.5313,8.89063 L30.5313,15.1094 L29.4688,15.1094 M31.1406,17.5 L31.1406,16.7344 L38.1406,16.7344 L38.1406,17.5 L31.1406,17.5 M39.7656,15.1094 L38.7813,15.1094 L38.7813,6.51563 L39.8438,6.51563 L39.8438,9.57813 C40.2917,9.02604 40.8594,8.75 41.5469,8.75 C41.9323,8.75 42.2943,8.82552 42.6328,8.97656 C42.9714,9.1276 43.2526,9.34375 43.4766,9.625 C43.7005,9.90625 43.875,10.2448 44,10.6406 C44.125,11.0365 44.1875,11.4583 44.1875,11.9063 C44.1875,12.9688 43.9219,13.7917 43.3906,14.375 C42.8594,14.9583 42.2292,15.25 41.5,15.25 C40.7604,15.25 40.1823,14.9427 39.7656,14.3281 L39.7656,15.1094 M39.75,11.9531 C39.75,12.6927 39.8542,13.2292 40.0625,13.5625 C40.3958,14.1042 40.8438,14.375 41.4063,14.375 C41.8646,14.375 42.263,14.1771 42.6016,13.7813 C42.9401,13.3854 43.1094,12.7865 43.1094,11.9844 C43.1094,11.1719 42.9479,10.5729 42.625,10.1875 C42.3021,9.80208 41.9115,9.60938 41.4531,9.60938 C40.9948,9.60938 40.5964,9.8099 40.2578,10.2109 C39.9193,10.612 39.75,11.1927 39.75,11.9531" fill-rule="nonzero" vector-effect="none"/></g><defs><clipPath id="clip154"><path d="M-837.5,-62.5 L92.5,-62.5 L92.5,103.5 L-837.5,103.5 L-837.5,-62.5 z"/></clipPath></defs><g clip-path="url(#clip154)" fill="none" opacity="1" stroke="#000000" stroke-linecap="butt" stroke-linejoin="miter" stroke-miterlimit="2" stroke-opacity="1" stroke-width="1" transform="matrix(1,0,0,1,837.5,62.5)"><path d="M0,0 L90,0 L90,30 L0,30 L0,0 z" fill-rule="evenodd" vector-effect="none"/></g><defs><clipPath id="clip157"><path d="M-657,-92 L273,-92 L273,74 L-657,74 L-657,-92 z"/></clipPath></defs><g clip-path="url(#clip157)" fill="#ffffff" fill-opacity="1" opacity="1" stroke="none" stroke-opacity="0" transform="matrix(1,0,0,1,657,92)"><path d="M0,0 L90,0 L90,30 L0,30 L0,0 z" fill-rule="evenodd" vector-effect="none"/></g><defs><clipPath id="clip161"><path d="M0,0 L91,0 L91,31 L0,31 L0,0 z"/></clipPath></defs><g clip-path="url(#clip161)" fill="none" opacity="1" stroke="none" stroke-opacity="0" transform="matrix(1,0,0,1,657,92)"><path d="M0,0 L91,0 L91,31 L0,31 L0,0 z" fill-rule="evenodd" vector-effect="none"/></g><defs><clipPath id="clip171"><path d="M-1,-1 L63,-1 L63,27 L-1,27 L-1,-1 z"/></clipPath></defs><g clip-path="url(#clip171)" fill="#000000" fill-opacity="1" opacity="1" stroke="none" stroke-opacity="0" transform="matrix(1,0,0,1,672,95)"><path d="M16.0938,15.1094 L18.3594,11.875 L16.2656,8.89063 L17.5781,8.89063 L18.5313,10.3438 C18.7083,10.625 18.8542,10.8594 18.9688,11.0469 C19.1354,10.7865 19.2917,10.5573 19.4375,10.3594 L20.4844,8.89063 L21.75,8.89063 L19.5938,11.8125 L21.9063,15.1094 L20.625,15.1094 L19.3438,13.1719 L19,12.6563 L17.3594,15.1094 L16.0938,15.1094 M23.9375,15.1094 L22.0313,8.89063 L23.125,8.89063 L24.1094,12.4844 L24.4844,13.8125 C24.5052,13.75 24.6146,13.3229 24.8125,12.5313 L25.7969,8.89063 L26.875,8.89063 L27.8125,12.5 L28.125,13.6875 L28.4844,12.4844 L29.5469,8.89063 L30.5781,8.89063 L28.625,15.1094 L27.5313,15.1094 L26.5469,11.375 L26.2969,10.3281 L25.0469,15.1094 L23.9375,15.1094 M30.4688,17.5 L30.4688,16.7344 L37.4688,16.7344 L37.4688,17.5 L30.4688,17.5 M39.0938,15.1094 L38.1094,15.1094 L38.1094,6.51563 L39.1719,6.51563 L39.1719,9.57813 C39.6198,9.02604 40.1875,8.75 40.875,8.75 C41.2604,8.75 41.6224,8.82552 41.9609,8.97656 C42.2995,9.1276 42.5807,9.34375 42.8047,9.625 C43.0286,9.90625 43.2031,10.2448 43.3281,10.6406 C43.4531,11.0365 43.5156,11.4583 43.5156,11.9063 C43.5156,12.9688 43.25,13.7917 42.7188,14.375 C42.1875,14.9583 41.5573,15.25 40.8281,15.25 C40.0885,15.25 39.5104,14.9427 39.0938,14.3281 L39.0938,15.1094 M39.0781,11.9531 C39.0781,12.6927 39.1823,13.2292 39.3906,13.5625 C39.724,14.1042 40.1719,14.375 40.7344,14.375 C41.1927,14.375 41.5911,14.1771 41.9297,13.7813 C42.2682,13.3854 42.4375,12.7865 42.4375,11.9844 C42.4375,11.1719 42.276,10.5729 41.9531,10.1875 C41.6302,9.80208 41.2396,9.60938 40.7813,9.60938 C40.3229,9.60938 39.9245,9.8099 39.5859,10.2109 C39.2474,10.612 39.0781,11.1927 39.0781,11.9531" fill-rule="nonzero" vector-effect="none"/></g><defs><clipPath id="clip191"><path d="M-657.5,-92.5 L272.5,-92.5 L272.5,73.5 L-657.5,73.5 L-657.5,-92.5 z"/></clipPath></defs><g clip-path="url(#clip191)" fill="none" opacity="1" stroke="#000000" stroke-linecap="butt" stroke-linejoin="miter" stroke-miterlimit="2" stroke-opacity="1" stroke-width="1" transform="matrix(1,0,0,1,657.5,92.5)"><path d="M0,0 L90,0 L90,30 L0,30 L0,0 z" fill-rule="evenodd" vector-effect="none"/></g><defs><clipPath id="clip194"><path d="M-837,-2 L93,-2 L93,164 L-837,164 L-837,-2 z"/></clipPath></defs><g clip-path="url(#clip194)" fill="#ffffff" fill-opacity="1" opacity="1" stroke="none" stroke-opacity="0" transform="matrix(1,0,0,1,837,2)"><path d="M0,0 L90,0 L90,30 L0,30 L0,0 z" fill-rule="evenodd" vector-effect="none"/></g><defs><clipPath id="clip198"><path d="M0,0 L91,0 L91,31 L0,31 L0,0 z"/></clipPath></defs><g clip-path="url(#clip198)" fill="none" opacity="1" stroke="none" stroke-opacity="0" transform="matrix(1,0,0,1,837,2)"><path d="M0,0 L91,0 L91,31 L0,31 L0,0 z" fill-rule="evenodd" vector-effect="none"/></g><defs><clipPath id="clip208"><path d="M-1,-1 L63,-1 L63,27 L-1,27 L-1,-1 z"/></clipPath></defs><g clip-path="url(#clip208)" fill="#000000" fill-opacity="1" opacity="1" stroke="none" stroke-opacity="0" transform="matrix(1,0,0,1,852,5)"><path d="M17.6406,15.1094 L17.6406,6.51563 L23.4375,6.51563 L23.4375,7.53125 L18.7813,7.53125 L18.7813,10.1875 L22.8125,10.1875 L22.8125,11.2031 L18.7813,11.2031 L18.7813,15.1094 L17.6406,15.1094 M24.0781,15.1094 L26.3438,11.875 L24.25,8.89063 L25.5625,8.89063 L26.5156,10.3438 C26.6927,10.625 26.8385,10.8594 26.9531,11.0469 C27.1198,10.7865 27.276,10.5573 27.4219,10.3594 L28.4688,8.89063 L29.7344,8.89063 L27.5781,11.8125 L29.8906,15.1094 L28.6094,15.1094 L27.3281,13.1719 L26.9844,12.6563 L25.3438,15.1094 L24.0781,15.1094 M29.7969,17.5 L29.7969,16.7344 L36.7969,16.7344 L36.7969,17.5 L29.7969,17.5 M38.4219,15.1094 L37.4375,15.1094 L37.4375,6.51563 L38.5,6.51563 L38.5,9.57813 C38.9479,9.02604 39.5156,8.75 40.2031,8.75 C40.5885,8.75 40.9505,8.82552 41.2891,8.97656 C41.6276,9.1276 41.9089,9.34375 42.1328,9.625 C42.3568,9.90625 42.5313,10.2448 42.6563,10.6406 C42.7813,11.0365 42.8438,11.4583 42.8438,11.9063 C42.8438,12.9688 42.5781,13.7917 42.0469,14.375 C41.5156,14.9583 40.8854,15.25 40.1563,15.25 C39.4167,15.25 38.8385,14.9427 38.4219,14.3281 L38.4219,15.1094 M38.4063,11.9531 C38.4063,12.6927 38.5104,13.2292 38.7188,13.5625 C39.0521,14.1042 39.5,14.375 40.0625,14.375 C40.5208,14.375 40.9193,14.1771 41.2578,13.7813 C41.5964,13.3854 41.7656,12.7865 41.7656,11.9844 C41.7656,11.1719 41.6042,10.5729 41.2813,10.1875 C40.9583,9.80208 40.5677,9.60938 40.1094,9.60938 C39.651,9.60938 39.2526,9.8099 38.9141,10.2109 C38.5755,10.612 38.4063,11.1927 38.4063,11.9531" fill-rule="nonzero" vector-effect="none"/></g><defs><clipPath id="clip228"><path d="M-837.5,-2.5 L92.5,-2.5 L92.5,163.5 L-837.5,163.5 L-837.5,-2.5 z"/></clipPath></defs><g clip-path="url(#clip228)" fill="none" opacity="1" stroke="#000000" stroke-linecap="butt" stroke-linejoin="miter" stroke-miterlimit="2" stroke-opacity="1" stroke-width="1" transform="matrix(1,0,0,1,837.5,2.5)"><path d="M0,0 L90,0 L90,30 L0,30 L0,0 z" fill-rule="evenodd" vector-effect="none"/></g><defs><clipPath id="clip231"><path d="M-467,-75 L463,-75 L463,91 L-467,91 L-467,-75 z"/></clipPath></defs><g clip-path="url(#clip231)" fill="#ffffff" fill-opacity="1" opacity="1" stroke="none" stroke-opacity="0" transform="matrix(1,0,0,1,467,75)"><path d="M0,0 L60,0 L60,34 L0,34 L0,0 z" fill-rule="evenodd" vector-effect="none"/></g><defs><clipPath id="clip235"><path d="M0,0 L61,0 L61,35 L0,35 L0,0 z"/></clipPath></defs><g clip-path="url(#clip235)" fill="none" opacity="1" stroke="none" stroke-opacity="0" transform="matrix(1,0,0,1,467,75)"><path d="M0,0 L61,0 L61,35 L0,35 L0,0 z" fill-rule="evenodd" vector-effect="none"/></g><defs><clipPath id="clip246"><path d="M-33,-15 L38,-15 L38,20 L-33,20 L-33,-15 z"/></clipPath></defs><g clip-path="url(#clip246)" fill="#000000" fill-opacity="1" opacity="1" stroke="none" stroke-opacity="0" transform="matrix(0.7,0,0,0.7,495.5,90.5)"><path d="M-27.1875,-11.2344 C-27.1875,-11.5625 -27.4844,-11.875 -27.8125,-11.875 C-28.1719,-11.875 -28.4688,-11.6094 -28.4688,-11.25 C-28.4688,-10.8906 -28.1875,-10.6094 -27.8281,-10.6094 C-27.4844,-10.6094 -27.1875,-10.8906 -27.1875,-11.2344 z" fill-rule="nonzero" vector-effect="none"/></g><defs><clipPath id="clip247"><path d="M-33,-15 L38,-15 L38,20 L-33,20 L-33,-15 z"/></clipPath></defs><g clip-path="url(#clip247)" fill="#000000" fill-opacity="1" opacity="1" stroke="none" stroke-opacity="0" transform="matrix(0.7,0,0,0.7,495.5,90.5)"><path d="M-28.2031,-7.60938 C-28.375,-8.5 -28.5313,-8.73438 -28.8594,-8.73438 C-29.1563,-8.73438 -29.5938,-8.64063 -30.3906,-8.35938 L-30.5313,-8.29688 L-30.4844,-8.09375 L-30.25,-8.15625 C-30,-8.21875 -29.8438,-8.25 -29.75,-8.25 C-29.4219,-8.25 -29.3281,-8.14063 -29.1563,-7.375 L-28.7813,-5.75 L-29.8438,-4.25 C-30.125,-3.85938 -30.375,-3.60938 -30.5156,-3.60938 C-30.5938,-3.60938 -30.7188,-3.65625 -30.8594,-3.73438 C-31.0156,-3.8125 -31.1563,-3.875 -31.2656,-3.875 C-31.5313,-3.875 -31.7031,-3.65625 -31.7031,-3.40625 C-31.7031,-3.0625 -31.4688,-2.85938 -31.0625,-2.85938 C-30.6563,-2.85938 -30.3906,-2.96875 -29.8281,-3.73438 L-28.6875,-5.28125 L-28.2969,-3.73438 C-28.1406,-3.09375 -27.9531,-2.85938 -27.5313,-2.85938 C-27.0469,-2.85938 -26.7031,-3.17188 -25.9531,-4.34375 L-26.1406,-4.45313 C-26.25,-4.32813 -26.2969,-4.25 -26.4219,-4.09375 C-26.7188,-3.70313 -26.8594,-3.57813 -27.0313,-3.57813 C-27.2188,-3.57813 -27.3281,-3.73438 -27.4219,-4.10938 L-27.8438,-5.84375 C-27.9219,-6.15625 -27.9375,-6.34375 -27.9375,-6.4375 C-27.375,-7.4375 -26.9063,-8 -26.6719,-8 C-26.3594,-8 -26.2344,-7.78125 -25.9844,-7.78125 C-25.7344,-7.78125 -25.5469,-7.98438 -25.5469,-8.25 C-25.5469,-8.53125 -25.7656,-8.73438 -26.0781,-8.73438 C-26.6563,-8.73438 -27.1406,-8.26563 -28.0469,-6.875 L-28.2031,-7.60938 z" fill-rule="nonzero" vector-effect="none"/></g><defs><clipPath id="clip248"><path d="M-33,-15 L38,-15 L38,20 L-33,20 L-33,-15 z"/></clipPath></defs><g clip-path="url(#clip248)" fill="#000000" fill-opacity="1" opacity="1" stroke="none" stroke-opacity="0" transform="matrix(0.7,0,0,0.7,495.5,90.5)"><path d="M-13.7031,-7.15625 L-13.7031,-8.01563 L-21.3594,-8.01563 L-21.3594,-7.15625 L-13.7031,-7.15625 M-13.7031,-4.5625 L-13.7031,-5.42188 L-21.3594,-5.42188 L-21.3594,-4.5625 L-13.7031,-4.5625" fill-rule="nonzero" vector-effect="none"/></g><defs><clipPath id="clip249"><path d="M-33,-15 L38,-15 L38,20 L-33,20 L-33,-15 z"/></clipPath></defs><g clip-path="url(#clip249)" fill="#000000" fill-opacity="1" opacity="1" stroke="none" stroke-opacity="0" transform="matrix(0.7,0,0,0.7,495.5,90.5)"><path d="M-0.859375,-2.98438 L-0.859375,-3.1875 C-1.54688,-3.25 -1.6875,-3.39063 -1.875,-4.48438 L-3.0625,-11.6875 L-3.40625,-11.6875 L-7.10938,-5.21875 C-8.07813,-3.53125 -8.25,-3.3125 -8.84375,-3.1875 L-8.84375,-2.98438 L-6.4375,-2.98438 L-6.4375,-3.1875 C-7.04688,-3.21875 -7.23438,-3.375 -7.23438,-3.625 C-7.23438,-3.82813 -7.14063,-4.14063 -6.95313,-4.48438 L-6.1875,-5.92188 L-3.32813,-5.92188 L-3.0625,-4.21875 C-3.04688,-4.10938 -3.04688,-3.98438 -3.04688,-3.89063 C-3.04688,-3.4375 -3.21875,-3.23438 -4.04688,-3.1875 L-4.04688,-2.98438 L-0.859375,-2.98438 M-3.39063,-6.39063 L-5.90625,-6.39063 L-3.96875,-9.82813 L-3.39063,-6.39063" fill-rule="nonzero" vector-effect="none"/></g><defs><clipPath id="clip250"><path d="M-33,-15 L38,-15 L38,20 L-33,20 L-33,-15 z"/></clipPath></defs><g clip-path="url(#clip250)" fill="#000000" fill-opacity="1" opacity="1" stroke="none" stroke-opacity="0" transform="matrix(0.7,0,0,0.7,495.5,90.5)"><path d="M2.90625,-7.60938 C2.73438,-8.5 2.57813,-8.73438 2.25,-8.73438 C1.95313,-8.73438 1.51563,-8.64063 0.71875,-8.35938 L0.578125,-8.29688 L0.625,-8.09375 L0.859375,-8.15625 C1.10938,-8.21875 1.26563,-8.25 1.35938,-8.25 C1.6875,-8.25 1.78125,-8.14063 1.95313,-7.375 L2.32813,-5.75 L1.26563,-4.25 C0.984375,-3.85938 0.734375,-3.60938 0.59375,-3.60938 C0.515625,-3.60938 0.390625,-3.65625 0.25,-3.73438 C0.09375,-3.8125 -0.046875,-3.875 -0.15625,-3.875 C-0.421875,-3.875 -0.59375,-3.65625 -0.59375,-3.40625 C-0.59375,-3.0625 -0.359375,-2.85938 0.046875,-2.85938 C0.453125,-2.85938 0.71875,-2.96875 1.28125,-3.73438 L2.42188,-5.28125 L2.8125,-3.73438 C2.96875,-3.09375 3.15625,-2.85938 3.57813,-2.85938 C4.0625,-2.85938 4.40625,-3.17188 5.15625,-4.34375 L4.96875,-4.45313 C4.85938,-4.32813 4.8125,-4.25 4.6875,-4.09375 C4.39063,-3.70313 4.25,-3.57813 4.07813,-3.57813 C3.89063,-3.57813 3.78125,-3.73438 3.6875,-4.10938 L3.26563,-5.84375 C3.1875,-6.15625 3.17188,-6.34375 3.17188,-6.4375 C3.73438,-7.4375 4.20313,-8 4.4375,-8 C4.75,-8 4.875,-7.78125 5.125,-7.78125 C5.375,-7.78125 5.5625,-7.98438 5.5625,-8.25 C5.5625,-8.53125 5.34375,-8.73438 5.03125,-8.73438 C4.45313,-8.73438 3.96875,-8.26563 3.0625,-6.875 L2.90625,-7.60938 z" fill-rule="nonzero" vector-effect="none"/></g><defs><clipPath id="clip251"><path d="M-33,-15 L38,-15 L38,20 L-33,20 L-33,-15 z"/></clipPath></defs><g clip-path="url(#clip251)" fill="#000000" fill-opacity="1" opacity="1" stroke="none" stroke-opacity="0" transform="matrix(0.7,0,0,0.7,495.5,90.5)"><path d="M16.6563,-5.85938 L16.6563,-6.71875 L13.2656,-6.71875 L13.2656,-10.1094 L12.4063,-10.1094 L12.4063,-6.71875 L9.01563,-6.71875 L9.01563,-5.85938 L12.4063,-5.85938 L12.4063,-2.46875 L13.2656,-2.46875 L13.2656,-5.85938 L16.6563,-5.85938 z" fill-rule="nonzero" vector-effect="none"/></g><defs><clipPath id="clip252"><path d="M-33,-15 L38,-15 L38,20 L-33,20 L-33,-15 z"/></clipPath></defs><g clip-path="url(#clip252)" fill="#000000" fill-opacity="1" opacity="1" stroke="none" stroke-opacity="0" transform="matrix(0.7,0,0,0.7,495.5,90.5)"><path d="M22.5,-11.5 L22.5,-11.2969 C23.3281,-11.2344 23.5,-11.1406 23.5,-10.7656 C23.5,-10.5625 23.4531,-10.25 23.3594,-9.92188 L21.7813,-4.23438 C21.5625,-3.42188 21.4219,-3.29688 20.7031,-3.1875 L20.7031,-2.98438 L24.25,-2.98438 C26.3438,-2.98438 27.8125,-3.84375 27.8125,-5.59375 C27.8125,-6.51563 27.2969,-7.21875 26.1875,-7.54688 L26.1875,-7.5625 C26.7344,-7.6875 27.2188,-7.79688 27.625,-8.07813 C28.0938,-8.39063 28.4531,-8.84375 28.4531,-9.54688 C28.4531,-10.8438 27.5625,-11.5 25.75,-11.5 L22.5,-11.5 M24.0313,-7.71875 L24.8594,-10.6406 C24.9844,-11.1094 25.1094,-11.1094 25.625,-11.1094 C26.6719,-11.1094 27.1406,-10.6719 27.1406,-9.70313 C27.1406,-8.40625 26.2344,-7.71875 24.5313,-7.71875 L24.0313,-7.71875 M23.9063,-7.29688 C24.7188,-7.29688 25.2813,-7.23438 25.5469,-7.14063 C26.0313,-6.98438 26.4219,-6.40625 26.4219,-5.59375 C26.4219,-4.14063 25.4063,-3.375 23.9063,-3.375 C23.3594,-3.375 23.0313,-3.5625 23.0313,-3.92188 C23.0313,-4.09375 23.2344,-4.76563 23.4844,-5.75 L23.9063,-7.29688" fill-rule="nonzero" vector-effect="none"/></g><defs><clipPath id="clip253"><path d="M-33,-15 L38,-15 L38,20 L-33,20 L-33,-15 z"/></clipPath></defs><g clip-path="url(#clip253)" fill="#000000" fill-opacity="1" opacity="1" stroke="none" stroke-opacity="0" transform="matrix(0.7,0,0,0.7,495.5,90.5)"><path d="M34.75,-4.54688 C34.0781,-3.67188 33.875,-3.5 33.6719,-3.5 C33.5781,-3.5 33.5156,-3.57813 33.5156,-3.71875 C33.5156,-3.875 33.7031,-4.48438 33.7656,-4.73438 L34.7969,-8.60938 L33.8281,-8.60938 C33.2031,-6.875 33.0156,-6.375 32.4063,-5.45313 C31.5938,-4.23438 31,-3.54688 30.5625,-3.54688 C30.3594,-3.54688 30.2969,-3.67188 30.2969,-3.875 C30.2969,-3.92188 30.3281,-4.04688 30.3438,-4.07813 L31.5,-8.6875 L31.4375,-8.73438 C30.7031,-8.5625 30.2344,-8.46875 29.4844,-8.375 L29.4844,-8.20313 C29.9844,-8.20313 30.0313,-8.1875 30.1406,-8.125 C30.2188,-8.07813 30.2813,-7.98438 30.2813,-7.89063 C30.2813,-7.78125 30.2031,-7.45313 30.1094,-7.01563 L29.6406,-5.20313 C29.4063,-4.26563 29.2969,-3.79688 29.2969,-3.54688 C29.2969,-3.0625 29.5313,-2.85938 29.9844,-2.85938 C30.9063,-2.85938 31.5625,-3.54688 33.0938,-6.0625 C32.6719,-4.67188 32.5,-3.79688 32.5,-3.5 C32.5,-3.10938 32.7344,-2.89063 33.125,-2.89063 C33.75,-2.89063 34.0781,-3.14063 34.9219,-4.4375 L34.75,-4.54688 z" fill-rule="nonzero" vector-effect="none"/></g><defs><clipPath id="clip254"><path d="M-33,-15 L38,-15 L38,20 L-33,20 L-33,-15 z"/></clipPath></defs><g clip-path="url(#clip254)" fill="#000000" fill-opacity="1" opacity="1" stroke="none" stroke-opacity="0" transform="matrix(0.7,0,0,0.7,495.5,90.5)"><path d="M-27.9375,13.5781 C-28.1563,12.4219 -28.8438,10.2656 -29.0469,10.2656 L-29.0938,10.2656 C-29.7969,10.375 -30.2188,10.4531 -30.4844,10.5 C-30.6094,10.5313 -30.75,10.5469 -30.9063,10.5781 L-30.9063,10.7969 C-30.75,10.7656 -30.6406,10.75 -30.5,10.75 C-29.9688,10.75 -29.7344,10.9375 -29.5,11.5781 C-29.1406,12.4688 -28.4219,15.375 -28.4219,15.8906 C-28.4219,16.0313 -28.4844,16.1875 -28.5625,16.3438 C-28.6563,16.5156 -29.25,17.2813 -29.4844,17.5313 C-29.7813,17.8594 -29.9375,17.9688 -30.1094,17.9688 C-30.4375,17.9688 -30.4375,17.5938 -30.9063,17.5938 C-31.1875,17.5938 -31.4063,17.8281 -31.4063,18.125 C-31.4063,18.4531 -31.125,18.6719 -30.75,18.6719 C-30,18.6719 -28.6094,17.1875 -27.2656,14.9531 C-26.1719,13.1563 -25.5625,11.7188 -25.5625,10.9844 C-25.5625,10.5938 -25.8438,10.2656 -26.2344,10.2656 C-26.5313,10.2656 -26.75,10.4688 -26.75,10.75 C-26.75,10.9531 -26.6719,11.0781 -26.4063,11.25 C-26.1719,11.4063 -26.0781,11.4844 -26.0781,11.6719 C-26.0781,12.25 -26.5625,13.1719 -27.6563,15.0156 L-27.9375,13.5781 z" fill-rule="nonzero" vector-effect="none"/></g><defs><clipPath id="clip255"><path d="M-33,-15 L38,-15 L38,20 L-33,20 L-33,-15 z"/></clipPath></defs><g clip-path="url(#clip255)" fill="#000000" fill-opacity="1" opacity="1" stroke="none" stroke-opacity="0" transform="matrix(0.7,0,0,0.7,495.5,90.5)"><path d="M-13.4375,11.8438 L-13.4375,10.9844 L-21.0938,10.9844 L-21.0938,11.8438 L-13.4375,11.8438 M-13.4375,14.4375 L-13.4375,13.5781 L-21.0938,13.5781 L-21.0938,14.4375 L-13.4375,14.4375" fill-rule="nonzero" vector-effect="none"/></g><defs><clipPath id="clip256"><path d="M-33,-15 L38,-15 L38,20 L-33,20 L-33,-15 z"/></clipPath></defs><g clip-path="url(#clip256)" fill="#000000" fill-opacity="1" opacity="1" stroke="none" stroke-opacity="0" transform="matrix(0.7,0,0,0.7,495.5,90.5)"><path d="M-0.265625,7.375 L-0.53125,7.375 C-0.640625,7.57813 -0.765625,7.65625 -1.03125,7.65625 C-1.14063,7.65625 -1.29688,7.65625 -1.5625,7.5625 C-2.10938,7.375 -2.65625,7.34375 -3.07813,7.34375 C-4.10938,7.34375 -5.09375,7.6875 -5.92188,8.29688 C-7.35938,9.3125 -8.35938,11 -8.35938,12.8438 C-8.35938,14.9844 -6.95313,16.2344 -4.96875,16.2344 C-3.625,16.2344 -2.59375,15.6719 -1.42188,14.2969 L-1.65625,14.1094 C-2.78125,15.2656 -3.5625,15.6563 -4.625,15.6563 C-6.07813,15.6563 -6.90625,14.7969 -6.90625,12.9844 C-6.90625,11.5469 -6.4375,10.0781 -5.5,9.07813 C-4.78125,8.29688 -3.875,7.8125 -2.90625,7.8125 C-1.76563,7.8125 -1.125,8.53125 -0.96875,9.92188 L-0.75,9.96875 L-0.265625,7.375 z" fill-rule="nonzero" vector-effect="none"/></g><defs><clipPath id="clip257"><path d="M-33,-15 L38,-15 L38,20 L-33,20 L-33,-15 z"/></clipPath></defs><g clip-path="url(#clip257)" fill="#000000" fill-opacity="1" opacity="1" stroke="none" stroke-opacity="0" transform="matrix(0.7,0,0,0.7,495.5,90.5)"><path d="M2.59375,11.3906 C2.42188,10.5 2.26563,10.2656 1.9375,10.2656 C1.64063,10.2656 1.20313,10.3594 0.40625,10.6406 L0.265625,10.7031 L0.3125,10.9063 L0.546875,10.8438 C0.796875,10.7813 0.953125,10.75 1.04688,10.75 C1.375,10.75 1.46875,10.8594 1.64063,11.625 L2.01563,13.25 L0.953125,14.75 C0.671875,15.1406 0.421875,15.3906 0.28125,15.3906 C0.203125,15.3906 0.078125,15.3438 -0.0625,15.2656 C-0.21875,15.1875 -0.359375,15.125 -0.46875,15.125 C-0.734375,15.125 -0.90625,15.3438 -0.90625,15.5938 C-0.90625,15.9375 -0.671875,16.1406 -0.265625,16.1406 C0.140625,16.1406 0.40625,16.0313 0.96875,15.2656 L2.10938,13.7188 L2.5,15.2656 C2.65625,15.9063 2.84375,16.1406 3.26563,16.1406 C3.75,16.1406 4.09375,15.8281 4.84375,14.6563 L4.65625,14.5469 C4.54688,14.6719 4.5,14.75 4.375,14.9063 C4.07813,15.2969 3.9375,15.4219 3.76563,15.4219 C3.57813,15.4219 3.46875,15.2656 3.375,14.8906 L2.95313,13.1563 C2.875,12.8438 2.85938,12.6563 2.85938,12.5625 C3.42188,11.5625 3.89063,11 4.125,11 C4.4375,11 4.5625,11.2188 4.8125,11.2188 C5.0625,11.2188 5.25,11.0156 5.25,10.75 C5.25,10.4688 5.03125,10.2656 4.71875,10.2656 C4.14063,10.2656 3.65625,10.7344 2.75,12.125 L2.59375,11.3906 z" fill-rule="nonzero" vector-effect="none"/></g><defs><clipPath id="clip258"><path d="M-33,-15 L38,-15 L38,20 L-33,20 L-33,-15 z"/></clipPath></defs><g clip-path="url(#clip258)" fill="#000000" fill-opacity="1" opacity="1" stroke="none" stroke-opacity="0" transform="matrix(0.7,0,0,0.7,495.5,90.5)"><path d="M16.3438,13.1406 L16.3438,12.2813 L12.9531,12.2813 L12.9531,8.89063 L12.0938,8.89063 L12.0938,12.2813 L8.70313,12.2813 L8.70313,13.1406 L12.0938,13.1406 L12.0938,16.5313 L12.9531,16.5313 L12.9531,13.1406 L16.3438,13.1406 z" fill-rule="nonzero" vector-effect="none"/></g><defs><clipPath id="clip259"><path d="M-33,-15 L38,-15 L38,20 L-33,20 L-33,-15 z"/></clipPath></defs><g clip-path="url(#clip259)" fill="#000000" fill-opacity="1" opacity="1" stroke="none" stroke-opacity="0" transform="matrix(0.7,0,0,0.7,495.5,90.5)"><path d="M22.2031,7.5 L22.2031,7.70313 C23,7.73438 23.1875,7.89063 23.1875,8.23438 C23.1875,8.4375 23.1406,8.6875 23.0469,9.01563 L21.4688,14.8125 C21.25,15.5781 21.125,15.6719 20.3906,15.8125 L20.3906,16.0156 L23.7344,16.0156 C25.2656,16.0156 26.5781,15.6719 27.5156,14.9375 C28.7969,13.9375 29.5938,12.625 29.5938,11 C29.5938,8.71875 28.0781,7.5 25.7969,7.5 L22.2031,7.5 M24.5313,8.39063 C24.6563,7.9375 24.9531,7.89063 25.4375,7.89063 C26.1875,7.89063 26.7344,8.04688 27.1406,8.34375 C27.7813,8.82813 28.1563,9.65625 28.1563,10.6875 C28.1563,12.0156 27.6563,13.5469 26.7344,14.4531 C25.9219,15.2344 24.9063,15.625 23.5938,15.625 C23,15.625 22.7031,15.4844 22.7031,15.1406 C22.7031,14.9688 22.7813,14.7031 23,13.9063 L24.5313,8.39063" fill-rule="nonzero" vector-effect="none"/></g><defs><clipPath id="clip260"><path d="M-33,-15 L38,-15 L38,20 L-33,20 L-33,-15 z"/></clipPath></defs><g clip-path="url(#clip260)" fill="#000000" fill-opacity="1" opacity="1" stroke="none" stroke-opacity="0" transform="matrix(0.7,0,0,0.7,495.5,90.5)"><path d="M35.875,14.4531 C35.2031,15.3281 35,15.5 34.7969,15.5 C34.7031,15.5 34.6406,15.4219 34.6406,15.2813 C34.6406,15.125 34.8281,14.5156 34.8906,14.2656 L35.9219,10.3906 L34.9531,10.3906 C34.3281,12.125 34.1406,12.625 33.5313,13.5469 C32.7188,14.7656 32.125,15.4531 31.6875,15.4531 C31.4844,15.4531 31.4219,15.3281 31.4219,15.125 C31.4219,15.0781 31.4531,14.9531 31.4688,14.9219 L32.625,10.3125 L32.5625,10.2656 C31.8281,10.4375 31.3594,10.5313 30.6094,10.625 L30.6094,10.7969 C31.1094,10.7969 31.1563,10.8125 31.2656,10.875 C31.3438,10.9219 31.4063,11.0156 31.4063,11.1094 C31.4063,11.2188 31.3281,11.5469 31.2344,11.9844 L30.7656,13.7969 C30.5313,14.7344 30.4219,15.2031 30.4219,15.4531 C30.4219,15.9375 30.6563,16.1406 31.1094,16.1406 C32.0313,16.1406 32.6875,15.4531 34.2188,12.9375 C33.7969,14.3281 33.625,15.2031 33.625,15.5 C33.625,15.8906 33.8594,16.1094 34.25,16.1094 C34.875,16.1094 35.2031,15.8594 36.0469,14.5625 L35.875,14.4531 z" fill-rule="nonzero" vector-effect="none"/></g><defs><clipPath id="clip283"><path d="M-467.5,-75.5 L462.5,-75.5 L462.5,90.5 L-467.5,90.5 L-467.5,-75.5 z"/></clipPath></defs><g clip-path="url(#clip283)" fill="none" opacity="1" stroke="#000000" stroke-linecap="butt" stroke-linejoin="miter" stroke-miterlimit="2" stroke-opacity="1" stroke-width="1" transform="matrix(1,0,0,1,467.5,75.5)"><path d="M0,0 L60,0 L60,34 L0,34 L0,0 z" fill-rule="evenodd" vector-effect="none"/></g><defs><clipPath id="clip286"><path d="M-562,-60 L368,-60 L368,106 L-562,106 L-562,-60 z"/></clipPath></defs><g clip-path="url(#clip286)" fill="#ffffff" fill-opacity="1" opacity="1" stroke="none" stroke-opacity="0" transform="matrix(1,0,0,1,562,60)"><path d="M0,0 L5,0 L5,64 L0,64 L0,0 z" fill-rule="evenodd" vector-effect="none"/></g><defs><clipPath id="clip290"><path d="M800,158 L805,158 L805,222 L800,222 L800,158 z"/></clipPath></defs><g clip-path="url(#clip290)" fill="#000000" fill-opacity="1" opacity="1" stroke="none" stroke-opacity="0" transform="matrix(1,0,0,1,-238,-98)"><path d="M800,158 L805,158 L805,222 L800,222 L800,158 z" fill-rule="evenodd" vector-effect="none"/></g><defs><clipPath id="clip295"><path d="M-562.5,-60.5 L367.5,-60.5 L367.5,105.5 L-562.5,105.5 L-562.5,-60.5 z"/></clipPath></defs><g clip-path="url(#clip295)" fill="none" opacity="1" stroke="#000000" stroke-linecap="butt" stroke-linejoin="miter" stroke-miterlimit="2" stroke-opacity="1" stroke-width="1" transform="matrix(1,0,0,1,562.5,60.5)"><path d="M0,0 L5,0 L5,64 L0,64 L0,0 z" fill-rule="evenodd" vector-effect="none"/></g><defs><clipPath id="clip298"><path d="M-837,-17 L93,-17 L93,149 L-837,149 L-837,-17 z"/></clipPath></defs><g clip-path="url(#clip298)" fill="#000000" fill-opacity="1" opacity="1" stroke="none" stroke-opacity="0" transform="matrix(1,0,0,1,837,17)"><path d="M0,0 L-8,-4 L-8,4 L0,0 z" fill-rule="nonzero" vector-effect="none"/></g><defs><clipPath id="clip301"><path d="M238,98 L1168,98 L1168,264 L238,264 L238,98 z"/></clipPath></defs><g clip-path="url(#clip301)" fill="none" opacity="1" stroke="#000000" stroke-linecap="butt" stroke-linejoin="miter" stroke-miterlimit="2" stroke-opacity="1" stroke-width="1" transform="matrix(1,0,0,1,-238,-98)"><path d="M665.5,190.5 L665.5,115.5 L1067.5,115.5" fill-rule="evenodd" vector-effect="none"/></g><defs><clipPath id="clip304"><path d="M-467,-92 L463,-92 L463,74 L-467,74 L-467,-92 z"/></clipPath></defs><g clip-path="url(#clip304)" fill="#000000" fill-opacity="1" opacity="1" stroke="none" stroke-opacity="0" transform="matrix(1,0,0,1,467,92)"><path d="M0,0 L-8,-4 L-8,4 L0,0 z" fill-rule="nonzero" vector-effect="none"/></g><defs><clipPath id="clip307"><path d="M238,98 L1168,98 L1168,264 L238,264 L238,98 z"/></clipPath></defs><g clip-path="url(#clip307)" fill="none" opacity="1" stroke="#000000" stroke-linecap="butt" stroke-linejoin="miter" stroke-miterlimit="2" stroke-opacity="1" stroke-width="1" transform="matrix(1,0,0,1,-238,-98)"><path d="M665.5,190.5 L697.5,190.5" fill-rule="evenodd" vector-effect="none"/></g><defs><clipPath id="clip312"><path d="M238,98 L1168,98 L1168,264 L238,264 L238,98 z"/></clipPath></defs><g clip-path="url(#clip312)" fill="none" opacity="1" stroke="#000000" stroke-linecap="butt" stroke-linejoin="miter" stroke-miterlimit="2" stroke-opacity="1" stroke-width="1" transform="matrix(1,0,0,1,-238,-98)"><path d="M610.5,190.5 L665.5,190.5" fill-rule="evenodd" vector-effect="none"/></g><defs><clipPath id="clip318"><path d="M0,0 L32,0 L32,12 L0,12 L0,0 z"/></clipPath></defs><g clip-path="url(#clip318)" fill="none" opacity="1" stroke="#000000" stroke-linecap="square" stroke-linejoin="bevel" stroke-opacity="1" stroke-width="1" transform="matrix(1,0,0,1,377,93.5)"><text fill="#000000" fill-opacity="1" font-family="Arial" font-size="9" font-style="normal" font-weight="400" stroke="none" textLength="30.1875" x="1" xml:space="preserve" y="9">Fx (=U)</text></g><defs><clipPath id="clip326"><path d="M-427,-92 L503,-92 L503,74 L-427,74 L-427,-92 z"/></clipPath></defs><g clip-path="url(#clip326)" fill="#000000" fill-opacity="1" opacity="1" stroke="none" stroke-opacity="0" transform="matrix(1,0,0,1,427,92)"><path d="M3,0.5 C3,1.88071 1.88071,3 0.5,3 C-0.880712,3 -2,1.88071 -2,0.5 C-2,-0.880712 -0.880712,-2 0.5,-2 C1.88071,-2 3,-0.880712 3,0.5 z" fill-rule="evenodd" vector-effect="none"/></g><defs><clipPath id="clip329"><path d="M-657,-107 L273,-107 L273,59 L-657,59 L-657,-107 z"/></clipPath></defs><g clip-path="url(#clip329)" fill="#000000" fill-opacity="1" opacity="1" stroke="none" stroke-opacity="0" transform="matrix(1,0,0,1,657,107)"><path d="M0,0 L-8,-4 L-8,4 L0,0 z" fill-rule="nonzero" vector-effect="none"/></g><defs><clipPath id="clip332"><path d="M238,98 L1168,98 L1168,264 L238,264 L238,98 z"/></clipPath></defs><g clip-path="url(#clip332)" fill="none" opacity="1" stroke="#000000" stroke-linecap="butt" stroke-linejoin="miter" stroke-miterlimit="2" stroke-opacity="1" stroke-width="1" transform="matrix(1,0,0,1,-238,-98)"><path d="M805.5,205.5 L887.5,205.5" fill-rule="evenodd" vector-effect="none"/></g><defs><clipPath id="clip338"><path d="M0,0 L13,0 L13,12 L0,12 L0,0 z"/></clipPath></defs><g clip-path="url(#clip338)" fill="none" opacity="1" stroke="#000000" stroke-linecap="square" stroke-linejoin="bevel" stroke-opacity="1" stroke-width="1" transform="matrix(1,0,0,1,572,108.5)"><text fill="#000000" fill-opacity="1" font-family="Arial" font-size="9" font-style="normal" font-weight="400" stroke="none" textLength="10.9844" x="1" xml:space="preserve" y="9">xw</text></g><defs><clipPath id="clip346"><path d="M-562,-92 L368,-92 L368,74 L-562,74 L-562,-92 z"/></clipPath></defs><g clip-path="url(#clip346)" fill="#000000" fill-opacity="1" opacity="1" stroke="none" stroke-opacity="0" transform="matrix(1,0,0,1,562,92)"><path d="M0,0 L-8,-4 L-8,4 L0,0 z" fill-rule="nonzero" vector-effect="none"/></g><defs><clipPath id="clip349"><path d="M238,98 L1168,98 L1168,264 L238,264 L238,98 z"/></clipPath></defs><g clip-path="url(#clip349)" fill="none" opacity="1" stroke="#000000" stroke-linecap="butt" stroke-linejoin="miter" stroke-miterlimit="2" stroke-opacity="1" stroke-width="1" transform="matrix(1,0,0,1,-238,-98)"><path d="M765.5,190.5 L792.5,190.5" fill-rule="evenodd" vector-effect="none"/></g><defs><clipPath id="clip352"><path d="M102,-77 L102,853 L-64,853 L-64,-77 L102,-77 z"/></clipPath></defs><g clip-path="url(#clip352)" fill="#000000" fill-opacity="1" opacity="1" stroke="none" stroke-opacity="0" transform="matrix(6.12323e-17,-1,1,6.12323e-17,77,102)"><path d="M0,0 L-8,-4 L-8,4 L0,0 z" fill-rule="nonzero" vector-effect="none"/></g><defs><clipPath id="clip355"><path d="M238,98 L1168,98 L1168,264 L238,264 L238,98 z"/></clipPath></defs><g clip-path="url(#clip355)" fill="none" opacity="1" stroke="#000000" stroke-linecap="butt" stroke-linejoin="miter" stroke-miterlimit="2" stroke-opacity="1" stroke-width="1" transform="matrix(1,0,0,1,-238,-98)"><path d="M1039.5,175.5 L1039.5,262.5 L315.5,262.5 L315.5,208.5" fill-rule="evenodd" vector-effect="none"/></g><defs><clipPath id="clip358"><path d="M-837,-77 L93,-77 L93,89 L-837,89 L-837,-77 z"/></clipPath></defs><g clip-path="url(#clip358)" fill="#000000" fill-opacity="1" opacity="1" stroke="none" stroke-opacity="0" transform="matrix(1,0,0,1,837,77)"><path d="M0,0 L-8,-4 L-8,4 L0,0 z" fill-rule="nonzero" vector-effect="none"/></g><defs><clipPath id="clip361"><path d="M238,98 L1168,98 L1168,264 L238,264 L238,98 z"/></clipPath></defs><g clip-path="url(#clip361)" fill="none" opacity="1" stroke="#000000" stroke-linecap="butt" stroke-linejoin="miter" stroke-miterlimit="2" stroke-opacity="1" stroke-width="1" transform="matrix(1,0,0,1,-238,-98)"><path d="M1039.5,175.5 L1067.5,175.5" fill-rule="evenodd" vector-effect="none"/></g><defs><clipPath id="clip366"><path d="M238,98 L1168,98 L1168,264 L238,264 L238,98 z"/></clipPath></defs><g clip-path="url(#clip366)" fill="none" opacity="1" stroke="#000000" stroke-linecap="butt" stroke-linejoin="miter" stroke-miterlimit="2" stroke-opacity="1" stroke-width="1" transform="matrix(1,0,0,1,-238,-98)"><path d="M805.5,175.5 L1039.5,175.5" fill-rule="evenodd" vector-effect="none"/></g><defs><clipPath id="clip372"><path d="M0,0 L14,0 L14,12 L0,12 L0,0 z"/></clipPath></defs><g clip-path="url(#clip372)" fill="none" opacity="1" stroke="#000000" stroke-linecap="square" stroke-linejoin="bevel" stroke-opacity="1" stroke-width="1" transform="matrix(1,0,0,1,679.508,78.5)"><text fill="#000000" fill-opacity="1" font-family="Arial" font-size="9" font-style="normal" font-weight="400" stroke="none" textLength="11.9844" x="1" xml:space="preserve" y="9">phi</text></g><defs><clipPath id="clip380"><path d="M-801,-77 L129,-77 L129,89 L-801,89 L-801,-77 z"/></clipPath></defs><g clip-path="url(#clip380)" fill="#000000" fill-opacity="1" opacity="1" stroke="none" stroke-opacity="0" transform="matrix(1,0,0,1,801,77)"><path d="M3,0.5 C3,1.88071 1.88071,3 0.5,3 C-0.880712,3 -2,1.88071 -2,0.5 C-2,-0.880712 -0.880712,-2 0.5,-2 C1.88071,-2 3,-0.880712 3,0.5 z" fill-rule="evenodd" vector-effect="none"/></g><defs><clipPath id="clip383"><path d="M-67,-92 L863,-92 L863,74 L-67,74 L-67,-92 z"/></clipPath></defs><g clip-path="url(#clip383)" fill="#000000" fill-opacity="1" opacity="1" stroke="none" stroke-opacity="0" transform="matrix(1,0,0,1,67,92)"><path d="M0,0 L-8,-4 L-8,4 L0,0 z" fill-rule="nonzero" vector-effect="none"/></g><defs><clipPath id="clip386"><path d="M238,98 L1168,98 L1168,264 L238,264 L238,98 z"/></clipPath></defs><g clip-path="url(#clip386)" fill="none" opacity="1" stroke="#000000" stroke-linecap="butt" stroke-linejoin="miter" stroke-miterlimit="2" stroke-opacity="1" stroke-width="1" transform="matrix(1,0,0,1,-238,-98)"><path d="M270.5,190.5 L297.5,190.5" fill-rule="evenodd" vector-effect="none"/></g><defs><clipPath id="clip392"><path d="M0,0 L8,0 L8,12 L0,12 L0,0 z"/></clipPath></defs><g clip-path="url(#clip392)" fill="none" opacity="1" stroke="#000000" stroke-linecap="square" stroke-linejoin="bevel" stroke-opacity="1" stroke-width="1" transform="matrix(1,0,0,1,37,93.5)"><text fill="#000000" fill-opacity="1" font-family="Arial" font-size="9" font-style="normal" font-weight="400" stroke="none" textLength="6.48438" x="1" xml:space="preserve" y="9">w</text></g><defs><clipPath id="clip400"><path d="M-267,-92 L663,-92 L663,74 L-267,74 L-267,-92 z"/></clipPath></defs><g clip-path="url(#clip400)" fill="#000000" fill-opacity="1" opacity="1" stroke="none" stroke-opacity="0" transform="matrix(1,0,0,1,267,92)"><path d="M0,0 L-8,-4 L-8,4 L0,0 z" fill-rule="nonzero" vector-effect="none"/></g><defs><clipPath id="clip403"><path d="M238,98 L1168,98 L1168,264 L238,264 L238,98 z"/></clipPath></defs><g clip-path="url(#clip403)" fill="none" opacity="1" stroke="#000000" stroke-linecap="butt" stroke-linejoin="miter" stroke-miterlimit="2" stroke-opacity="1" stroke-width="1" transform="matrix(1,0,0,1,-238,-98)"><path d="M325.5,190.5 L497.5,190.5" fill-rule="evenodd" vector-effect="none"/></g><defs><clipPath id="clip409"><path d="M0,0 L7,0 L7,12 L0,12 L0,0 z"/></clipPath></defs><g clip-path="url(#clip409)" fill="none" opacity="1" stroke="#000000" stroke-linecap="square" stroke-linejoin="bevel" stroke-opacity="1" stroke-width="1" transform="matrix(1,0,0,1,168.5,93.5)"><text fill="#000000" fill-opacity="1" font-family="Arial" font-size="9" font-style="normal" font-weight="400" stroke="none" textLength="5" x="1" xml:space="preserve" y="9">e</text></g></g><!--generated on windows @ 2020-07-22 20:51:51 Mitteleuropische Sommerzeit--></svg>
