<?xml version="1.0" encoding="UTF-8"?><svg width="246.062mm" height="47.0958mm" viewBox="0 0 930 178" xmlns="http://www.w3.org/2000/svg" xmlns:xlink="http://www.w3.org/1999/xlink"><g fill="none" stroke="black" stroke-width="1" fill-rule="evenodd" stroke-linecap="square" stroke-linejoin="bevel"><g clip-path="none" fill="#ffffff" fill-opacity="1" opacity="1" stroke="none" stroke-opacity="0" transform="matrix(1,0,0,1,0,0)"><path d="M0,0 L930,0 L930,178 L0,178 L0,0 z" fill-rule="evenodd" vector-effect="none"/></g><defs><clipPath id="clip3"><path d="M-67,-82 L863,-82 L863,96 L-67,96 L-67,-82 z"/></clipPath></defs><g clip-path="url(#clip3)" fill="#ffffff" fill-opacity="1" opacity="1" stroke="none" stroke-opacity="0" transform="matrix(1,0,0,1,67,82)"><path d="M20,10 C20,15.5228 15.5228,20 10,20 C4.47715,20 0,15.5228 0,10 C0,4.47715 4.47715,0 10,0 C15.5228,0 20,4.47715 20,10 z" fill-rule="nonzero" vector-effect="none"/></g><defs><clipPath id="clip7"><path d="M85,225 L105,225 L105,245 L85,245 L85,225 z"/></clipPath></defs><g clip-path="url(#clip7)" fill="none" opacity="1" stroke="#000000" stroke-linecap="butt" stroke-linejoin="miter" stroke-miterlimit="2" stroke-opacity="1" stroke-width="1" transform="matrix(1,0,0,1,-17.5,-142.5)"><polyline fill="none" points="88,235 92,235" vector-effect="none"/></g><defs><clipPath id="clip8"><path d="M85,225 L105,225 L105,245 L85,245 L85,225 z"/></clipPath></defs><g clip-path="url(#clip8)" fill="none" opacity="1" stroke="#000000" stroke-linecap="butt" stroke-linejoin="miter" stroke-miterlimit="2" stroke-opacity="1" stroke-width="1" transform="matrix(1,0,0,1,-17.5,-142.5)"><polyline fill="none" points="90,233 90,237" vector-effect="none"/></g><defs><clipPath id="clip9"><path d="M85,225 L105,225 L105,245 L85,245 L85,225 z"/></clipPath></defs><g clip-path="url(#clip9)" fill="none" opacity="1" stroke="#000000" stroke-linecap="butt" stroke-linejoin="miter" stroke-miterlimit="2" stroke-opacity="1" stroke-width="1" transform="matrix(1,0,0,1,-17.5,-142.5)"><polyline fill="none" points="93,240 97,240" vector-effect="none"/></g><defs><clipPath id="clip14"><path d="M-67.5,-82.5 L862.5,-82.5 L862.5,95.5 L-67.5,95.5 L-67.5,-82.5 z"/></clipPath></defs><g clip-path="url(#clip14)" fill="none" opacity="1" stroke="#000000" stroke-linecap="butt" stroke-linejoin="miter" stroke-miterlimit="2" stroke-opacity="1" stroke-width="1" transform="matrix(1,0,0,1,67.5,82.5)"><path d="M20,10 C20,15.5228 15.5228,20 10,20 C4.47715,20 0,15.5228 0,10 C0,4.47715 4.47715,0 10,0 C15.5228,0 20,4.47715 20,10 z" fill-rule="nonzero" vector-effect="none"/></g><defs><clipPath id="clip17"><path d="M-2,-77 L928,-77 L928,101 L-2,101 L-2,-77 z"/></clipPath></defs><g clip-path="url(#clip17)" fill="#ffffff" fill-opacity="1" opacity="1" stroke="none" stroke-opacity="0" transform="matrix(1,0,0,1,2,77)"><path d="M0,0 L30,0 L30,30 L0,30 L0,0 z" fill-rule="evenodd" vector-effect="none"/></g><defs><clipPath id="clip21"><path d="M0,0 L31,0 L31,31 L0,31 L0,0 z"/></clipPath></defs><g clip-path="url(#clip21)" fill="none" opacity="1" stroke="none" stroke-opacity="0" transform="matrix(1,0,0,1,2,77)"><path d="M0,0 L31,0 L31,31 L0,31 L0,0 z" fill-rule="evenodd" vector-effect="none"/></g><defs><clipPath id="clip31"><path d="M0,0 L30,0 L30,30 L0,30 L0,0 z"/></clipPath></defs><g clip-path="url(#clip31)" fill="#000000" fill-opacity="1" opacity="1" stroke="none" stroke-opacity="0" transform="matrix(1,0,0,1,2,77)"><path d="M12.6406,14.0469 C12.6406,13.2031 12.7266,12.5234 12.8984,12.0078 C13.0703,11.4922 13.3281,11.0938 13.6719,10.8125 C14.0156,10.5313 14.4479,10.3906 14.9688,10.3906 C15.3542,10.3906 15.6901,10.4688 15.9766,10.625 C16.263,10.7813 16.5026,11.0052 16.6953,11.2969 C16.888,11.5885 17.0365,11.9427 17.1406,12.3594 C17.2448,12.776 17.2969,13.3385 17.2969,14.0469 C17.2969,14.8906 17.2109,15.5703 17.0391,16.0859 C16.8672,16.6016 16.6094,17 16.2656,17.2813 C15.9219,17.5625 15.4896,17.7031 14.9688,17.7031 C14.2813,17.7031 13.7396,17.4531 13.3438,16.9531 C12.875,16.3594 12.6406,15.3906 12.6406,14.0469 M13.5313,14.0469 C13.5313,15.224 13.6693,16.0078 13.9453,16.3984 C14.2214,16.7891 14.5625,16.9844 14.9688,16.9844 C15.375,16.9844 15.7161,16.7891 15.9922,16.3984 C16.2682,16.0078 16.4063,15.224 16.4063,14.0469 C16.4063,12.8698 16.2682,12.0885 15.9922,11.7031 C15.7161,11.3177 15.3698,11.125 14.9531,11.125 C14.5573,11.125 14.2344,11.2917 13.9844,11.625 C13.6823,12.0625 13.5313,12.8698 13.5313,14.0469" fill-rule="nonzero" vector-effect="none"/></g><defs><clipPath id="clip51"><path d="M-2.5,-77.5 L927.5,-77.5 L927.5,100.5 L-2.5,100.5 L-2.5,-77.5 z"/></clipPath></defs><g clip-path="url(#clip51)" fill="none" opacity="1" stroke="#000000" stroke-linecap="butt" stroke-linejoin="miter" stroke-miterlimit="2" stroke-opacity="1" stroke-width="1" transform="matrix(1,0,0,1,2.5,77.5)"><path d="M0,0 L30,0 L30,30 L0,30 L0,0 z" fill-rule="evenodd" vector-effect="none"/></g><defs><clipPath id="clip54"><path d="M-297,-66 L633,-66 L633,112 L-297,112 L-297,-66 z"/></clipPath></defs><g clip-path="url(#clip54)" fill="#ffffff" fill-opacity="1" opacity="1" stroke="none" stroke-opacity="0" transform="matrix(1,0,0,1,297,66)"><path d="M0,0 L180,0 L180,52 L0,52 L0,0 z" fill-rule="evenodd" vector-effect="none"/></g><defs><clipPath id="clip58"><path d="M0,0 L181,0 L181,53 L0,53 L0,0 z"/></clipPath></defs><g clip-path="url(#clip58)" fill="none" opacity="1" stroke="none" stroke-opacity="0" transform="matrix(1,0,0,1,297,66)"><path d="M0,0 L181,0 L181,53 L0,53 L0,0 z" fill-rule="evenodd" vector-effect="none"/></g><defs><clipPath id="clip69"><path d="M-54,-13 L58,-13 L58,18 L-54,18 L-54,-13 z"/></clipPath></defs><g clip-path="url(#clip69)" fill="#000000" fill-opacity="1" opacity="1" stroke="none" stroke-opacity="0" transform="matrix(1,0,0,1,384.5,89.5)"><path d="M-53,2 L56,2 L56,3 L-53,3 L-53,2 z" fill-rule="evenodd" vector-effect="none"/></g><defs><clipPath id="clip70"><path d="M-54,-13 L58,-13 L58,18 L-54,18 L-54,-13 z"/></clipPath></defs><g clip-path="url(#clip70)" fill="#000000" fill-opacity="1" opacity="1" stroke="none" stroke-opacity="0" transform="matrix(1,0,0,1,384.5,89.5)"><path d="M-30.7188,-3.54688 C-31.3906,-2.67188 -31.5938,-2.5 -31.7969,-2.5 C-31.8906,-2.5 -31.9531,-2.57813 -31.9531,-2.71875 C-31.9531,-2.875 -31.7656,-3.48438 -31.7031,-3.73438 L-30.6719,-7.60938 L-31.6406,-7.60938 C-32.2656,-5.875 -32.4531,-5.375 -33.0625,-4.45313 C-33.875,-3.23438 -34.4688,-2.54688 -34.9063,-2.54688 C-35.1094,-2.54688 -35.1719,-2.67188 -35.1719,-2.875 C-35.1719,-2.92188 -35.1406,-3.04688 -35.125,-3.07813 L-33.9688,-7.6875 L-34.0313,-7.73438 C-34.7656,-7.5625 -35.2344,-7.46875 -35.9844,-7.375 L-35.9844,-7.20313 C-35.4844,-7.20313 -35.4375,-7.1875 -35.3281,-7.125 C-35.25,-7.07813 -35.1875,-6.98438 -35.1875,-6.89063 C-35.1875,-6.78125 -35.2656,-6.45313 -35.3594,-6.01563 L-35.8281,-4.20313 C-36.0625,-3.26563 -36.1719,-2.79688 -36.1719,-2.54688 C-36.1719,-2.0625 -35.9375,-1.85938 -35.4844,-1.85938 C-34.5625,-1.85938 -33.9063,-2.54688 -32.375,-5.0625 C-32.7969,-3.67188 -32.9688,-2.79688 -32.9688,-2.5 C-32.9688,-2.10938 -32.7344,-1.89063 -32.3438,-1.89063 C-31.7188,-1.89063 -31.3906,-2.14063 -30.5469,-3.4375 L-30.7188,-3.54688 z" fill-rule="nonzero" vector-effect="none"/></g><defs><clipPath id="clip71"><path d="M-54,-13 L58,-13 L58,18 L-54,18 L-54,-13 z"/></clipPath></defs><g clip-path="url(#clip71)" fill="#000000" fill-opacity="1" opacity="1" stroke="none" stroke-opacity="0" transform="matrix(1,0,0,1,384.5,89.5)"><path d="M-24.5313,-11.25 L-28.9531,0.984375 C-29.0156,1.16146 -29.1094,1.25 -29.2344,1.25 C-29.401,1.25 -29.4844,1.16146 -29.4844,0.984375 C-29.4844,0.953125 -29.4635,0.875 -29.4219,0.75 L-25,-11.4844 C-24.9375,-11.6615 -24.8438,-11.75 -24.7188,-11.75 C-24.5417,-11.75 -24.4531,-11.6615 -24.4531,-11.4844 C-24.4531,-11.4531 -24.4792,-11.375 -24.5313,-11.25 z" fill-rule="nonzero" vector-effect="none"/></g><defs><clipPath id="clip72"><path d="M-54,-13 L58,-13 L58,18 L-54,18 L-54,-13 z"/></clipPath></defs><g clip-path="url(#clip72)" fill="#000000" fill-opacity="1" opacity="1" stroke="none" stroke-opacity="0" transform="matrix(1,0,0,1,384.5,89.5)"><path d="M-21.4375,-4.89063 L-20.7188,-7.6875 L-20.75,-7.71875 L-22.7656,-7.375 L-22.7656,-7.14063 C-22.5781,-7.17188 -22.4688,-7.1875 -22.3594,-7.1875 C-22.1094,-7.1875 -21.875,-7.125 -21.875,-6.84375 C-21.875,-6.57813 -21.9063,-6.45313 -22.0781,-5.78125 L-23.1406,-1.98438 L-22.1406,-1.98438 C-21.5,-4.17188 -21.2656,-4.6875 -20.7031,-5.65625 C-20.2344,-6.45313 -19.875,-6.875 -19.6406,-6.875 C-19.5469,-6.875 -19.5,-6.82813 -19.4219,-6.6875 C-19.3125,-6.5 -19.2031,-6.35938 -18.9688,-6.35938 C-18.5781,-6.35938 -18.3594,-6.67188 -18.3594,-7.0625 C-18.3594,-7.45313 -18.6094,-7.71875 -18.9688,-7.71875 C-19.2656,-7.71875 -19.6563,-7.48438 -20,-7.14063 C-20.5313,-6.57813 -20.9688,-5.89063 -21.2188,-5.34375 L-21.4375,-4.89063 z" fill-rule="nonzero" vector-effect="none"/></g><defs><clipPath id="clip73"><path d="M-54,-13 L58,-13 L58,18 L-54,18 L-54,-13 z"/></clipPath></defs><g clip-path="url(#clip73)" fill="#000000" fill-opacity="1" opacity="1" stroke="none" stroke-opacity="0" transform="matrix(1,0,0,1,384.5,89.5)"><path d="M-9.21875,-6.375 C-9.21875,-6.65625 -9.40625,-6.92188 -9.6875,-6.92188 C-9.78125,-6.92188 -9.85938,-6.90625 -9.96875,-6.84375 C-10.3125,-6.64063 -10.6719,-5.95313 -11.6094,-5.45313 C-11.6094,-6.35938 -11.2344,-7.20313 -11.2344,-7.60938 C-11.2344,-7.875 -11.4844,-8.125 -11.7188,-8.125 C-11.9688,-8.125 -12.2188,-7.875 -12.2188,-7.60938 C-12.2188,-7.20313 -11.8438,-6.34375 -11.8438,-5.4375 C-12.5781,-5.82813 -13.1563,-6.625 -13.5313,-6.84375 C-13.6406,-6.90625 -13.7188,-6.92188 -13.8125,-6.92188 C-14.0938,-6.92188 -14.2813,-6.65625 -14.2813,-6.375 C-14.2813,-6.23438 -14.1875,-6.09375 -14.0313,-5.98438 C-13.6563,-5.76563 -12.6563,-5.64063 -11.9844,-5.25 C-12.6563,-4.85938 -13.625,-4.73438 -13.9688,-4.53125 C-14.1719,-4.42188 -14.25,-4.20313 -14.25,-4.03125 C-14.25,-3.8125 -14.0781,-3.60938 -13.7656,-3.60938 C-13.6406,-3.60938 -13.5313,-3.65625 -13.4219,-3.71875 C-13.125,-3.875 -12.5156,-4.6875 -11.8438,-5.07813 C-11.8438,-4.1875 -12.2188,-3.375 -12.2188,-2.96875 C-12.2188,-2.70313 -11.9688,-2.42188 -11.7188,-2.42188 C-11.4844,-2.42188 -11.2344,-2.70313 -11.2344,-2.96875 C-11.2344,-3.375 -11.6094,-4.1875 -11.6094,-5.07813 C-10.6094,-4.51563 -10.2813,-3.59375 -9.75,-3.59375 C-9.42188,-3.59375 -9.23438,-3.84375 -9.23438,-4.10938 C-9.23438,-4.26563 -9.32813,-4.42188 -9.51563,-4.51563 C-9.85938,-4.73438 -10.7031,-4.76563 -11.5156,-5.25 C-10.5781,-5.78125 -9.82813,-5.78125 -9.5,-5.98438 C-9.3125,-6.07813 -9.21875,-6.23438 -9.21875,-6.375 z" fill-rule="nonzero" vector-effect="none"/></g><defs><clipPath id="clip74"><path d="M-54,-13 L58,-13 L58,18 L-54,18 L-54,-13 z"/></clipPath></defs><g clip-path="url(#clip74)" fill="#000000" fill-opacity="1" opacity="1" stroke="none" stroke-opacity="0" transform="matrix(1,0,0,1,384.5,89.5)"><path d="M1.5625,-10.5 L-1.75,-10.5 L-1.75,-10.2969 C-0.921875,-10.2188 -0.75,-10.1094 -0.75,-9.76563 C-0.75,-9.5625 -0.796875,-9.29688 -0.90625,-8.92188 L-2.54688,-3.01563 C-2.70313,-2.5 -2.9375,-2.1875 -3.23438,-2.1875 C-3.54688,-2.1875 -3.70313,-2.32813 -3.70313,-2.6875 C-3.70313,-2.8125 -3.65625,-2.89063 -3.65625,-3.04688 C-3.65625,-3.35938 -3.96875,-3.64063 -4.32813,-3.64063 C-4.67188,-3.64063 -4.90625,-3.32813 -4.90625,-2.90625 C-4.90625,-2.21875 -4.29688,-1.76563 -3.39063,-1.76563 C-2.71875,-1.76563 -2.15625,-1.98438 -1.76563,-2.48438 C-1.4375,-2.92188 -1.125,-3.5625 -0.84375,-4.54688 L0.484375,-9.32813 C0.703125,-10.1094 0.8125,-10.1875 1.5625,-10.2969 L1.5625,-10.5 z" fill-rule="nonzero" vector-effect="none"/></g><defs><clipPath id="clip75"><path d="M-54,-13 L58,-13 L58,18 L-54,18 L-54,-13 z"/></clipPath></defs><g clip-path="url(#clip75)" fill="#000000" fill-opacity="1" opacity="1" stroke="none" stroke-opacity="0" transform="matrix(1,0,0,1,384.5,89.5)"><path d="M7.90625,-11.25 L3.48438,0.984375 C3.42188,1.16146 3.32813,1.25 3.20313,1.25 C3.03646,1.25 2.95313,1.16146 2.95313,0.984375 C2.95313,0.953125 2.97396,0.875 3.01563,0.75 L7.4375,-11.4844 C7.5,-11.6615 7.59375,-11.75 7.71875,-11.75 C7.89583,-11.75 7.98438,-11.6615 7.98438,-11.4844 C7.98438,-11.4531 7.95833,-11.375 7.90625,-11.25 z" fill-rule="nonzero" vector-effect="none"/></g><defs><clipPath id="clip76"><path d="M-54,-13 L58,-13 L58,18 L-54,18 L-54,-13 z"/></clipPath></defs><g clip-path="url(#clip76)" fill="#000000" fill-opacity="1" opacity="1" stroke="none" stroke-opacity="0" transform="matrix(1,0,0,1,384.5,89.5)"><path d="M12.8125,-7.5625 C12.8281,-7.60938 12.8438,-7.6875 12.8438,-7.6875 C12.8438,-7.70313 12.8125,-7.73438 12.7656,-7.73438 L10.75,-7.45313 L10.7656,-7.25 L11.0625,-7.25 C11.2656,-7.25 11.625,-7.21875 11.625,-6.90625 C11.625,-6.84375 11.5625,-6.5 11.4219,-5.98438 L9.92188,-0.359375 C9.76563,0.25 9.59375,0.4375 9.04688,0.453125 L9.04688,0.671875 L11.6875,0.671875 L11.6875,0.453125 C11.0625,0.453125 10.875,0.359375 10.875,0.078125 C10.875,-0.109375 11.1719,-1.17188 11.3906,-2.07813 C11.7188,-1.90625 11.9844,-1.85938 12.2969,-1.85938 C14.1875,-1.85938 16.1563,-3.96875 16.1563,-6.10938 C16.1563,-7.125 15.625,-7.73438 14.6563,-7.73438 C13.875,-7.73438 13.1406,-7.3125 12.4375,-6.26563 L12.8125,-7.5625 M14.9844,-6.0625 C14.9844,-5.15625 14.7031,-4.20313 14.0781,-3.34375 C13.5156,-2.53125 12.8906,-2.10938 12.2031,-2.10938 C11.8281,-2.10938 11.5781,-2.3125 11.5781,-2.59375 C11.5781,-3.04688 12.0469,-4.71875 12.4219,-5.6875 C12.7188,-6.46875 13.4844,-7.17188 14.1719,-7.17188 C14.7656,-7.17188 14.9844,-6.8125 14.9844,-6.0625" fill-rule="nonzero" vector-effect="none"/></g><defs><clipPath id="clip77"><path d="M-54,-13 L58,-13 L58,18 L-54,18 L-54,-13 z"/></clipPath></defs><g clip-path="url(#clip77)" fill="#000000" fill-opacity="1" opacity="1" stroke="none" stroke-opacity="0" transform="matrix(1,0,0,1,384.5,89.5)"><path d="M21.3281,-7.75 L21.1406,-7.75 C21.0313,-7.5625 20.9375,-7.51563 20.75,-7.51563 C20.6406,-7.51563 20.5313,-7.53125 20.2813,-7.60938 C19.9531,-7.6875 19.7813,-7.73438 19.5469,-7.73438 C18.5938,-7.73438 17.9844,-7.1875 17.9844,-6.32813 C17.9844,-5.90625 18.2344,-5.32813 18.7969,-4.625 C19.3125,-3.98438 19.5313,-3.54688 19.5313,-3.125 C19.5313,-2.5 19.1563,-2.125 18.5313,-2.125 C17.8594,-2.125 17.4219,-2.65625 17.2344,-3.89063 L17.0313,-3.89063 L16.7656,-1.82813 L16.9844,-1.82813 C17.0625,-2.03125 17.2188,-2.10938 17.3594,-2.10938 C17.5,-2.10938 17.6875,-2.09375 17.9219,-1.98438 C18.2344,-1.875 18.4219,-1.85938 18.6406,-1.85938 C19.7188,-1.85938 20.5156,-2.51563 20.5156,-3.59375 C20.5156,-4.10938 20.2813,-4.60938 19.625,-5.35938 C19.125,-5.96875 18.9219,-6.34375 18.9219,-6.6875 C18.9219,-7.17188 19.2344,-7.4375 19.7031,-7.4375 C20.3281,-7.4375 20.7188,-7 20.8594,-5.92188 L21.0625,-5.92188 L21.3281,-7.75 z" fill-rule="nonzero" vector-effect="none"/></g><defs><clipPath id="clip78"><path d="M-54,-13 L58,-13 L58,18 L-54,18 L-54,-13 z"/></clipPath></defs><g clip-path="url(#clip78)" fill="#000000" fill-opacity="1" opacity="1" stroke="none" stroke-opacity="0" transform="matrix(1,0,0,1,384.5,89.5)"><path d="M25.0469,-9.78125 C25.0469,-10.1719 24.75,-10.5 24.3906,-10.5 C24.0469,-10.5 23.7813,-10.2188 23.7813,-9.8125 C23.7813,-9.39063 24.0313,-9.125 24.4063,-9.125 C24.75,-9.125 25.0469,-9.42188 25.0469,-9.78125 M24.5,-3.48438 C23.9375,-2.73438 23.625,-2.46875 23.4063,-2.46875 C23.2969,-2.46875 23.2188,-2.53125 23.2188,-2.65625 C23.2188,-2.84375 23.2813,-3.01563 23.3438,-3.23438 L24.5781,-7.6875 L24.5156,-7.73438 C23.2031,-7.48438 22.9531,-7.45313 22.4375,-7.40625 L22.4375,-7.20313 C23.1406,-7.1875 23.2813,-7.14063 23.2813,-6.89063 C23.2813,-6.78125 23.2188,-6.54688 23.1563,-6.3125 L22.5313,-4.01563 C22.3438,-3.28125 22.25,-2.82813 22.25,-2.57813 C22.25,-2.09375 22.4531,-1.85938 22.8906,-1.85938 C23.5313,-1.85938 23.9531,-2.25 24.6719,-3.34375 L24.5,-3.48438" fill-rule="nonzero" vector-effect="none"/></g><defs><clipPath id="clip79"><path d="M-54,-13 L58,-13 L58,18 L-54,18 L-54,-13 z"/></clipPath></defs><g clip-path="url(#clip79)" fill="#000000" fill-opacity="1" opacity="1" stroke="none" stroke-opacity="0" transform="matrix(1,0,0,1,384.5,89.5)"><path d="M30.7344,-5.29688 C30.7344,-5.70313 30.375,-6.0625 29.9688,-6.0625 C29.5313,-6.0625 29.1719,-5.67188 29.1719,-5.29688 C29.1719,-4.90625 29.5313,-4.51563 29.9688,-4.51563 C30.375,-4.51563 30.7344,-4.875 30.7344,-5.29688 z" fill-rule="nonzero" vector-effect="none"/></g><defs><clipPath id="clip80"><path d="M-54,-13 L58,-13 L58,18 L-54,18 L-54,-13 z"/></clipPath></defs><g clip-path="url(#clip80)" fill="#000000" fill-opacity="1" opacity="1" stroke="none" stroke-opacity="0" transform="matrix(1,0,0,1,384.5,89.5)"><path d="M39.4375,-7.75 L39.25,-7.75 C39.1406,-7.5625 39.0469,-7.51563 38.8594,-7.51563 C38.75,-7.51563 38.6406,-7.53125 38.3906,-7.60938 C38.0625,-7.6875 37.8906,-7.73438 37.6563,-7.73438 C36.7031,-7.73438 36.0938,-7.1875 36.0938,-6.32813 C36.0938,-5.90625 36.3438,-5.32813 36.9063,-4.625 C37.4219,-3.98438 37.6406,-3.54688 37.6406,-3.125 C37.6406,-2.5 37.2656,-2.125 36.6406,-2.125 C35.9688,-2.125 35.5313,-2.65625 35.3438,-3.89063 L35.1406,-3.89063 L34.875,-1.82813 L35.0938,-1.82813 C35.1719,-2.03125 35.3281,-2.10938 35.4688,-2.10938 C35.6094,-2.10938 35.7969,-2.09375 36.0313,-1.98438 C36.3438,-1.875 36.5313,-1.85938 36.75,-1.85938 C37.8281,-1.85938 38.625,-2.51563 38.625,-3.59375 C38.625,-4.10938 38.3906,-4.60938 37.7344,-5.35938 C37.2344,-5.96875 37.0313,-6.34375 37.0313,-6.6875 C37.0313,-7.17188 37.3438,-7.4375 37.8125,-7.4375 C38.4375,-7.4375 38.8281,-7 38.9688,-5.92188 L39.1719,-5.92188 L39.4375,-7.75 z" fill-rule="nonzero" vector-effect="none"/></g><defs><clipPath id="clip81"><path d="M-54,-13 L58,-13 L58,18 L-54,18 L-54,-13 z"/></clipPath></defs><g clip-path="url(#clip81)" fill="#000000" fill-opacity="1" opacity="1" stroke="none" stroke-opacity="0" transform="matrix(1,0,0,1,384.5,89.5)"><path d="M-45.9688,5.5 L-49.2813,5.5 L-49.2813,5.70313 C-48.4531,5.78125 -48.2813,5.89063 -48.2813,6.23438 C-48.2813,6.4375 -48.3281,6.70313 -48.4375,7.07813 L-50.0781,12.9844 C-50.2344,13.5 -50.4688,13.8125 -50.7656,13.8125 C-51.0781,13.8125 -51.2344,13.6719 -51.2344,13.3125 C-51.2344,13.1875 -51.1875,13.1094 -51.1875,12.9531 C-51.1875,12.6406 -51.5,12.3594 -51.8594,12.3594 C-52.2031,12.3594 -52.4375,12.6719 -52.4375,13.0938 C-52.4375,13.7813 -51.8281,14.2344 -50.9219,14.2344 C-50.25,14.2344 -49.6875,14.0156 -49.2969,13.5156 C-48.9688,13.0781 -48.6563,12.4375 -48.375,11.4531 L-47.0469,6.67188 C-46.8281,5.89063 -46.7188,5.8125 -45.9688,5.70313 L-45.9688,5.5 z" fill-rule="nonzero" vector-effect="none"/></g><defs><clipPath id="clip82"><path d="M-54,-13 L58,-13 L58,18 L-54,18 L-54,-13 z"/></clipPath></defs><g clip-path="url(#clip82)" fill="#000000" fill-opacity="1" opacity="1" stroke="none" stroke-opacity="0" transform="matrix(1,0,0,1,384.5,89.5)"><path d="M-36.4844,9.625 C-36.4844,9.34375 -36.6719,9.07813 -36.9531,9.07813 C-37.0469,9.07813 -37.125,9.09375 -37.2344,9.15625 C-37.5781,9.35938 -37.9375,10.0469 -38.875,10.5469 C-38.875,9.64063 -38.5,8.79688 -38.5,8.39063 C-38.5,8.125 -38.75,7.875 -38.9844,7.875 C-39.2344,7.875 -39.4844,8.125 -39.4844,8.39063 C-39.4844,8.79688 -39.1094,9.65625 -39.1094,10.5625 C-39.8438,10.1719 -40.4219,9.375 -40.7969,9.15625 C-40.9063,9.09375 -40.9844,9.07813 -41.0781,9.07813 C-41.3594,9.07813 -41.5469,9.34375 -41.5469,9.625 C-41.5469,9.76563 -41.4531,9.90625 -41.2969,10.0156 C-40.9219,10.2344 -39.9219,10.3594 -39.25,10.75 C-39.9219,11.1406 -40.8906,11.2656 -41.2344,11.4688 C-41.4375,11.5781 -41.5156,11.7969 -41.5156,11.9688 C-41.5156,12.1875 -41.3438,12.3906 -41.0313,12.3906 C-40.9063,12.3906 -40.7969,12.3438 -40.6875,12.2813 C-40.3906,12.125 -39.7813,11.3125 -39.1094,10.9219 C-39.1094,11.8125 -39.4844,12.625 -39.4844,13.0313 C-39.4844,13.2969 -39.2344,13.5781 -38.9844,13.5781 C-38.75,13.5781 -38.5,13.2969 -38.5,13.0313 C-38.5,12.625 -38.875,11.8125 -38.875,10.9219 C-37.875,11.4844 -37.5469,12.4063 -37.0156,12.4063 C-36.6875,12.4063 -36.5,12.1563 -36.5,11.8906 C-36.5,11.7344 -36.5938,11.5781 -36.7813,11.4844 C-37.125,11.2656 -37.9688,11.2344 -38.7813,10.75 C-37.8438,10.2188 -37.0938,10.2188 -36.7656,10.0156 C-36.5781,9.92188 -36.4844,9.76563 -36.4844,9.625 z" fill-rule="nonzero" vector-effect="none"/></g><defs><clipPath id="clip83"><path d="M-54,-13 L58,-13 L58,18 L-54,18 L-54,-13 z"/></clipPath></defs><g clip-path="url(#clip83)" fill="#000000" fill-opacity="1" opacity="1" stroke="none" stroke-opacity="0" transform="matrix(1,0,0,1,384.5,89.5)"><path d="M-30.375,5.5 L-30.375,5.70313 C-29.8281,5.78125 -29.7813,5.79688 -29.6406,5.89063 C-29.5469,5.95313 -29.4531,6.10938 -29.4531,6.25 C-29.4531,6.46875 -29.5156,6.71875 -29.6094,7.07813 L-31.1563,12.7031 C-31.3594,13.4688 -31.5469,13.7188 -32.2656,13.8125 L-32.2656,14.0156 L-29.1094,14.0156 L-29.1094,13.8125 C-29.8438,13.7344 -29.9688,13.5781 -29.9688,13.1875 C-29.9688,13.0625 -29.9531,12.875 -29.8125,12.375 L-29.0938,9.71875 L-28.2344,9.78125 L-26.6406,14.0156 L-24.7188,14.0156 L-24.7188,13.8125 C-25.3125,13.8125 -25.5625,13.5 -25.8594,12.7344 L-27.0156,9.67188 C-26.1406,9.46875 -25.7031,9.3125 -25.3125,9 C-24.7813,8.59375 -24.4531,7.96875 -24.4531,7.32813 C-24.4531,6.23438 -25.3906,5.5 -27.0938,5.5 L-30.375,5.5 M-28.1094,6.28125 C-28.0469,6.03125 -27.7813,5.89063 -27.375,5.89063 C-26.3594,5.89063 -25.8125,6.45313 -25.8125,7.34375 C-25.8125,8.5625 -26.7188,9.3125 -28.2656,9.3125 C-28.5,9.3125 -28.6094,9.29688 -28.9375,9.23438 L-28.1094,6.28125" fill-rule="nonzero" vector-effect="none"/></g><defs><clipPath id="clip84"><path d="M-54,-13 L58,-13 L58,18 L-54,18 L-54,-13 z"/></clipPath></defs><g clip-path="url(#clip84)" fill="#000000" fill-opacity="1" opacity="1" stroke="none" stroke-opacity="0" transform="matrix(1,0,0,1,384.5,89.5)"><path d="M-18.4688,4.75 L-22.8906,16.9844 C-22.9531,17.1615 -23.0469,17.25 -23.1719,17.25 C-23.3385,17.25 -23.4219,17.1615 -23.4219,16.9844 C-23.4219,16.9531 -23.401,16.875 -23.3594,16.75 L-18.9375,4.51563 C-18.875,4.33854 -18.7813,4.25 -18.6563,4.25 C-18.4792,4.25 -18.3906,4.33854 -18.3906,4.51563 C-18.3906,4.54688 -18.4167,4.625 -18.4688,4.75 z" fill-rule="nonzero" vector-effect="none"/></g><defs><clipPath id="clip85"><path d="M-54,-13 L58,-13 L58,18 L-54,18 L-54,-13 z"/></clipPath></defs><g clip-path="url(#clip85)" fill="#000000" fill-opacity="1" opacity="1" stroke="none" stroke-opacity="0" transform="matrix(1,0,0,1,384.5,89.5)"><path d="M-13.3594,16.2188 C-13.3594,16.3021 -13.401,16.3438 -13.4844,16.3438 C-13.599,16.3438 -13.8542,16.1563 -14.25,15.7813 C-14.75,15.3021 -15.1719,14.7552 -15.5156,14.1406 C-16.0885,13.0885 -16.375,11.8698 -16.375,10.4844 C-16.375,9.17188 -16.099,7.98438 -15.5469,6.92188 C-15.224,6.28646 -14.8021,5.71875 -14.2813,5.21875 C-13.875,4.83333 -13.6094,4.64063 -13.4844,4.64063 C-13.401,4.64063 -13.3594,4.67708 -13.3594,4.75 C-13.3594,4.79167 -13.4115,4.85938 -13.5156,4.95313 C-14.9115,6.21354 -15.6094,8.05729 -15.6094,10.4844 C-15.6094,12.901 -14.9323,14.7292 -13.5781,15.9688 C-13.4323,16.1042 -13.3594,16.1875 -13.3594,16.2188 z" fill-rule="nonzero" vector-effect="none"/></g><defs><clipPath id="clip86"><path d="M-54,-13 L58,-13 L58,18 L-54,18 L-54,-13 z"/></clipPath></defs><g clip-path="url(#clip86)" fill="#000000" fill-opacity="1" opacity="1" stroke="none" stroke-opacity="0" transform="matrix(1,0,0,1,384.5,89.5)"><path d="M-8.51563,8.4375 C-8.5,8.39063 -8.48438,8.3125 -8.48438,8.3125 C-8.48438,8.29688 -8.51563,8.26563 -8.5625,8.26563 L-10.5781,8.54688 L-10.5625,8.75 L-10.2656,8.75 C-10.0625,8.75 -9.70313,8.78125 -9.70313,9.09375 C-9.70313,9.15625 -9.76563,9.5 -9.90625,10.0156 L-11.4063,15.6406 C-11.5625,16.25 -11.7344,16.4375 -12.2813,16.4531 L-12.2813,16.6719 L-9.64063,16.6719 L-9.64063,16.4531 C-10.2656,16.4531 -10.4531,16.3594 -10.4531,16.0781 C-10.4531,15.8906 -10.1563,14.8281 -9.9375,13.9219 C-9.60938,14.0938 -9.34375,14.1406 -9.03125,14.1406 C-7.14063,14.1406 -5.17188,12.0313 -5.17188,9.89063 C-5.17188,8.875 -5.70313,8.26563 -6.67188,8.26563 C-7.45313,8.26563 -8.1875,8.6875 -8.89063,9.73438 L-8.51563,8.4375 M-6.34375,9.9375 C-6.34375,10.8438 -6.625,11.7969 -7.25,12.6563 C-7.8125,13.4688 -8.4375,13.8906 -9.125,13.8906 C-9.5,13.8906 -9.75,13.6875 -9.75,13.4063 C-9.75,12.9531 -9.28125,11.2813 -8.90625,10.3125 C-8.60938,9.53125 -7.84375,8.82813 -7.15625,8.82813 C-6.5625,8.82813 -6.34375,9.1875 -6.34375,9.9375" fill-rule="nonzero" vector-effect="none"/></g><defs><clipPath id="clip87"><path d="M-54,-13 L58,-13 L58,18 L-54,18 L-54,-13 z"/></clipPath></defs><g clip-path="url(#clip87)" fill="#000000" fill-opacity="1" opacity="1" stroke="none" stroke-opacity="0" transform="matrix(1,0,0,1,384.5,89.5)"><path d="M0,8.25 L-0.1875,8.25 C-0.296875,8.4375 -0.390625,8.48438 -0.578125,8.48438 C-0.6875,8.48438 -0.796875,8.46875 -1.04688,8.39063 C-1.375,8.3125 -1.54688,8.26563 -1.78125,8.26563 C-2.73438,8.26563 -3.34375,8.8125 -3.34375,9.67188 C-3.34375,10.0938 -3.09375,10.6719 -2.53125,11.375 C-2.01563,12.0156 -1.79688,12.4531 -1.79688,12.875 C-1.79688,13.5 -2.17188,13.875 -2.79688,13.875 C-3.46875,13.875 -3.90625,13.3438 -4.09375,12.1094 L-4.29688,12.1094 L-4.5625,14.1719 L-4.34375,14.1719 C-4.26563,13.9688 -4.10938,13.8906 -3.96875,13.8906 C-3.82813,13.8906 -3.64063,13.9063 -3.40625,14.0156 C-3.09375,14.125 -2.90625,14.1406 -2.6875,14.1406 C-1.60938,14.1406 -0.8125,13.4844 -0.8125,12.4063 C-0.8125,11.8906 -1.04688,11.3906 -1.70313,10.6406 C-2.20313,10.0313 -2.40625,9.65625 -2.40625,9.3125 C-2.40625,8.82813 -2.09375,8.5625 -1.625,8.5625 C-1,8.5625 -0.609375,9 -0.46875,10.0781 L-0.265625,10.0781 L0,8.25 z" fill-rule="nonzero" vector-effect="none"/></g><defs><clipPath id="clip88"><path d="M-54,-13 L58,-13 L58,18 L-54,18 L-54,-13 z"/></clipPath></defs><g clip-path="url(#clip88)" fill="#000000" fill-opacity="1" opacity="1" stroke="none" stroke-opacity="0" transform="matrix(1,0,0,1,384.5,89.5)"><path d="M3.71875,6.21875 C3.71875,5.82813 3.42188,5.5 3.0625,5.5 C2.71875,5.5 2.45313,5.78125 2.45313,6.1875 C2.45313,6.60938 2.70313,6.875 3.07813,6.875 C3.42188,6.875 3.71875,6.57813 3.71875,6.21875 M3.17188,12.5156 C2.60938,13.2656 2.29688,13.5313 2.07813,13.5313 C1.96875,13.5313 1.89063,13.4688 1.89063,13.3438 C1.89063,13.1563 1.95313,12.9844 2.01563,12.7656 L3.25,8.3125 L3.1875,8.26563 C1.875,8.51563 1.625,8.54688 1.10938,8.59375 L1.10938,8.79688 C1.8125,8.8125 1.95313,8.85938 1.95313,9.10938 C1.95313,9.21875 1.89063,9.45313 1.82813,9.6875 L1.20313,11.9844 C1.01563,12.7188 0.921875,13.1719 0.921875,13.4219 C0.921875,13.9063 1.125,14.1406 1.5625,14.1406 C2.20313,14.1406 2.625,13.75 3.34375,12.6563 L3.17188,12.5156" fill-rule="nonzero" vector-effect="none"/></g><defs><clipPath id="clip89"><path d="M-54,-13 L58,-13 L58,18 L-54,18 L-54,-13 z"/></clipPath></defs><g clip-path="url(#clip89)" fill="#000000" fill-opacity="1" opacity="1" stroke="none" stroke-opacity="0" transform="matrix(1,0,0,1,384.5,89.5)"><path d="M9.79688,10.1406 L7.4375,5.39063 L6.67188,5.39063 L4.3125,10.1406 L5.20313,10.1406 L7.0625,6.375 L8.92188,10.1406 L9.79688,10.1406 z" fill-rule="nonzero" vector-effect="none"/></g><defs><clipPath id="clip90"><path d="M-54,-13 L58,-13 L58,18 L-54,18 L-54,-13 z"/></clipPath></defs><g clip-path="url(#clip90)" fill="#000000" fill-opacity="1" opacity="1" stroke="none" stroke-opacity="0" transform="matrix(1,0,0,1,384.5,89.5)"><path d="M16.25,12.2188 L16.0781,12.1406 C15.6406,12.875 15.375,13.0156 14.8281,13.0156 L11.7813,13.0156 L13.9219,10.7188 C15.0938,9.5 15.5938,8.53125 15.5938,7.5 C15.5938,6.21875 14.6563,5.21875 13.1875,5.21875 C11.5938,5.21875 10.75,6.28125 10.4844,7.79688 L10.75,7.85938 C11.2813,6.59375 11.7344,6.17188 12.6719,6.17188 C13.7656,6.17188 14.4688,6.82813 14.4688,8 C14.4688,9.10938 14,10.0938 12.7813,11.3906 L10.4688,13.8438 L10.4688,14 L15.5469,14 L16.25,12.2188 M16.9688,5.42188 C18.8594,6.90625 19.1875,8.39063 19.1875,10.8281 C19.1875,13.3438 18.8125,14.5781 16.9688,16.0938 L17.0938,16.2969 C19.1563,15.0469 20.2969,13.1875 20.2969,10.7813 C20.2969,8.57813 19.1094,6.40625 17.125,5.21875 L16.9688,5.42188" fill-rule="nonzero" vector-effect="none"/></g><defs><clipPath id="clip91"><path d="M-54,-13 L58,-13 L58,18 L-54,18 L-54,-13 z"/></clipPath></defs><g clip-path="url(#clip91)" fill="#000000" fill-opacity="1" opacity="1" stroke="none" stroke-opacity="0" transform="matrix(1,0,0,1,384.5,89.5)"><path d="M26.3281,10.7031 C26.3281,10.2969 25.9688,9.9375 25.5625,9.9375 C25.125,9.9375 24.7656,10.3281 24.7656,10.7031 C24.7656,11.0938 25.125,11.4844 25.5625,11.4844 C25.9688,11.4844 26.3281,11.125 26.3281,10.7031 z" fill-rule="nonzero" vector-effect="none"/></g><defs><clipPath id="clip92"><path d="M-54,-13 L58,-13 L58,18 L-54,18 L-54,-13 z"/></clipPath></defs><g clip-path="url(#clip92)" fill="#000000" fill-opacity="1" opacity="1" stroke="none" stroke-opacity="0" transform="matrix(1,0,0,1,384.5,89.5)"><path d="M35.0313,8.25 L34.8438,8.25 C34.7344,8.4375 34.6406,8.48438 34.4531,8.48438 C34.3438,8.48438 34.2344,8.46875 33.9844,8.39063 C33.6563,8.3125 33.4844,8.26563 33.25,8.26563 C32.2969,8.26563 31.6875,8.8125 31.6875,9.67188 C31.6875,10.0938 31.9375,10.6719 32.5,11.375 C33.0156,12.0156 33.2344,12.4531 33.2344,12.875 C33.2344,13.5 32.8594,13.875 32.2344,13.875 C31.5625,13.875 31.125,13.3438 30.9375,12.1094 L30.7344,12.1094 L30.4688,14.1719 L30.6875,14.1719 C30.7656,13.9688 30.9219,13.8906 31.0625,13.8906 C31.2031,13.8906 31.3906,13.9063 31.625,14.0156 C31.9375,14.125 32.125,14.1406 32.3438,14.1406 C33.4219,14.1406 34.2188,13.4844 34.2188,12.4063 C34.2188,11.8906 33.9844,11.3906 33.3281,10.6406 C32.8281,10.0313 32.625,9.65625 32.625,9.3125 C32.625,8.82813 32.9375,8.5625 33.4063,8.5625 C34.0313,8.5625 34.4219,9 34.5625,10.0781 L34.7656,10.0781 L35.0313,8.25 z" fill-rule="nonzero" vector-effect="none"/></g><defs><clipPath id="clip93"><path d="M-54,-13 L58,-13 L58,18 L-54,18 L-54,-13 z"/></clipPath></defs><g clip-path="url(#clip93)" fill="#000000" fill-opacity="1" opacity="1" stroke="none" stroke-opacity="0" transform="matrix(1,0,0,1,384.5,89.5)"><path d="M46.4531,11.1406 L46.4531,10.2813 L43.0625,10.2813 L43.0625,6.89063 L42.2031,6.89063 L42.2031,10.2813 L38.8125,10.2813 L38.8125,11.1406 L42.2031,11.1406 L42.2031,14.5313 L43.0625,14.5313 L43.0625,11.1406 L46.4531,11.1406 z" fill-rule="nonzero" vector-effect="none"/></g><defs><clipPath id="clip94"><path d="M-54,-13 L58,-13 L58,18 L-54,18 L-54,-13 z"/></clipPath></defs><g clip-path="url(#clip94)" fill="#000000" fill-opacity="1" opacity="1" stroke="none" stroke-opacity="0" transform="matrix(1,0,0,1,384.5,89.5)"><path d="M55.0781,14 L55.0781,13.8125 C54.0938,13.8125 53.8438,13.5781 53.8438,13.0156 L53.8438,5.25 L53.7188,5.21875 L51.3906,6.39063 L51.3906,6.57813 L51.75,6.45313 C51.9844,6.35938 52.2031,6.29688 52.3281,6.29688 C52.6094,6.29688 52.7188,6.48438 52.7188,6.92188 L52.7188,12.7656 C52.7188,13.4844 52.4531,13.75 51.4844,13.8125 L51.4844,14 L55.0781,14 z" fill-rule="nonzero" vector-effect="none"/></g><defs><clipPath id="clip117"><path d="M-297.5,-66.5 L632.5,-66.5 L632.5,111.5 L-297.5,111.5 L-297.5,-66.5 z"/></clipPath></defs><g clip-path="url(#clip117)" fill="none" opacity="1" stroke="#000000" stroke-linecap="butt" stroke-linejoin="miter" stroke-miterlimit="2" stroke-opacity="1" stroke-width="1" transform="matrix(1,0,0,1,297.5,66.5)"><path d="M0,0 L180,0 L180,52 L0,52 L0,0 z" fill-rule="evenodd" vector-effect="none"/></g><defs><clipPath id="clip123"><path d="M0,0 L35,0 L35,14 L0,14 L0,0 z"/></clipPath></defs><g clip-path="url(#clip123)" fill="none" opacity="1" stroke="#000000" stroke-linecap="square" stroke-linejoin="bevel" stroke-opacity="1" stroke-width="1" transform="matrix(1,0,0,1,369.641,120)"><text fill="#000000" fill-opacity="1" font-family="Arial" font-size="10" font-style="normal" font-weight="400" stroke="none" textLength="32.7188" x="1" xml:space="preserve" y="10">F_U,Fx</text></g><defs><clipPath id="clip131"><path d="M-837,-57 L93,-57 L93,121 L-837,121 L-837,-57 z"/></clipPath></defs><g clip-path="url(#clip131)" fill="#ffffff" fill-opacity="1" opacity="1" stroke="none" stroke-opacity="0" transform="matrix(1,0,0,1,837,57)"><path d="M0,0 L90,0 L90,30 L0,30 L0,0 z" fill-rule="evenodd" vector-effect="none"/></g><defs><clipPath id="clip135"><path d="M0,0 L91,0 L91,31 L0,31 L0,0 z"/></clipPath></defs><g clip-path="url(#clip135)" fill="none" opacity="1" stroke="none" stroke-opacity="0" transform="matrix(1,0,0,1,837,57)"><path d="M0,0 L91,0 L91,31 L0,31 L0,0 z" fill-rule="evenodd" vector-effect="none"/></g><defs><clipPath id="clip145"><path d="M-1,-1 L63,-1 L63,27 L-1,27 L-1,-1 z"/></clipPath></defs><g clip-path="url(#clip145)" fill="#000000" fill-opacity="1" opacity="1" stroke="none" stroke-opacity="0" transform="matrix(1,0,0,1,852,60)"><path d="M16.4531,17.5 L16.4531,8.89063 L17.4063,8.89063 L17.4063,9.6875 C17.6354,9.375 17.8932,9.14063 18.1797,8.98438 C18.4661,8.82813 18.8125,8.75 19.2188,8.75 C19.75,8.75 20.2188,8.88542 20.625,9.15625 C21.0313,9.42708 21.3359,9.8125 21.5391,10.3125 C21.7422,10.8125 21.8438,11.3594 21.8438,11.9531 C21.8438,12.5885 21.7318,13.1615 21.5078,13.6719 C21.2839,14.1823 20.9531,14.5729 20.5156,14.8438 C20.0781,15.1146 19.6198,15.25 19.1406,15.25 C18.7865,15.25 18.4688,15.1745 18.1875,15.0234 C17.9063,14.8724 17.6771,14.6875 17.5,14.4688 L17.5,17.5 L16.4531,17.5 M17.4063,12.0313 C17.4063,12.8333 17.5677,13.4245 17.8906,13.8047 C18.2135,14.1849 18.6042,14.375 19.0625,14.375 C19.5313,14.375 19.9323,14.1771 20.2656,13.7813 C20.599,13.3854 20.7656,12.7708 20.7656,11.9375 C20.7656,11.1458 20.6042,10.5547 20.2813,10.1641 C19.9583,9.77344 19.5677,9.57813 19.1094,9.57813 C18.6615,9.57813 18.2656,9.78646 17.9219,10.2031 C17.5781,10.6198 17.4063,11.2292 17.4063,12.0313 M23.125,15.1094 L23.125,6.51563 L24.1719,6.51563 L24.1719,9.59375 C24.6615,9.03125 25.2813,8.75 26.0313,8.75 C26.5,8.75 26.9036,8.84115 27.2422,9.02344 C27.5807,9.20573 27.8229,9.45573 27.9688,9.77344 C28.1146,10.0911 28.1875,10.5573 28.1875,11.1719 L28.1875,15.1094 L27.1406,15.1094 L27.1406,11.1719 C27.1406,10.6406 27.026,10.2552 26.7969,10.0156 C26.5677,9.77604 26.2448,9.65625 25.8281,9.65625 C25.5156,9.65625 25.2214,9.73698 24.9453,9.89844 C24.6693,10.0599 24.4714,10.2786 24.3516,10.5547 C24.2318,10.8307 24.1719,11.2135 24.1719,11.7031 L24.1719,15.1094 L23.125,15.1094 M29.7969,7.73438 L29.7969,6.51563 L30.8594,6.51563 L30.8594,7.73438 L29.7969,7.73438 M29.7969,15.1094 L29.7969,8.89063 L30.8594,8.89063 L30.8594,15.1094 L29.7969,15.1094 M31.4688,17.5 L31.4688,16.7344 L38.4688,16.7344 L38.4688,17.5 L31.4688,17.5 M43.1875,12.8281 L44.2188,12.9688 C44.1042,13.6771 43.8125,14.2344 43.3438,14.6406 C42.875,15.0469 42.3021,15.25 41.625,15.25 C40.7708,15.25 40.0859,14.9714 39.5703,14.4141 C39.0547,13.8568 38.7969,13.0573 38.7969,12.0156 C38.7969,11.349 38.9089,10.763 39.1328,10.2578 C39.3568,9.7526 39.6953,9.375 40.1484,9.125 C40.6016,8.875 41.099,8.75 41.6406,8.75 C42.3073,8.75 42.8568,8.91927 43.2891,9.25781 C43.7214,9.59635 44,10.0833 44.125,10.7188 L43.0938,10.875 C43,10.4583 42.8281,10.1432 42.5781,9.92969 C42.3281,9.71615 42.026,9.60938 41.6719,9.60938 C41.1406,9.60938 40.7083,9.79948 40.375,10.1797 C40.0417,10.5599 39.875,11.1615 39.875,11.9844 C39.875,12.8281 40.0365,13.4375 40.3594,13.8125 C40.6823,14.1875 41.099,14.375 41.6094,14.375 C42.026,14.375 42.3724,14.25 42.6484,14 C42.9245,13.75 43.1042,13.3594 43.1875,12.8281" fill-rule="nonzero" vector-effect="none"/></g><defs><clipPath id="clip165"><path d="M-837.5,-57.5 L92.5,-57.5 L92.5,120.5 L-837.5,120.5 L-837.5,-57.5 z"/></clipPath></defs><g clip-path="url(#clip165)" fill="none" opacity="1" stroke="#000000" stroke-linecap="butt" stroke-linejoin="miter" stroke-miterlimit="2" stroke-opacity="1" stroke-width="1" transform="matrix(1,0,0,1,837.5,57.5)"><path d="M0,0 L90,0 L90,30 L0,30 L0,0 z" fill-rule="evenodd" vector-effect="none"/></g><defs><clipPath id="clip168"><path d="M-687,-92 L243,-92 L243,86 L-687,86 L-687,-92 z"/></clipPath></defs><g clip-path="url(#clip168)" fill="#ffffff" fill-opacity="1" opacity="1" stroke="none" stroke-opacity="0" transform="matrix(1,0,0,1,687,92)"><path d="M0,0 L90,0 L90,30 L0,30 L0,0 z" fill-rule="evenodd" vector-effect="none"/></g><defs><clipPath id="clip172"><path d="M0,0 L91,0 L91,31 L0,31 L0,0 z"/></clipPath></defs><g clip-path="url(#clip172)" fill="none" opacity="1" stroke="none" stroke-opacity="0" transform="matrix(1,0,0,1,687,92)"><path d="M0,0 L91,0 L91,31 L0,31 L0,0 z" fill-rule="evenodd" vector-effect="none"/></g><defs><clipPath id="clip182"><path d="M-1,-1 L63,-1 L63,27 L-1,27 L-1,-1 z"/></clipPath></defs><g clip-path="url(#clip182)" fill="#000000" fill-opacity="1" opacity="1" stroke="none" stroke-opacity="0" transform="matrix(1,0,0,1,702,95)"><path d="M16.4219,15.1094 L18.6875,11.875 L16.5938,8.89063 L17.9063,8.89063 L18.8594,10.3438 C19.0365,10.625 19.1823,10.8594 19.2969,11.0469 C19.4635,10.7865 19.6198,10.5573 19.7656,10.3594 L20.8125,8.89063 L22.0781,8.89063 L19.9219,11.8125 L22.2344,15.1094 L20.9531,15.1094 L19.6719,13.1719 L19.3281,12.6563 L17.6875,15.1094 L16.4219,15.1094 M24.2656,15.1094 L22.3594,8.89063 L23.4531,8.89063 L24.4375,12.4844 L24.8125,13.8125 C24.8333,13.75 24.9427,13.3229 25.1406,12.5313 L26.125,8.89063 L27.2031,8.89063 L28.1406,12.5 L28.4531,13.6875 L28.8125,12.4844 L29.875,8.89063 L30.9063,8.89063 L28.9531,15.1094 L27.8594,15.1094 L26.875,11.375 L26.625,10.3281 L25.375,15.1094 L24.2656,15.1094 M30.7969,17.5 L30.7969,16.7344 L37.7969,16.7344 L37.7969,17.5 L30.7969,17.5 M42.5156,12.8281 L43.5469,12.9688 C43.4323,13.6771 43.1406,14.2344 42.6719,14.6406 C42.2031,15.0469 41.6302,15.25 40.9531,15.25 C40.099,15.25 39.4141,14.9714 38.8984,14.4141 C38.3828,13.8568 38.125,13.0573 38.125,12.0156 C38.125,11.349 38.237,10.763 38.4609,10.2578 C38.6849,9.7526 39.0234,9.375 39.4766,9.125 C39.9297,8.875 40.4271,8.75 40.9688,8.75 C41.6354,8.75 42.1849,8.91927 42.6172,9.25781 C43.0495,9.59635 43.3281,10.0833 43.4531,10.7188 L42.4219,10.875 C42.3281,10.4583 42.1563,10.1432 41.9063,9.92969 C41.6563,9.71615 41.3542,9.60938 41,9.60938 C40.4688,9.60938 40.0365,9.79948 39.7031,10.1797 C39.3698,10.5599 39.2031,11.1615 39.2031,11.9844 C39.2031,12.8281 39.3646,13.4375 39.6875,13.8125 C40.0104,14.1875 40.4271,14.375 40.9375,14.375 C41.3542,14.375 41.7005,14.25 41.9766,14 C42.2526,13.75 42.4323,13.3594 42.5156,12.8281" fill-rule="nonzero" vector-effect="none"/></g><defs><clipPath id="clip202"><path d="M-687.5,-92.5 L242.5,-92.5 L242.5,85.5 L-687.5,85.5 L-687.5,-92.5 z"/></clipPath></defs><g clip-path="url(#clip202)" fill="none" opacity="1" stroke="#000000" stroke-linecap="butt" stroke-linejoin="miter" stroke-miterlimit="2" stroke-opacity="1" stroke-width="1" transform="matrix(1,0,0,1,687.5,92.5)"><path d="M0,0 L90,0 L90,30 L0,30 L0,0 z" fill-rule="evenodd" vector-effect="none"/></g><defs><clipPath id="clip205"><path d="M-542,-75 L388,-75 L388,103 L-542,103 L-542,-75 z"/></clipPath></defs><g clip-path="url(#clip205)" fill="#ffffff" fill-opacity="1" opacity="1" stroke="none" stroke-opacity="0" transform="matrix(1,0,0,1,542,75)"><path d="M0,0 L60,0 L60,34 L0,34 L0,0 z" fill-rule="evenodd" vector-effect="none"/></g><defs><clipPath id="clip209"><path d="M0,0 L61,0 L61,35 L0,35 L0,0 z"/></clipPath></defs><g clip-path="url(#clip209)" fill="none" opacity="1" stroke="none" stroke-opacity="0" transform="matrix(1,0,0,1,542,75)"><path d="M0,0 L61,0 L61,35 L0,35 L0,0 z" fill-rule="evenodd" vector-effect="none"/></g><defs><clipPath id="clip220"><path d="M-33,-15 L38,-15 L38,20 L-33,20 L-33,-15 z"/></clipPath></defs><g clip-path="url(#clip220)" fill="#000000" fill-opacity="1" opacity="1" stroke="none" stroke-opacity="0" transform="matrix(0.7,0,0,0.7,570.5,90.5)"><path d="M-27.1875,-11.2344 C-27.1875,-11.5625 -27.4844,-11.875 -27.8125,-11.875 C-28.1719,-11.875 -28.4688,-11.6094 -28.4688,-11.25 C-28.4688,-10.8906 -28.1875,-10.6094 -27.8281,-10.6094 C-27.4844,-10.6094 -27.1875,-10.8906 -27.1875,-11.2344 z" fill-rule="nonzero" vector-effect="none"/></g><defs><clipPath id="clip221"><path d="M-33,-15 L38,-15 L38,20 L-33,20 L-33,-15 z"/></clipPath></defs><g clip-path="url(#clip221)" fill="#000000" fill-opacity="1" opacity="1" stroke="none" stroke-opacity="0" transform="matrix(0.7,0,0,0.7,570.5,90.5)"><path d="M-28.2031,-7.60938 C-28.375,-8.5 -28.5313,-8.73438 -28.8594,-8.73438 C-29.1563,-8.73438 -29.5938,-8.64063 -30.3906,-8.35938 L-30.5313,-8.29688 L-30.4844,-8.09375 L-30.25,-8.15625 C-30,-8.21875 -29.8438,-8.25 -29.75,-8.25 C-29.4219,-8.25 -29.3281,-8.14063 -29.1563,-7.375 L-28.7813,-5.75 L-29.8438,-4.25 C-30.125,-3.85938 -30.375,-3.60938 -30.5156,-3.60938 C-30.5938,-3.60938 -30.7188,-3.65625 -30.8594,-3.73438 C-31.0156,-3.8125 -31.1563,-3.875 -31.2656,-3.875 C-31.5313,-3.875 -31.7031,-3.65625 -31.7031,-3.40625 C-31.7031,-3.0625 -31.4688,-2.85938 -31.0625,-2.85938 C-30.6563,-2.85938 -30.3906,-2.96875 -29.8281,-3.73438 L-28.6875,-5.28125 L-28.2969,-3.73438 C-28.1406,-3.09375 -27.9531,-2.85938 -27.5313,-2.85938 C-27.0469,-2.85938 -26.7031,-3.17188 -25.9531,-4.34375 L-26.1406,-4.45313 C-26.25,-4.32813 -26.2969,-4.25 -26.4219,-4.09375 C-26.7188,-3.70313 -26.8594,-3.57813 -27.0313,-3.57813 C-27.2188,-3.57813 -27.3281,-3.73438 -27.4219,-4.10938 L-27.8438,-5.84375 C-27.9219,-6.15625 -27.9375,-6.34375 -27.9375,-6.4375 C-27.375,-7.4375 -26.9063,-8 -26.6719,-8 C-26.3594,-8 -26.2344,-7.78125 -25.9844,-7.78125 C-25.7344,-7.78125 -25.5469,-7.98438 -25.5469,-8.25 C-25.5469,-8.53125 -25.7656,-8.73438 -26.0781,-8.73438 C-26.6563,-8.73438 -27.1406,-8.26563 -28.0469,-6.875 L-28.2031,-7.60938 z" fill-rule="nonzero" vector-effect="none"/></g><defs><clipPath id="clip222"><path d="M-33,-15 L38,-15 L38,20 L-33,20 L-33,-15 z"/></clipPath></defs><g clip-path="url(#clip222)" fill="#000000" fill-opacity="1" opacity="1" stroke="none" stroke-opacity="0" transform="matrix(0.7,0,0,0.7,570.5,90.5)"><path d="M-13.7031,-7.15625 L-13.7031,-8.01563 L-21.3594,-8.01563 L-21.3594,-7.15625 L-13.7031,-7.15625 M-13.7031,-4.5625 L-13.7031,-5.42188 L-21.3594,-5.42188 L-21.3594,-4.5625 L-13.7031,-4.5625" fill-rule="nonzero" vector-effect="none"/></g><defs><clipPath id="clip223"><path d="M-33,-15 L38,-15 L38,20 L-33,20 L-33,-15 z"/></clipPath></defs><g clip-path="url(#clip223)" fill="#000000" fill-opacity="1" opacity="1" stroke="none" stroke-opacity="0" transform="matrix(0.7,0,0,0.7,570.5,90.5)"><path d="M-0.859375,-2.98438 L-0.859375,-3.1875 C-1.54688,-3.25 -1.6875,-3.39063 -1.875,-4.48438 L-3.0625,-11.6875 L-3.40625,-11.6875 L-7.10938,-5.21875 C-8.07813,-3.53125 -8.25,-3.3125 -8.84375,-3.1875 L-8.84375,-2.98438 L-6.4375,-2.98438 L-6.4375,-3.1875 C-7.04688,-3.21875 -7.23438,-3.375 -7.23438,-3.625 C-7.23438,-3.82813 -7.14063,-4.14063 -6.95313,-4.48438 L-6.1875,-5.92188 L-3.32813,-5.92188 L-3.0625,-4.21875 C-3.04688,-4.10938 -3.04688,-3.98438 -3.04688,-3.89063 C-3.04688,-3.4375 -3.21875,-3.23438 -4.04688,-3.1875 L-4.04688,-2.98438 L-0.859375,-2.98438 M-3.39063,-6.39063 L-5.90625,-6.39063 L-3.96875,-9.82813 L-3.39063,-6.39063" fill-rule="nonzero" vector-effect="none"/></g><defs><clipPath id="clip224"><path d="M-33,-15 L38,-15 L38,20 L-33,20 L-33,-15 z"/></clipPath></defs><g clip-path="url(#clip224)" fill="#000000" fill-opacity="1" opacity="1" stroke="none" stroke-opacity="0" transform="matrix(0.7,0,0,0.7,570.5,90.5)"><path d="M2.90625,-7.60938 C2.73438,-8.5 2.57813,-8.73438 2.25,-8.73438 C1.95313,-8.73438 1.51563,-8.64063 0.71875,-8.35938 L0.578125,-8.29688 L0.625,-8.09375 L0.859375,-8.15625 C1.10938,-8.21875 1.26563,-8.25 1.35938,-8.25 C1.6875,-8.25 1.78125,-8.14063 1.95313,-7.375 L2.32813,-5.75 L1.26563,-4.25 C0.984375,-3.85938 0.734375,-3.60938 0.59375,-3.60938 C0.515625,-3.60938 0.390625,-3.65625 0.25,-3.73438 C0.09375,-3.8125 -0.046875,-3.875 -0.15625,-3.875 C-0.421875,-3.875 -0.59375,-3.65625 -0.59375,-3.40625 C-0.59375,-3.0625 -0.359375,-2.85938 0.046875,-2.85938 C0.453125,-2.85938 0.71875,-2.96875 1.28125,-3.73438 L2.42188,-5.28125 L2.8125,-3.73438 C2.96875,-3.09375 3.15625,-2.85938 3.57813,-2.85938 C4.0625,-2.85938 4.40625,-3.17188 5.15625,-4.34375 L4.96875,-4.45313 C4.85938,-4.32813 4.8125,-4.25 4.6875,-4.09375 C4.39063,-3.70313 4.25,-3.57813 4.07813,-3.57813 C3.89063,-3.57813 3.78125,-3.73438 3.6875,-4.10938 L3.26563,-5.84375 C3.1875,-6.15625 3.17188,-6.34375 3.17188,-6.4375 C3.73438,-7.4375 4.20313,-8 4.4375,-8 C4.75,-8 4.875,-7.78125 5.125,-7.78125 C5.375,-7.78125 5.5625,-7.98438 5.5625,-8.25 C5.5625,-8.53125 5.34375,-8.73438 5.03125,-8.73438 C4.45313,-8.73438 3.96875,-8.26563 3.0625,-6.875 L2.90625,-7.60938 z" fill-rule="nonzero" vector-effect="none"/></g><defs><clipPath id="clip225"><path d="M-33,-15 L38,-15 L38,20 L-33,20 L-33,-15 z"/></clipPath></defs><g clip-path="url(#clip225)" fill="#000000" fill-opacity="1" opacity="1" stroke="none" stroke-opacity="0" transform="matrix(0.7,0,0,0.7,570.5,90.5)"><path d="M16.6563,-5.85938 L16.6563,-6.71875 L13.2656,-6.71875 L13.2656,-10.1094 L12.4063,-10.1094 L12.4063,-6.71875 L9.01563,-6.71875 L9.01563,-5.85938 L12.4063,-5.85938 L12.4063,-2.46875 L13.2656,-2.46875 L13.2656,-5.85938 L16.6563,-5.85938 z" fill-rule="nonzero" vector-effect="none"/></g><defs><clipPath id="clip226"><path d="M-33,-15 L38,-15 L38,20 L-33,20 L-33,-15 z"/></clipPath></defs><g clip-path="url(#clip226)" fill="#000000" fill-opacity="1" opacity="1" stroke="none" stroke-opacity="0" transform="matrix(0.7,0,0,0.7,570.5,90.5)"><path d="M22.5,-11.5 L22.5,-11.2969 C23.3281,-11.2344 23.5,-11.1406 23.5,-10.7656 C23.5,-10.5625 23.4531,-10.25 23.3594,-9.92188 L21.7813,-4.23438 C21.5625,-3.42188 21.4219,-3.29688 20.7031,-3.1875 L20.7031,-2.98438 L24.25,-2.98438 C26.3438,-2.98438 27.8125,-3.84375 27.8125,-5.59375 C27.8125,-6.51563 27.2969,-7.21875 26.1875,-7.54688 L26.1875,-7.5625 C26.7344,-7.6875 27.2188,-7.79688 27.625,-8.07813 C28.0938,-8.39063 28.4531,-8.84375 28.4531,-9.54688 C28.4531,-10.8438 27.5625,-11.5 25.75,-11.5 L22.5,-11.5 M24.0313,-7.71875 L24.8594,-10.6406 C24.9844,-11.1094 25.1094,-11.1094 25.625,-11.1094 C26.6719,-11.1094 27.1406,-10.6719 27.1406,-9.70313 C27.1406,-8.40625 26.2344,-7.71875 24.5313,-7.71875 L24.0313,-7.71875 M23.9063,-7.29688 C24.7188,-7.29688 25.2813,-7.23438 25.5469,-7.14063 C26.0313,-6.98438 26.4219,-6.40625 26.4219,-5.59375 C26.4219,-4.14063 25.4063,-3.375 23.9063,-3.375 C23.3594,-3.375 23.0313,-3.5625 23.0313,-3.92188 C23.0313,-4.09375 23.2344,-4.76563 23.4844,-5.75 L23.9063,-7.29688" fill-rule="nonzero" vector-effect="none"/></g><defs><clipPath id="clip227"><path d="M-33,-15 L38,-15 L38,20 L-33,20 L-33,-15 z"/></clipPath></defs><g clip-path="url(#clip227)" fill="#000000" fill-opacity="1" opacity="1" stroke="none" stroke-opacity="0" transform="matrix(0.7,0,0,0.7,570.5,90.5)"><path d="M34.75,-4.54688 C34.0781,-3.67188 33.875,-3.5 33.6719,-3.5 C33.5781,-3.5 33.5156,-3.57813 33.5156,-3.71875 C33.5156,-3.875 33.7031,-4.48438 33.7656,-4.73438 L34.7969,-8.60938 L33.8281,-8.60938 C33.2031,-6.875 33.0156,-6.375 32.4063,-5.45313 C31.5938,-4.23438 31,-3.54688 30.5625,-3.54688 C30.3594,-3.54688 30.2969,-3.67188 30.2969,-3.875 C30.2969,-3.92188 30.3281,-4.04688 30.3438,-4.07813 L31.5,-8.6875 L31.4375,-8.73438 C30.7031,-8.5625 30.2344,-8.46875 29.4844,-8.375 L29.4844,-8.20313 C29.9844,-8.20313 30.0313,-8.1875 30.1406,-8.125 C30.2188,-8.07813 30.2813,-7.98438 30.2813,-7.89063 C30.2813,-7.78125 30.2031,-7.45313 30.1094,-7.01563 L29.6406,-5.20313 C29.4063,-4.26563 29.2969,-3.79688 29.2969,-3.54688 C29.2969,-3.0625 29.5313,-2.85938 29.9844,-2.85938 C30.9063,-2.85938 31.5625,-3.54688 33.0938,-6.0625 C32.6719,-4.67188 32.5,-3.79688 32.5,-3.5 C32.5,-3.10938 32.7344,-2.89063 33.125,-2.89063 C33.75,-2.89063 34.0781,-3.14063 34.9219,-4.4375 L34.75,-4.54688 z" fill-rule="nonzero" vector-effect="none"/></g><defs><clipPath id="clip228"><path d="M-33,-15 L38,-15 L38,20 L-33,20 L-33,-15 z"/></clipPath></defs><g clip-path="url(#clip228)" fill="#000000" fill-opacity="1" opacity="1" stroke="none" stroke-opacity="0" transform="matrix(0.7,0,0,0.7,570.5,90.5)"><path d="M-27.9375,13.5781 C-28.1563,12.4219 -28.8438,10.2656 -29.0469,10.2656 L-29.0938,10.2656 C-29.7969,10.375 -30.2188,10.4531 -30.4844,10.5 C-30.6094,10.5313 -30.75,10.5469 -30.9063,10.5781 L-30.9063,10.7969 C-30.75,10.7656 -30.6406,10.75 -30.5,10.75 C-29.9688,10.75 -29.7344,10.9375 -29.5,11.5781 C-29.1406,12.4688 -28.4219,15.375 -28.4219,15.8906 C-28.4219,16.0313 -28.4844,16.1875 -28.5625,16.3438 C-28.6563,16.5156 -29.25,17.2813 -29.4844,17.5313 C-29.7813,17.8594 -29.9375,17.9688 -30.1094,17.9688 C-30.4375,17.9688 -30.4375,17.5938 -30.9063,17.5938 C-31.1875,17.5938 -31.4063,17.8281 -31.4063,18.125 C-31.4063,18.4531 -31.125,18.6719 -30.75,18.6719 C-30,18.6719 -28.6094,17.1875 -27.2656,14.9531 C-26.1719,13.1563 -25.5625,11.7188 -25.5625,10.9844 C-25.5625,10.5938 -25.8438,10.2656 -26.2344,10.2656 C-26.5313,10.2656 -26.75,10.4688 -26.75,10.75 C-26.75,10.9531 -26.6719,11.0781 -26.4063,11.25 C-26.1719,11.4063 -26.0781,11.4844 -26.0781,11.6719 C-26.0781,12.25 -26.5625,13.1719 -27.6563,15.0156 L-27.9375,13.5781 z" fill-rule="nonzero" vector-effect="none"/></g><defs><clipPath id="clip229"><path d="M-33,-15 L38,-15 L38,20 L-33,20 L-33,-15 z"/></clipPath></defs><g clip-path="url(#clip229)" fill="#000000" fill-opacity="1" opacity="1" stroke="none" stroke-opacity="0" transform="matrix(0.7,0,0,0.7,570.5,90.5)"><path d="M-13.4375,11.8438 L-13.4375,10.9844 L-21.0938,10.9844 L-21.0938,11.8438 L-13.4375,11.8438 M-13.4375,14.4375 L-13.4375,13.5781 L-21.0938,13.5781 L-21.0938,14.4375 L-13.4375,14.4375" fill-rule="nonzero" vector-effect="none"/></g><defs><clipPath id="clip230"><path d="M-33,-15 L38,-15 L38,20 L-33,20 L-33,-15 z"/></clipPath></defs><g clip-path="url(#clip230)" fill="#000000" fill-opacity="1" opacity="1" stroke="none" stroke-opacity="0" transform="matrix(0.7,0,0,0.7,570.5,90.5)"><path d="M-0.265625,7.375 L-0.53125,7.375 C-0.640625,7.57813 -0.765625,7.65625 -1.03125,7.65625 C-1.14063,7.65625 -1.29688,7.65625 -1.5625,7.5625 C-2.10938,7.375 -2.65625,7.34375 -3.07813,7.34375 C-4.10938,7.34375 -5.09375,7.6875 -5.92188,8.29688 C-7.35938,9.3125 -8.35938,11 -8.35938,12.8438 C-8.35938,14.9844 -6.95313,16.2344 -4.96875,16.2344 C-3.625,16.2344 -2.59375,15.6719 -1.42188,14.2969 L-1.65625,14.1094 C-2.78125,15.2656 -3.5625,15.6563 -4.625,15.6563 C-6.07813,15.6563 -6.90625,14.7969 -6.90625,12.9844 C-6.90625,11.5469 -6.4375,10.0781 -5.5,9.07813 C-4.78125,8.29688 -3.875,7.8125 -2.90625,7.8125 C-1.76563,7.8125 -1.125,8.53125 -0.96875,9.92188 L-0.75,9.96875 L-0.265625,7.375 z" fill-rule="nonzero" vector-effect="none"/></g><defs><clipPath id="clip231"><path d="M-33,-15 L38,-15 L38,20 L-33,20 L-33,-15 z"/></clipPath></defs><g clip-path="url(#clip231)" fill="#000000" fill-opacity="1" opacity="1" stroke="none" stroke-opacity="0" transform="matrix(0.7,0,0,0.7,570.5,90.5)"><path d="M2.59375,11.3906 C2.42188,10.5 2.26563,10.2656 1.9375,10.2656 C1.64063,10.2656 1.20313,10.3594 0.40625,10.6406 L0.265625,10.7031 L0.3125,10.9063 L0.546875,10.8438 C0.796875,10.7813 0.953125,10.75 1.04688,10.75 C1.375,10.75 1.46875,10.8594 1.64063,11.625 L2.01563,13.25 L0.953125,14.75 C0.671875,15.1406 0.421875,15.3906 0.28125,15.3906 C0.203125,15.3906 0.078125,15.3438 -0.0625,15.2656 C-0.21875,15.1875 -0.359375,15.125 -0.46875,15.125 C-0.734375,15.125 -0.90625,15.3438 -0.90625,15.5938 C-0.90625,15.9375 -0.671875,16.1406 -0.265625,16.1406 C0.140625,16.1406 0.40625,16.0313 0.96875,15.2656 L2.10938,13.7188 L2.5,15.2656 C2.65625,15.9063 2.84375,16.1406 3.26563,16.1406 C3.75,16.1406 4.09375,15.8281 4.84375,14.6563 L4.65625,14.5469 C4.54688,14.6719 4.5,14.75 4.375,14.9063 C4.07813,15.2969 3.9375,15.4219 3.76563,15.4219 C3.57813,15.4219 3.46875,15.2656 3.375,14.8906 L2.95313,13.1563 C2.875,12.8438 2.85938,12.6563 2.85938,12.5625 C3.42188,11.5625 3.89063,11 4.125,11 C4.4375,11 4.5625,11.2188 4.8125,11.2188 C5.0625,11.2188 5.25,11.0156 5.25,10.75 C5.25,10.4688 5.03125,10.2656 4.71875,10.2656 C4.14063,10.2656 3.65625,10.7344 2.75,12.125 L2.59375,11.3906 z" fill-rule="nonzero" vector-effect="none"/></g><defs><clipPath id="clip232"><path d="M-33,-15 L38,-15 L38,20 L-33,20 L-33,-15 z"/></clipPath></defs><g clip-path="url(#clip232)" fill="#000000" fill-opacity="1" opacity="1" stroke="none" stroke-opacity="0" transform="matrix(0.7,0,0,0.7,570.5,90.5)"><path d="M16.3438,13.1406 L16.3438,12.2813 L12.9531,12.2813 L12.9531,8.89063 L12.0938,8.89063 L12.0938,12.2813 L8.70313,12.2813 L8.70313,13.1406 L12.0938,13.1406 L12.0938,16.5313 L12.9531,16.5313 L12.9531,13.1406 L16.3438,13.1406 z" fill-rule="nonzero" vector-effect="none"/></g><defs><clipPath id="clip233"><path d="M-33,-15 L38,-15 L38,20 L-33,20 L-33,-15 z"/></clipPath></defs><g clip-path="url(#clip233)" fill="#000000" fill-opacity="1" opacity="1" stroke="none" stroke-opacity="0" transform="matrix(0.7,0,0,0.7,570.5,90.5)"><path d="M22.2031,7.5 L22.2031,7.70313 C23,7.73438 23.1875,7.89063 23.1875,8.23438 C23.1875,8.4375 23.1406,8.6875 23.0469,9.01563 L21.4688,14.8125 C21.25,15.5781 21.125,15.6719 20.3906,15.8125 L20.3906,16.0156 L23.7344,16.0156 C25.2656,16.0156 26.5781,15.6719 27.5156,14.9375 C28.7969,13.9375 29.5938,12.625 29.5938,11 C29.5938,8.71875 28.0781,7.5 25.7969,7.5 L22.2031,7.5 M24.5313,8.39063 C24.6563,7.9375 24.9531,7.89063 25.4375,7.89063 C26.1875,7.89063 26.7344,8.04688 27.1406,8.34375 C27.7813,8.82813 28.1563,9.65625 28.1563,10.6875 C28.1563,12.0156 27.6563,13.5469 26.7344,14.4531 C25.9219,15.2344 24.9063,15.625 23.5938,15.625 C23,15.625 22.7031,15.4844 22.7031,15.1406 C22.7031,14.9688 22.7813,14.7031 23,13.9063 L24.5313,8.39063" fill-rule="nonzero" vector-effect="none"/></g><defs><clipPath id="clip234"><path d="M-33,-15 L38,-15 L38,20 L-33,20 L-33,-15 z"/></clipPath></defs><g clip-path="url(#clip234)" fill="#000000" fill-opacity="1" opacity="1" stroke="none" stroke-opacity="0" transform="matrix(0.7,0,0,0.7,570.5,90.5)"><path d="M35.875,14.4531 C35.2031,15.3281 35,15.5 34.7969,15.5 C34.7031,15.5 34.6406,15.4219 34.6406,15.2813 C34.6406,15.125 34.8281,14.5156 34.8906,14.2656 L35.9219,10.3906 L34.9531,10.3906 C34.3281,12.125 34.1406,12.625 33.5313,13.5469 C32.7188,14.7656 32.125,15.4531 31.6875,15.4531 C31.4844,15.4531 31.4219,15.3281 31.4219,15.125 C31.4219,15.0781 31.4531,14.9531 31.4688,14.9219 L32.625,10.3125 L32.5625,10.2656 C31.8281,10.4375 31.3594,10.5313 30.6094,10.625 L30.6094,10.7969 C31.1094,10.7969 31.1563,10.8125 31.2656,10.875 C31.3438,10.9219 31.4063,11.0156 31.4063,11.1094 C31.4063,11.2188 31.3281,11.5469 31.2344,11.9844 L30.7656,13.7969 C30.5313,14.7344 30.4219,15.2031 30.4219,15.4531 C30.4219,15.9375 30.6563,16.1406 31.1094,16.1406 C32.0313,16.1406 32.6875,15.4531 34.2188,12.9375 C33.7969,14.3281 33.625,15.2031 33.625,15.5 C33.625,15.8906 33.8594,16.1094 34.25,16.1094 C34.875,16.1094 35.2031,15.8594 36.0469,14.5625 L35.875,14.4531 z" fill-rule="nonzero" vector-effect="none"/></g><defs><clipPath id="clip257"><path d="M-542.5,-75.5 L387.5,-75.5 L387.5,102.5 L-542.5,102.5 L-542.5,-75.5 z"/></clipPath></defs><g clip-path="url(#clip257)" fill="none" opacity="1" stroke="#000000" stroke-linecap="butt" stroke-linejoin="miter" stroke-miterlimit="2" stroke-opacity="1" stroke-width="1" transform="matrix(1,0,0,1,542.5,75.5)"><path d="M0,0 L60,0 L60,34 L0,34 L0,0 z" fill-rule="evenodd" vector-effect="none"/></g><defs><clipPath id="clip263"><path d="M0,0 L66,0 L66,14 L0,14 L0,0 z"/></clipPath></defs><g clip-path="url(#clip263)" fill="none" opacity="1" stroke="#000000" stroke-linecap="square" stroke-linejoin="bevel" stroke-opacity="1" stroke-width="1" transform="matrix(1,0,0,1,539.102,111)"><text fill="#000000" fill-opacity="1" font-family="Arial" font-size="10" font-style="normal" font-weight="400" stroke="none" textLength="63.7969" x="1" xml:space="preserve" y="10">Zustandsraum</text></g><defs><clipPath id="clip271"><path d="M-642,-55 L288,-55 L288,123 L-642,123 L-642,-55 z"/></clipPath></defs><g clip-path="url(#clip271)" fill="#ffffff" fill-opacity="1" opacity="1" stroke="none" stroke-opacity="0" transform="matrix(1,0,0,1,642,55)"><path d="M0,0 L5,0 L5,69 L0,69 L0,0 z" fill-rule="evenodd" vector-effect="none"/></g><defs><clipPath id="clip275"><path d="M660,198 L665,198 L665,267 L660,267 L660,198 z"/></clipPath></defs><g clip-path="url(#clip275)" fill="#000000" fill-opacity="1" opacity="1" stroke="none" stroke-opacity="0" transform="matrix(1,0,0,1,-18,-143)"><path d="M660,198 L665,198 L665,267 L660,267 L660,198 z" fill-rule="evenodd" vector-effect="none"/></g><defs><clipPath id="clip280"><path d="M-642.5,-55.5 L287.5,-55.5 L287.5,122.5 L-642.5,122.5 L-642.5,-55.5 z"/></clipPath></defs><g clip-path="url(#clip280)" fill="none" opacity="1" stroke="#000000" stroke-linecap="butt" stroke-linejoin="miter" stroke-miterlimit="2" stroke-opacity="1" stroke-width="1" transform="matrix(1,0,0,1,642.5,55.5)"><path d="M0,0 L5,0 L5,69 L0,69 L0,0 z" fill-rule="evenodd" vector-effect="none"/></g><defs><clipPath id="clip283"><path d="M-837,-2 L93,-2 L93,176 L-837,176 L-837,-2 z"/></clipPath></defs><g clip-path="url(#clip283)" fill="#ffffff" fill-opacity="1" opacity="1" stroke="none" stroke-opacity="0" transform="matrix(1,0,0,1,837,2)"><path d="M0,0 L90,0 L90,30 L0,30 L0,0 z" fill-rule="evenodd" vector-effect="none"/></g><defs><clipPath id="clip287"><path d="M0,0 L91,0 L91,31 L0,31 L0,0 z"/></clipPath></defs><g clip-path="url(#clip287)" fill="none" opacity="1" stroke="none" stroke-opacity="0" transform="matrix(1,0,0,1,837,2)"><path d="M0,0 L91,0 L91,31 L0,31 L0,0 z" fill-rule="evenodd" vector-effect="none"/></g><defs><clipPath id="clip297"><path d="M-1,-1 L63,-1 L63,27 L-1,27 L-1,-1 z"/></clipPath></defs><g clip-path="url(#clip297)" fill="#000000" fill-opacity="1" opacity="1" stroke="none" stroke-opacity="0" transform="matrix(1,0,0,1,852,5)"><path d="M17.9844,15.1094 L17.9844,6.51563 L23.7813,6.51563 L23.7813,7.53125 L19.125,7.53125 L19.125,10.1875 L23.1563,10.1875 L23.1563,11.2031 L19.125,11.2031 L19.125,15.1094 L17.9844,15.1094 M24.4219,15.1094 L26.6875,11.875 L24.5938,8.89063 L25.9063,8.89063 L26.8594,10.3438 C27.0365,10.625 27.1823,10.8594 27.2969,11.0469 C27.4635,10.7865 27.6198,10.5573 27.7656,10.3594 L28.8125,8.89063 L30.0781,8.89063 L27.9219,11.8125 L30.2344,15.1094 L28.9531,15.1094 L27.6719,13.1719 L27.3281,12.6563 L25.6875,15.1094 L24.4219,15.1094 M30.1406,17.5 L30.1406,16.7344 L37.1406,16.7344 L37.1406,17.5 L30.1406,17.5 M41.8594,12.8281 L42.8906,12.9688 C42.776,13.6771 42.4844,14.2344 42.0156,14.6406 C41.5469,15.0469 40.974,15.25 40.2969,15.25 C39.4427,15.25 38.7578,14.9714 38.2422,14.4141 C37.7266,13.8568 37.4688,13.0573 37.4688,12.0156 C37.4688,11.349 37.5807,10.763 37.8047,10.2578 C38.0286,9.7526 38.3672,9.375 38.8203,9.125 C39.2734,8.875 39.7708,8.75 40.3125,8.75 C40.9792,8.75 41.5286,8.91927 41.9609,9.25781 C42.3932,9.59635 42.6719,10.0833 42.7969,10.7188 L41.7656,10.875 C41.6719,10.4583 41.5,10.1432 41.25,9.92969 C41,9.71615 40.6979,9.60938 40.3438,9.60938 C39.8125,9.60938 39.3802,9.79948 39.0469,10.1797 C38.7135,10.5599 38.5469,11.1615 38.5469,11.9844 C38.5469,12.8281 38.7083,13.4375 39.0313,13.8125 C39.3542,14.1875 39.7708,14.375 40.2813,14.375 C40.6979,14.375 41.0443,14.25 41.3203,14 C41.5964,13.75 41.776,13.3594 41.8594,12.8281" fill-rule="nonzero" vector-effect="none"/></g><defs><clipPath id="clip317"><path d="M-837.5,-2.5 L92.5,-2.5 L92.5,175.5 L-837.5,175.5 L-837.5,-2.5 z"/></clipPath></defs><g clip-path="url(#clip317)" fill="none" opacity="1" stroke="#000000" stroke-linecap="butt" stroke-linejoin="miter" stroke-miterlimit="2" stroke-opacity="1" stroke-width="1" transform="matrix(1,0,0,1,837.5,2.5)"><path d="M0,0 L90,0 L90,30 L0,30 L0,0 z" fill-rule="evenodd" vector-effect="none"/></g><defs><clipPath id="clip320"><path d="M-137,-64 L793,-64 L793,114 L-137,114 L-137,-64 z"/></clipPath></defs><g clip-path="url(#clip320)" fill="#ffffff" fill-opacity="1" opacity="1" stroke="none" stroke-opacity="0" transform="matrix(1,0,0,1,137,64)"><path d="M0,0 L110,0 L110,56 L0,56 L0,0 z" fill-rule="evenodd" vector-effect="none"/></g><defs><clipPath id="clip325"><path d="M-753.636,-339.909 L2945.23,-339.909 L2945.23,368.045 L-753.636,368.045 L-753.636,-339.909 z"/></clipPath></defs><g clip-path="url(#clip325)" fill="#ffffff" fill-opacity="1" opacity="0.75" stroke="none" stroke-opacity="0" transform="matrix(0.251429,0,0,0.251429,189.486,85.4629)"><path d="M0,0 L95,0 L95,36 L0,36 L0,0 z" fill-rule="evenodd" vector-effect="none"/></g><defs><clipPath id="clip326"><path d="M-753.636,-339.909 L2945.23,-339.909 L2945.23,368.045 L-753.636,368.045 L-753.636,-339.909 z"/></clipPath></defs><g clip-path="url(#clip326)" fill="none" opacity="0.75" stroke="#000000" stroke-linecap="butt" stroke-linejoin="miter" stroke-miterlimit="2" stroke-opacity="1" stroke-width="1" transform="matrix(0.251429,0,0,0.251429,189.486,85.4629)"><path d="M0,0 L95,0 L95,36 L0,36 L0,0 z" fill-rule="evenodd" vector-effect="none"/></g><defs><clipPath id="clip330"><path d="M-663.636,-341.909 L3035.23,-341.909 L3035.23,366.045 L-663.636,366.045 L-663.636,-341.909 z"/></clipPath></defs><g clip-path="url(#clip330)" fill="#ffffff" fill-opacity="1" opacity="0.75" stroke="none" stroke-opacity="0" transform="matrix(0.251429,0,0,0.251429,166.857,85.9657)"><path d="M0,0 L45,16 L0,32 L0,0 z" fill-rule="nonzero" vector-effect="none"/></g><defs><clipPath id="clip331"><path d="M-663.636,-341.909 L3035.23,-341.909 L3035.23,366.045 L-663.636,366.045 L-663.636,-341.909 z"/></clipPath></defs><g clip-path="url(#clip331)" fill="none" opacity="0.75" stroke="#000000" stroke-linecap="butt" stroke-linejoin="miter" stroke-miterlimit="2" stroke-opacity="1" stroke-width="1" transform="matrix(0.251429,0,0,0.251429,166.857,85.9657)"><path d="M0,0 L45,16 L0,32 L0,0 z" fill-rule="nonzero" vector-effect="none"/></g><defs><clipPath id="clip335"><path d="M-588.636,-350.909 L3110.23,-350.909 L3110.23,357.045 L-588.636,357.045 L-588.636,-350.909 z"/></clipPath></defs><g clip-path="url(#clip335)" fill="#ffffff" fill-opacity="1" opacity="0.75" stroke="none" stroke-opacity="0" transform="matrix(0.251429,0,0,0.251429,148,88.2286)"><path d="M7,0 L23,0 C26.866,0 30,3.13401 30,7 C30,10.866 26.866,14 23,14 L7,14 C3.13401,14 0,10.866 0,7 C0,3.13401 3.13401,0 7,0 z" fill-rule="nonzero" vector-effect="none"/></g><defs><clipPath id="clip336"><path d="M-588.636,-350.909 L3110.23,-350.909 L3110.23,357.045 L-588.636,357.045 L-588.636,-350.909 z"/></clipPath></defs><g clip-path="url(#clip336)" fill="none" opacity="0.75" stroke="#000000" stroke-linecap="butt" stroke-linejoin="miter" stroke-miterlimit="2" stroke-opacity="1" stroke-width="1" transform="matrix(0.251429,0,0,0.251429,148,88.2286)"><path d="M7,0 L23,0 C26.866,0 30,3.13401 30,7 C30,10.866 26.866,14 23,14 L7,14 C3.13401,14 0,10.866 0,7 C0,3.13401 3.13401,0 7,0 z" fill-rule="nonzero" vector-effect="none"/></g><defs><clipPath id="clip340"><path d="M-908.636,-350.909 L2790.23,-350.909 L2790.23,357.045 L-908.636,357.045 L-908.636,-350.909 z"/></clipPath></defs><g clip-path="url(#clip340)" fill="#ffffff" fill-opacity="1" opacity="0.75" stroke="none" stroke-opacity="0" transform="matrix(0.251429,0,0,0.251429,228.457,88.2286)"><path d="M7,0 L23,0 C26.866,0 30,3.13401 30,7 C30,10.866 26.866,14 23,14 L7,14 C3.13401,14 0,10.866 0,7 C0,3.13401 3.13401,0 7,0 z" fill-rule="nonzero" vector-effect="none"/></g><defs><clipPath id="clip341"><path d="M-908.636,-350.909 L2790.23,-350.909 L2790.23,357.045 L-908.636,357.045 L-908.636,-350.909 z"/></clipPath></defs><g clip-path="url(#clip341)" fill="none" opacity="0.75" stroke="#000000" stroke-linecap="butt" stroke-linejoin="miter" stroke-miterlimit="2" stroke-opacity="1" stroke-width="1" transform="matrix(0.251429,0,0,0.251429,228.457,88.2286)"><path d="M7,0 L23,0 C26.866,0 30,3.13401 30,7 C30,10.866 26.866,14 23,14 L7,14 C3.13401,14 0,10.866 0,7 C0,3.13401 3.13401,0 7,0 z" fill-rule="nonzero" vector-effect="none"/></g><defs><clipPath id="clip347"><path d="M-908.636,-357.909 L2790.23,-357.909 L2790.23,350.045 L-908.636,350.045 L-908.636,-357.909 z"/></clipPath></defs><g clip-path="url(#clip347)" fill="#000000" fill-opacity="1" opacity="0.75" stroke="none" stroke-opacity="0" transform="matrix(0.251429,0,0,0.251429,228.457,89.9886)"><path d="M0,0 L-8,-4 L-8,4 L0,0 z" fill-rule="nonzero" vector-effect="none"/></g><defs><clipPath id="clip349"><path d="M-568.636,-317.909 L3130.23,-317.909 L3130.23,390.045 L-568.636,390.045 L-568.636,-317.909 z"/></clipPath></defs><g clip-path="url(#clip349)" fill="none" opacity="0.75" stroke="#000000" stroke-linecap="butt" stroke-linejoin="miter" stroke-miterlimit="2" stroke-opacity="1" stroke-width="1" transform="matrix(0.251429,0,0,0.251429,142.971,79.9314)"><path d="M280,40 L332,40" fill-rule="evenodd" vector-effect="none"/></g><defs><clipPath id="clip355"><path d="M-753.636,-357.909 L2945.23,-357.909 L2945.23,350.045 L-753.636,350.045 L-753.636,-357.909 z"/></clipPath></defs><g clip-path="url(#clip355)" fill="#000000" fill-opacity="1" opacity="0.75" stroke="none" stroke-opacity="0" transform="matrix(0.251429,0,0,0.251429,189.486,89.9886)"><path d="M0,0 L-8,-4 L-8,4 L0,0 z" fill-rule="nonzero" vector-effect="none"/></g><defs><clipPath id="clip357"><path d="M-568.636,-317.909 L3130.23,-317.909 L3130.23,390.045 L-568.636,390.045 L-568.636,-317.909 z"/></clipPath></defs><g clip-path="url(#clip357)" fill="none" opacity="0.75" stroke="#000000" stroke-linecap="butt" stroke-linejoin="miter" stroke-miterlimit="2" stroke-opacity="1" stroke-width="1" transform="matrix(0.251429,0,0,0.251429,142.971,79.9314)"><path d="M140,40 L177,40" fill-rule="evenodd" vector-effect="none"/></g><defs><clipPath id="clip362"><path d="M-663.636,-357.909 L3035.23,-357.909 L3035.23,350.045 L-663.636,350.045 L-663.636,-357.909 z"/></clipPath></defs><g clip-path="url(#clip362)" fill="#000000" fill-opacity="1" opacity="0.75" stroke="none" stroke-opacity="0" transform="matrix(0.251429,0,0,0.251429,166.857,89.9886)"><path d="M0,0 L-8,-4 L-8,4 L0,0 z" fill-rule="nonzero" vector-effect="none"/></g><defs><clipPath id="clip364"><path d="M-568.636,-317.909 L3130.23,-317.909 L3130.23,390.045 L-568.636,390.045 L-568.636,-317.909 z"/></clipPath></defs><g clip-path="url(#clip364)" fill="none" opacity="0.75" stroke="#000000" stroke-linecap="butt" stroke-linejoin="miter" stroke-miterlimit="2" stroke-opacity="1" stroke-width="1" transform="matrix(0.251429,0,0,0.251429,142.971,79.9314)"><path d="M50,40 L87,40" fill-rule="evenodd" vector-effect="none"/></g><defs><clipPath id="clip371"><path d="M-3,-28 L107,-28 L107,28 L-3,28 L-3,-28 z"/></clipPath></defs><g clip-path="url(#clip371)" fill="none" opacity="1" stroke="#000000" stroke-linecap="butt" stroke-linejoin="miter" stroke-miterlimit="2" stroke-opacity="1" stroke-width="1" transform="matrix(1,0,0,1,140,92)"><text fill="#000000" fill-opacity="1" font-family="Arial" font-size="9" font-style="normal" font-weight="400" stroke="none" textLength="5" x="0" xml:space="preserve" y="3">e</text></g><defs><clipPath id="clip372"><path d="M-107,-28 L3,-28 L3,28 L-107,28 L-107,-28 z"/></clipPath></defs><g clip-path="url(#clip372)" fill="none" opacity="1" stroke="#000000" stroke-linecap="butt" stroke-linejoin="miter" stroke-miterlimit="2" stroke-opacity="1" stroke-width="1" transform="matrix(1,0,0,1,244,92)"><text fill="#000000" fill-opacity="1" font-family="Arial" font-size="9" font-style="normal" font-weight="400" stroke="none" textLength="6.48438" x="-6.48438" xml:space="preserve" y="3">U</text></g><defs><clipPath id="clip377"><path d="M-137.5,-64.5 L792.5,-64.5 L792.5,113.5 L-137.5,113.5 L-137.5,-64.5 z"/></clipPath></defs><g clip-path="url(#clip377)" fill="none" opacity="1" stroke="#000000" stroke-linecap="butt" stroke-linejoin="miter" stroke-miterlimit="2" stroke-opacity="1" stroke-width="1" transform="matrix(1,0,0,1,137.5,64.5)"><path d="M0,0 L110,0 L110,56 L0,56 L0,0 z" fill-rule="evenodd" vector-effect="none"/></g><defs><clipPath id="clip383"><path d="M0,0 L32,0 L32,14 L0,14 L0,0 z"/></clipPath></defs><g clip-path="url(#clip383)" fill="none" opacity="1" stroke="#000000" stroke-linecap="square" stroke-linejoin="bevel" stroke-opacity="1" stroke-width="1" transform="matrix(1,0,0,1,175.797,122)"><text fill="#000000" fill-opacity="1" font-family="Arial" font-size="10" font-style="normal" font-weight="400" stroke="none" textLength="29.4062" x="1.5" xml:space="preserve" y="10">Regler</text></g><defs><clipPath id="clip391"><path d="M-642,-92 L288,-92 L288,86 L-642,86 L-642,-92 z"/></clipPath></defs><g clip-path="url(#clip391)" fill="#000000" fill-opacity="1" opacity="1" stroke="none" stroke-opacity="0" transform="matrix(1,0,0,1,642,92)"><path d="M0,0 L-8,-4 L-8,4 L0,0 z" fill-rule="nonzero" vector-effect="none"/></g><defs><clipPath id="clip394"><path d="M18,143 L948,143 L948,321 L18,321 L18,143 z"/></clipPath></defs><g clip-path="url(#clip394)" fill="none" opacity="1" stroke="#000000" stroke-linecap="butt" stroke-linejoin="miter" stroke-miterlimit="2" stroke-opacity="1" stroke-width="1" transform="matrix(1,0,0,1,-18,-143)"><path d="M620.5,235.5 L652.5,235.5" fill-rule="evenodd" vector-effect="none"/></g><defs><clipPath id="clip397"><path d="M-137,-92 L793,-92 L793,86 L-137,86 L-137,-92 z"/></clipPath></defs><g clip-path="url(#clip397)" fill="#000000" fill-opacity="1" opacity="1" stroke="none" stroke-opacity="0" transform="matrix(1,0,0,1,137,92)"><path d="M0,0 L-8,-4 L-8,4 L0,0 z" fill-rule="nonzero" vector-effect="none"/></g><defs><clipPath id="clip400"><path d="M18,143 L948,143 L948,321 L18,321 L18,143 z"/></clipPath></defs><g clip-path="url(#clip400)" fill="none" opacity="1" stroke="#000000" stroke-linecap="butt" stroke-linejoin="miter" stroke-miterlimit="2" stroke-opacity="1" stroke-width="1" transform="matrix(1,0,0,1,-18,-143)"><path d="M105.5,235.5 L147.5,235.5" fill-rule="evenodd" vector-effect="none"/></g><defs><clipPath id="clip406"><path d="M0,0 L7,0 L7,12 L0,12 L0,0 z"/></clipPath></defs><g clip-path="url(#clip406)" fill="none" opacity="1" stroke="#000000" stroke-linecap="square" stroke-linejoin="bevel" stroke-opacity="1" stroke-width="1" transform="matrix(1,0,0,1,92,93.5)"><text fill="#000000" fill-opacity="1" font-family="Arial" font-size="9" font-style="normal" font-weight="400" stroke="none" textLength="5" x="1" xml:space="preserve" y="9">e</text></g><defs><clipPath id="clip414"><path d="M-297,-92 L633,-92 L633,86 L-297,86 L-297,-92 z"/></clipPath></defs><g clip-path="url(#clip414)" fill="#000000" fill-opacity="1" opacity="1" stroke="none" stroke-opacity="0" transform="matrix(1,0,0,1,297,92)"><path d="M0,0 L-8,-4 L-8,4 L0,0 z" fill-rule="nonzero" vector-effect="none"/></g><defs><clipPath id="clip417"><path d="M18,143 L948,143 L948,321 L18,321 L18,143 z"/></clipPath></defs><g clip-path="url(#clip417)" fill="none" opacity="1" stroke="#000000" stroke-linecap="butt" stroke-linejoin="miter" stroke-miterlimit="2" stroke-opacity="1" stroke-width="1" transform="matrix(1,0,0,1,-18,-143)"><path d="M265.5,235.5 L307.5,235.5" fill-rule="evenodd" vector-effect="none"/></g><defs><clipPath id="clip423"><path d="M0,0 L8,0 L8,12 L0,12 L0,0 z"/></clipPath></defs><g clip-path="url(#clip423)" fill="none" opacity="1" stroke="#000000" stroke-linecap="square" stroke-linejoin="bevel" stroke-opacity="1" stroke-width="1" transform="matrix(1,0,0,1,262.758,93.5)"><text fill="#000000" fill-opacity="1" font-family="Arial" font-size="9" font-style="normal" font-weight="400" stroke="none" textLength="6.48438" x="1" xml:space="preserve" y="9">U</text></g><defs><clipPath id="clip431"><path d="M-687,-107 L243,-107 L243,71 L-687,71 L-687,-107 z"/></clipPath></defs><g clip-path="url(#clip431)" fill="#000000" fill-opacity="1" opacity="1" stroke="none" stroke-opacity="0" transform="matrix(1,0,0,1,687,107)"><path d="M0,0 L-8,-4 L-8,4 L0,0 z" fill-rule="nonzero" vector-effect="none"/></g><defs><clipPath id="clip434"><path d="M18,143 L948,143 L948,321 L18,321 L18,143 z"/></clipPath></defs><g clip-path="url(#clip434)" fill="none" opacity="1" stroke="#000000" stroke-linecap="butt" stroke-linejoin="miter" stroke-miterlimit="2" stroke-opacity="1" stroke-width="1" transform="matrix(1,0,0,1,-18,-143)"><path d="M665.5,250.5 L697.5,250.5" fill-rule="evenodd" vector-effect="none"/></g><defs><clipPath id="clip440"><path d="M0,0 L13,0 L13,12 L0,12 L0,0 z"/></clipPath></defs><g clip-path="url(#clip440)" fill="none" opacity="1" stroke="#000000" stroke-linecap="square" stroke-linejoin="bevel" stroke-opacity="1" stroke-width="1" transform="matrix(1,0,0,1,655.508,108.5)"><text fill="#000000" fill-opacity="1" font-family="Arial" font-size="9" font-style="normal" font-weight="400" stroke="none" textLength="10.9844" x="1" xml:space="preserve" y="9">xw</text></g><defs><clipPath id="clip448"><path d="M-837,-72 L93,-72 L93,106 L-837,106 L-837,-72 z"/></clipPath></defs><g clip-path="url(#clip448)" fill="#000000" fill-opacity="1" opacity="1" stroke="none" stroke-opacity="0" transform="matrix(1,0,0,1,837,72)"><path d="M0,0 L-8,-4 L-8,4 L0,0 z" fill-rule="nonzero" vector-effect="none"/></g><defs><clipPath id="clip451"><path d="M18,143 L948,143 L948,321 L18,321 L18,143 z"/></clipPath></defs><g clip-path="url(#clip451)" fill="none" opacity="1" stroke="#000000" stroke-linecap="butt" stroke-linejoin="miter" stroke-miterlimit="2" stroke-opacity="1" stroke-width="1" transform="matrix(1,0,0,1,-18,-143)"><path d="M822.5,215.5 L847.5,215.5" fill-rule="evenodd" vector-effect="none"/></g><defs><clipPath id="clip454"><path d="M102,-77 L102,853 L-76,853 L-76,-77 L102,-77 z"/></clipPath></defs><g clip-path="url(#clip454)" fill="#000000" fill-opacity="1" opacity="1" stroke="none" stroke-opacity="0" transform="matrix(6.12323e-17,-1,1,6.12323e-17,77,102)"><path d="M0,0 L-8,-4 L-8,4 L0,0 z" fill-rule="nonzero" vector-effect="none"/></g><defs><clipPath id="clip457"><path d="M18,143 L948,143 L948,321 L18,321 L18,143 z"/></clipPath></defs><g clip-path="url(#clip457)" fill="none" opacity="1" stroke="#000000" stroke-linecap="butt" stroke-linejoin="miter" stroke-miterlimit="2" stroke-opacity="1" stroke-width="1" transform="matrix(1,0,0,1,-18,-143)"><path d="M822.5,215.5 L822.5,319.5 L95.5,319.5 L95.5,253.5" fill-rule="evenodd" vector-effect="none"/></g><defs><clipPath id="clip462"><path d="M18,143 L948,143 L948,321 L18,321 L18,143 z"/></clipPath></defs><g clip-path="url(#clip462)" fill="none" opacity="1" stroke="#000000" stroke-linecap="butt" stroke-linejoin="miter" stroke-miterlimit="2" stroke-opacity="1" stroke-width="1" transform="matrix(1,0,0,1,-18,-143)"><path d="M665.5,215.5 L822.5,215.5" fill-rule="evenodd" vector-effect="none"/></g><defs><clipPath id="clip468"><path d="M0,0 L14,0 L14,12 L0,12 L0,0 z"/></clipPath></defs><g clip-path="url(#clip468)" fill="none" opacity="1" stroke="#000000" stroke-linecap="square" stroke-linejoin="bevel" stroke-opacity="1" stroke-width="1" transform="matrix(1,0,0,1,721.008,73.5)"><text fill="#000000" fill-opacity="1" font-family="Arial" font-size="9" font-style="normal" font-weight="400" stroke="none" textLength="11.9844" x="1" xml:space="preserve" y="9">phi</text></g><defs><clipPath id="clip476"><path d="M-804,-72 L126,-72 L126,106 L-804,106 L-804,-72 z"/></clipPath></defs><g clip-path="url(#clip476)" fill="#000000" fill-opacity="1" opacity="1" stroke="none" stroke-opacity="0" transform="matrix(1,0,0,1,804,72)"><path d="M3,0.5 C3,1.88071 1.88071,3 0.5,3 C-0.880712,3 -2,1.88071 -2,0.5 C-2,-0.880712 -0.880712,-2 0.5,-2 C1.88071,-2 3,-0.880712 3,0.5 z" fill-rule="evenodd" vector-effect="none"/></g><defs><clipPath id="clip479"><path d="M-67,-92 L863,-92 L863,86 L-67,86 L-67,-92 z"/></clipPath></defs><g clip-path="url(#clip479)" fill="#000000" fill-opacity="1" opacity="1" stroke="none" stroke-opacity="0" transform="matrix(1,0,0,1,67,92)"><path d="M0,0 L-8,-4 L-8,4 L0,0 z" fill-rule="nonzero" vector-effect="none"/></g><defs><clipPath id="clip482"><path d="M18,143 L948,143 L948,321 L18,321 L18,143 z"/></clipPath></defs><g clip-path="url(#clip482)" fill="none" opacity="1" stroke="#000000" stroke-linecap="butt" stroke-linejoin="miter" stroke-miterlimit="2" stroke-opacity="1" stroke-width="1" transform="matrix(1,0,0,1,-18,-143)"><path d="M50.5,235.5 L77.5,235.5" fill-rule="evenodd" vector-effect="none"/></g><defs><clipPath id="clip488"><path d="M0,0 L8,0 L8,12 L0,12 L0,0 z"/></clipPath></defs><g clip-path="url(#clip488)" fill="none" opacity="1" stroke="#000000" stroke-linecap="square" stroke-linejoin="bevel" stroke-opacity="1" stroke-width="1" transform="matrix(1,0,0,1,40.2578,93.5)"><text fill="#000000" fill-opacity="1" font-family="Arial" font-size="9" font-style="normal" font-weight="400" stroke="none" textLength="6.48438" x="1" xml:space="preserve" y="9">w</text></g><defs><clipPath id="clip496"><path d="M-837,-17 L93,-17 L93,161 L-837,161 L-837,-17 z"/></clipPath></defs><g clip-path="url(#clip496)" fill="#000000" fill-opacity="1" opacity="1" stroke="none" stroke-opacity="0" transform="matrix(1,0,0,1,837,17)"><path d="M0,0 L-8,-4 L-8,4 L0,0 z" fill-rule="nonzero" vector-effect="none"/></g><defs><clipPath id="clip499"><path d="M18,143 L948,143 L948,321 L18,321 L18,143 z"/></clipPath></defs><g clip-path="url(#clip499)" fill="none" opacity="1" stroke="#000000" stroke-linecap="butt" stroke-linejoin="miter" stroke-miterlimit="2" stroke-opacity="1" stroke-width="1" transform="matrix(1,0,0,1,-18,-143)"><path d="M527.5,235.5 L527.5,160.5 L847.5,160.5" fill-rule="evenodd" vector-effect="none"/></g><defs><clipPath id="clip502"><path d="M-542,-92 L388,-92 L388,86 L-542,86 L-542,-92 z"/></clipPath></defs><g clip-path="url(#clip502)" fill="#000000" fill-opacity="1" opacity="1" stroke="none" stroke-opacity="0" transform="matrix(1,0,0,1,542,92)"><path d="M0,0 L-8,-4 L-8,4 L0,0 z" fill-rule="nonzero" vector-effect="none"/></g><defs><clipPath id="clip505"><path d="M18,143 L948,143 L948,321 L18,321 L18,143 z"/></clipPath></defs><g clip-path="url(#clip505)" fill="none" opacity="1" stroke="#000000" stroke-linecap="butt" stroke-linejoin="miter" stroke-miterlimit="2" stroke-opacity="1" stroke-width="1" transform="matrix(1,0,0,1,-18,-143)"><path d="M527.5,235.5 L552.5,235.5" fill-rule="evenodd" vector-effect="none"/></g><defs><clipPath id="clip510"><path d="M18,143 L948,143 L948,321 L18,321 L18,143 z"/></clipPath></defs><g clip-path="url(#clip510)" fill="none" opacity="1" stroke="#000000" stroke-linecap="butt" stroke-linejoin="miter" stroke-miterlimit="2" stroke-opacity="1" stroke-width="1" transform="matrix(1,0,0,1,-18,-143)"><path d="M495.5,235.5 L527.5,235.5" fill-rule="evenodd" vector-effect="none"/></g><defs><clipPath id="clip516"><path d="M0,0 L12,0 L12,12 L0,12 L0,0 z"/></clipPath></defs><g clip-path="url(#clip516)" fill="none" opacity="1" stroke="#000000" stroke-linecap="square" stroke-linejoin="bevel" stroke-opacity="1" stroke-width="1" transform="matrix(1,0,0,1,482,93.5)"><text fill="#000000" fill-opacity="1" font-family="Arial" font-size="9" font-style="normal" font-weight="400" stroke="none" textLength="9.98438" x="1" xml:space="preserve" y="9">Fx</text></g><defs><clipPath id="clip524"><path d="M-509,-92 L421,-92 L421,86 L-509,86 L-509,-92 z"/></clipPath></defs><g clip-path="url(#clip524)" fill="#000000" fill-opacity="1" opacity="1" stroke="none" stroke-opacity="0" transform="matrix(1,0,0,1,509,92)"><path d="M3,0.5 C3,1.88071 1.88071,3 0.5,3 C-0.880712,3 -2,1.88071 -2,0.5 C-2,-0.880712 -0.880712,-2 0.5,-2 C1.88071,-2 3,-0.880712 3,0.5 z" fill-rule="evenodd" vector-effect="none"/></g></g><!--generated on windows @ 2020-07-22 20:32:44 Mitteleuropische Sommerzeit--></svg>
